<svg width="199" height="84" viewBox="0 0 199 84" fill="none" xmlns="http://www.w3.org/2000/svg">
<path d="M38.4529 65.38C38.4529 56.2265 33.5294 49.5001 24.8614 47.9745L24.8614 56.3652C28.8833 57.7521 31.033 61.0113 31.033 65.38C31.033 70.7195 26.595 75.2962 19.2445 75.2962C11.9633 75.2962 7.52531 70.7195 7.52531 65.38C7.52531 61.358 9.46695 57.7521 13.5583 56.3652V47.9745C4.82088 49.4307 0.10547 56.6426 0.10547 65.38C0.105471 75.5043 7.664 83.5482 19.2445 83.5482C31.4491 83.5482 38.4529 75.5043 38.4529 65.38Z" fill="black"/>
<path d="M38.4528 25.3726C38.4528 15.0402 31.4491 6.78826 19.2445 6.78826C7.10924 6.78826 0.105468 15.0402 0.105469 25.3726C0.105469 35.7049 7.10924 43.9569 19.2445 43.9569C31.4491 43.9569 38.4528 35.7742 38.4528 25.3726ZM19.2445 35.7049C11.2006 35.7049 7.38662 30.8508 7.38662 25.3726C7.38662 19.9637 11.2006 15.0402 19.2445 15.0402C27.2884 15.0402 31.1024 19.9637 31.1024 25.3726C31.1024 30.8508 27.2884 35.7049 19.2445 35.7049Z" fill="black"/>
</svg>
