<svg width="199" height="49" viewBox="0 0 199 49" fill="none" xmlns="http://www.w3.org/2000/svg">
<path d="M22.889 48.0077C29.7541 48.0077 37.798 44.8872 37.798 36.4966C37.798 31.157 34.4001 26.927 27.535 25.5401L21.294 24.2226C18.0349 23.4598 16.5093 22.2116 16.5093 20.27C16.5093 17.7042 19.075 16.248 22.2649 16.248C26.0788 16.248 28.5058 18.5364 28.7832 21.5875H36.8965C36.6191 13.4049 29.2686 9.66027 22.4729 9.66027C15.3998 9.66027 8.25732 13.6823 8.25732 20.9634C8.25732 26.5803 12.3486 29.9782 18.1736 31.2264L24.7613 32.6133C27.6044 33.168 29.546 34.763 29.546 37.2594C29.546 40.3799 26.4949 41.42 23.305 41.42C18.867 41.42 15.6772 38.993 15.4691 35.0403H7.35584C7.77191 44.1938 15.3304 48.0077 22.889 48.0077Z" fill="black"/>
<path d="M59.6636 47.661C61.5359 47.661 63.3389 47.453 65.0725 46.9676V40.0331C63.6856 40.3105 62.2987 40.4492 61.1892 40.4492C57.6526 40.4492 55.2256 38.8543 55.2256 34.6243V17.5655H64.1017V10.7004H55.2256V0.714844H46.9736V10.7004H40.0392V17.5655H46.9736V34.8323C46.9736 44.6099 52.6599 47.661 59.6636 47.661Z" fill="black"/>
<path d="M70.2988 10.7004V46.9676H78.4814V30.3249C78.4814 22.1423 82.7807 18.675 88.2589 18.675C89.5765 18.675 90.8246 18.8137 92.0728 19.0218V10.8391C90.894 10.5618 89.8538 10.3537 88.0509 10.3537C83.6129 10.3537 79.7296 13.1275 78.204 17.1495V10.7004H70.2988Z" fill="black"/>
<path d="M110.599 48.0077C116.146 48.0077 119.96 45.0259 121.624 42.3908V46.9676H129.53V10.7004H121.278V31.6425C121.278 36.8433 117.533 40.5879 112.956 40.5879C108.449 40.5879 105.953 37.19 105.953 32.8213V10.7004H97.7006V34.4856C97.7006 42.1828 102.277 48.0077 110.599 48.0077Z" fill="black"/>
<path d="M154.405 48.0077C163.559 48.0077 170.285 43.0843 171.811 34.4162H163.42C162.033 38.4382 158.774 40.5879 154.405 40.5879C149.066 40.5879 144.489 36.1498 144.489 28.7993C144.489 21.5182 149.066 17.0801 154.405 17.0801C158.427 17.0801 162.033 19.0218 163.42 23.1131H171.811C170.354 14.3757 163.143 9.66027 154.405 9.66027C144.281 9.66027 136.237 17.2188 136.237 28.7993C136.237 41.004 144.281 48.0077 154.405 48.0077Z" fill="black"/>
<path d="M193.25 47.661C195.122 47.661 196.925 47.453 198.659 46.9676V40.0331C197.272 40.3105 195.885 40.4492 194.775 40.4492C191.239 40.4492 188.812 38.8543 188.812 34.6243V17.5655H197.688V10.7004H188.812V0.714844H180.56V10.7004H173.626V17.5655H180.56V34.8323C180.56 44.6099 186.246 47.661 193.25 47.661Z" fill="black"/>
</svg>
