<svg width="182" height="101" viewBox="0 0 182 101" fill="none" xmlns="http://www.w3.org/2000/svg">
<path d="M56.8792 16.3594H0.12207V21.5551H56.8792V16.3594Z" fill="white"/>
<path fill-rule="evenodd" clip-rule="evenodd" d="M172.74 0.316406H169.808V7.06009H165.406V11.5678H169.829V22.8981C169.829 29.3121 173.457 31.3187 177.922 31.3187C179.113 31.3187 180.263 31.1826 181.37 30.8672V26.3165C180.485 26.4957 179.601 26.5888 178.89 26.5888C176.634 26.5888 175.087 25.5425 175.087 22.7691V11.5678H180.75V7.06009H175.087V0.316406H172.74ZM87.7075 0.316406H90.0617H90.0687V7.06009H95.7245V11.5678H90.0617V22.7619C90.0617 25.5354 91.608 26.5817 93.8648 26.5817C94.5753 26.5817 95.4599 26.4885 96.3445 26.3093V30.8601C95.237 31.1754 94.0877 31.3116 92.8966 31.3116C88.4319 31.3116 84.8029 29.3121 84.8029 22.8909V11.5678H80.38V7.06009H84.796V0.316406H87.7144H87.7075ZM70.0991 31.5409C74.4803 31.5409 79.6068 29.4913 79.6068 23.9874C79.6068 20.483 77.4406 17.7095 73.0594 16.7994L69.0822 15.9322C67.0065 15.4306 66.0314 14.6136 66.0314 13.338C66.0314 11.6538 67.6683 10.7007 69.7021 10.7007C72.133 10.7007 73.6863 12.2056 73.8604 14.2051H79.0357C78.8615 8.83739 74.1739 6.37927 69.8345 6.37927C65.4951 6.37927 60.7656 9.01655 60.7656 13.7966C60.7656 17.4802 63.3776 19.709 67.0901 20.5331L71.2902 21.4433C73.1012 21.8088 74.341 22.8551 74.341 24.489C74.341 26.5387 72.3977 27.2195 70.3569 27.2195C67.5289 27.2195 65.4951 25.6285 65.3627 23.0342H60.1875C60.4522 29.0398 65.2722 31.5409 70.0922 31.5409H70.0991ZM104.717 30.8601H99.4998V7.06009H104.543V11.2955C105.518 8.65822 107.99 6.83793 110.825 6.83793C111.975 6.83793 112.636 6.97409 113.389 7.15326V12.521C112.595 12.3848 111.794 12.2916 110.958 12.2916C107.461 12.2916 104.724 14.5634 104.724 19.9383V30.8601H104.717ZM125.202 31.5409C128.74 31.5409 131.171 29.5844 132.237 27.8573V30.8601H137.28V7.06009H132.014V20.8055C132.014 24.2167 129.625 26.6748 126.706 26.6748C123.788 26.6748 122.242 24.446 122.242 21.5794V7.06009H116.976V22.6688C116.976 27.7211 119.894 31.5409 125.202 31.5409ZM163.936 22.6186C163.274 28.3088 158.984 31.5409 153.147 31.5409C146.69 31.5409 141.556 26.9472 141.556 18.935C141.556 10.9228 146.69 6.37211 153.147 6.37211C158.719 6.37211 163.316 9.46804 163.936 15.2012H158.67C158.008 12.5138 155.71 11.2453 153.14 11.2453C149.734 11.2453 146.815 14.1549 146.815 18.935C146.815 23.7151 149.734 26.6677 153.14 26.6677C155.926 26.6677 158.008 25.2559 158.67 22.6186H163.936Z" fill="white"/>
<path d="M25.6997 88.4579C25.6997 82.6137 22.5202 78.3178 16.9225 77.6552L16.9225 82.9275C19.5169 83.5901 20.9057 85.6753 20.9057 88.4648C20.9057 91.8751 18.0435 94.7972 13.2989 94.7972C8.55431 94.7972 5.73436 91.8751 5.73436 88.4648C5.73436 85.8984 6.98924 83.597 9.6259 82.9275L9.6259 77.6552C3.98598 78.2759 0.940429 82.8787 0.940429 88.4579C0.947479 94.9227 5.826 100.062 13.2989 100.062C21.1807 100.062 25.6997 94.9227 25.6997 88.4579Z" fill="white"/>
<path d="M25.6997 62.9116C25.6997 56.3143 21.1807 51.042 13.2989 51.042C5.41711 51.042 0.940429 56.3143 0.940429 62.9116C0.940429 69.509 5.45941 74.7812 13.2989 74.7812C21.1384 74.7812 25.6997 69.5578 25.6997 62.9116ZM13.2989 69.509C8.10312 69.509 5.64271 66.4125 5.64271 62.9116C5.64271 59.4107 8.10312 56.3143 13.2989 56.3143C18.4947 56.3143 20.9551 59.4595 20.9551 62.9116C20.9551 66.3637 18.4947 69.509 13.2989 69.509Z" fill="white"/>
</svg>
