<?xml version="1.0" standalone="no"?>
<!DOCTYPE svg PUBLIC "-//W3C//DTD SVG 1.1//EN" "http://www.w3.org/Graphics/SVG/1.1/DTD/svg11.dtd" >
<svg xmlns="http://www.w3.org/2000/svg" xmlns:xlink="http://www.w3.org/1999/xlink" version="1.1">
<metadata>
Created by FontForge 20170731 at Sun Jun 26 16:57:54 2016
 By Aleksey,,,
Copyright 1990-2005 Bitstream Inc.  All rights reserved.
</metadata>
<defs>
<font id="Monospac821BTWGL4W05-Roman" horiz-adv-x="1233" >
  <font-face 
    font-family="Monospac821BTWGL4W05-Roman"
    font-weight="400"
    font-stretch="normal"
    units-per-em="2048"
    panose-1="2 11 6 9 2 2 2 2 2 4"
    ascent="1638"
    descent="-410"
    x-height="1100"
    cap-height="1421"
    bbox="-109 -501 1329 2124"
    underline-thickness="102"
    underline-position="-358"
    unicode-range="U+0020-F005"
  />
<missing-glyph 
d="M104 -362v1806h1024v-1806h-1024zM219 -248h795v1577h-795v-1577z" />
    <glyph glyph-name=".notdef" 
d="M104 -362v1806h1024v-1806h-1024zM219 -248h795v1577h-795v-1577z" />
    <glyph glyph-name="uni0000" horiz-adv-x="0" 
 />
    <glyph glyph-name="uni0000" horiz-adv-x="0" 
 />
    <glyph glyph-name="nonmarkingreturn" horiz-adv-x="682" 
 />
    <glyph glyph-name="space" unicode=" " 
 />
    <glyph glyph-name="exclam" unicode="!" 
d="M473 0v305h285v-305h-285zM565 424l-49 582v417h201v-417l-47 -582h-105z" />
    <glyph glyph-name="quotedbl" unicode="&#x22;" 
d="M696 1473h138v-558h-138v558zM399 1473h140v-558h-140v558z" />
    <glyph glyph-name="numbersign" unicode="#" 
d="M494 858l-60 -264h289l55 264h-284zM477 1458h144l-99 -454h285l102 454h144l-97 -454h170v-146h-204l-56 -262h176v-147h-206l-97 -453h-143l96 453h-286l-101 -453h-139l96 453h-156v147h185l57 262h-162v146h191z" />
    <glyph glyph-name="dollar" unicode="$" 
d="M563 817v434q-108 -1 -172.5 -60.5t-64.5 -156.5q0 -92 57 -144.5t180 -72.5zM668 131q125 12 193.5 76.5t68.5 169.5q0 95 -61 151.5t-201 89.5v-487zM563 -193v179q-230 23 -338 129t-108 309v18h178v-20q0 -127 71.5 -203t196.5 -82v508q-206 32 -311 126.5
t-105 248.5q0 167 113 271.5t303 113.5v135h105v-135q198 -17 303.5 -112t107.5 -259h-178q-12 102 -71 156.5t-162 60.5v-450q252 -55 349 -144.5t97 -259.5q0 -176 -115 -282t-331 -127v-181h-105z" />
    <glyph glyph-name="percent" unicode="%" 
d="M696 319q0 -78 52.5 -131t130.5 -53q77 0 130.5 54t53.5 130q0 77 -54 131t-130 54q-77 0 -130 -53.5t-53 -131.5zM561 319q0 134 92.5 227t225.5 93q131 0 226 -94t95 -226q0 -131 -94.5 -225t-226.5 -94q-134 0 -226 92t-92 227zM121 465l-35 96l1042 418l41 -96z
M168 1112q0 -78 53.5 -131t130.5 -53q76 0 130.5 54t54.5 130t-54.5 130t-130.5 54q-77 0 -130.5 -53.5t-53.5 -130.5zM33 1112q0 134 93 227t226 93q132 0 226 -94t94 -226t-93.5 -225.5t-226.5 -93.5t-226 92.5t-93 226.5z" />
    <glyph glyph-name="ampersand" unicode="&#x26;" 
d="M983 317l246 -317h-234l-118 158q-83 -101 -176.5 -147t-217.5 -46q-168 0 -277.5 116.5t-109.5 293.5q0 134 67 233t224 195q-68 90 -102.5 174t-34.5 162q0 137 89.5 228t227.5 91q125 0 209 -89t84 -224q0 -106 -56.5 -197t-170.5 -170l231 -297q18 41 26.5 89.5
t10.5 119.5h182q-4 -103 -28.5 -194t-71.5 -179zM532 901q81 47 124.5 109t43.5 129q0 69 -38 115t-95 46q-62 0 -104.5 -47t-42.5 -114q0 -56 26.5 -112.5t85.5 -125.5zM481 692q-109 -67 -159 -135.5t-50 -150.5q0 -113 68 -184.5t176 -71.5q79 0 149 38.5t115 108.5z" />
    <glyph glyph-name="quotesingle" unicode="'" 
d="M549 1473h137v-558h-137v558z" />
    <glyph glyph-name="parenleft" unicode="(" 
d="M766 -395q-172 226 -253 450.5t-81 474.5q0 251 81 475t253 451h129q-130 -206 -198 -443.5t-68 -482.5q0 -243 68.5 -481.5t197.5 -443.5h-129z" />
    <glyph glyph-name="parenright" unicode=")" 
d="M469 -395h-129q128 204 196 442t68 483q0 247 -67.5 484.5t-196.5 441.5h129q172 -227 253 -451t81 -475q0 -250 -81 -474.5t-253 -450.5z" />
    <glyph glyph-name="asterisk" unicode="*" 
d="M506 991l-295 74l53 158l281 -103v301h141v-301l279 103l55 -158l-297 -74l207 -250l-137 -98l-179 266l-174 -262l-139 94z" />
    <glyph glyph-name="plus" unicode="+" 
d="M545 1245h143v-444h404v-142h-404v-444h-143v444h-406v142h406v444z" />
    <glyph glyph-name="comma" unicode="," 
d="M475 0v307h283v-330q0 -183 -85 -283t-247 -108v140q101 12 143.5 65.5t42.5 169.5v39h-137z" />
    <glyph glyph-name="hyphen" unicode="-" 
d="M369 469v162h495v-162h-495z" />
    <glyph glyph-name="period" unicode="." 
d="M475 0v305h283v-305h-283z" />
    <glyph glyph-name="slash" unicode="/" 
d="M297 -190l494 1650h143l-496 -1650h-141z" />
    <glyph glyph-name="zero" unicode="0" 
d="M319 694q0 -294 72 -430.5t225 -136.5q154 0 224.5 135t70.5 432q0 298 -70.5 433t-224.5 135q-153 0 -225 -136.5t-72 -431.5zM123 694q0 361 126 549.5t367 188.5q243 0 367.5 -187t124.5 -551q0 -363 -124.5 -549t-367.5 -186q-241 0 -367 187t-126 548z" />
    <glyph glyph-name="one" unicode="1" 
d="M580 0v1012h-332v145q183 3 272 67.5t107 207.5h139v-1432h-186z" />
    <glyph glyph-name="two" unicode="2" 
d="M117 0v6q0 211 98 352.5t354 280.5l121 66q109 59 159 132.5t50 172.5q0 113 -77.5 182.5t-207.5 69.5q-129 0 -203.5 -88t-74.5 -242v-17h-186v29q0 225 128 356.5t347 131.5q210 0 339.5 -117t129.5 -307q0 -147 -76 -257.5t-232 -191.5l-120 -61q-171 -89 -245.5 -161
t-98.5 -161h772v-176h-977z" />
    <glyph glyph-name="three" unicode="3" 
d="M100 446h189q3 -150 82.5 -232.5t222.5 -82.5q140 0 220.5 75t80.5 206q0 119 -79.5 185.5t-223.5 66.5q-20 0 -42 -1t-58 -3v161q22 -1 42 -1.5t37 -0.5q138 0 204.5 54.5t66.5 166.5q0 108 -64.5 166t-185.5 58q-136 0 -206.5 -77t-70.5 -226h-182v14q0 209 121.5 333
t327.5 124q218 0 338 -101t120 -282q0 -103 -45.5 -176t-134.5 -111q115 -42 174.5 -131t59.5 -219q0 -205 -140 -329t-372 -124q-220 0 -351 129t-131 344v14z" />
    <glyph glyph-name="four" unicode="4" 
d="M276 516h453v637zM729 0v352h-625v180l623 859h186v-875h203v-164h-203v-352h-184z" />
    <glyph glyph-name="five" unicode="5" 
d="M109 371h190q17 -111 92.5 -173.5t192.5 -62.5q143 0 230 87t87 229q0 145 -86 231t-231 86q-83 0 -151.5 -33t-119.5 -98h-163l112 754h760v-168h-623l-57 -383q51 45 120.5 68.5t151.5 23.5q219 0 352.5 -130t133.5 -341q0 -224 -141.5 -363t-368.5 -139
q-201 0 -333.5 113.5t-147.5 298.5z" />
    <glyph glyph-name="six" unicode="6" 
d="M922 434q0 139 -77 222t-202 83q-140 0 -219.5 -82t-79.5 -225t78.5 -227t212.5 -84q128 0 207.5 86.5t79.5 226.5zM1108 1038h-188q-11 111 -77 169.5t-181 58.5q-156 0 -239 -128t-97 -388q60 77 146.5 117t193.5 40q202 0 328 -129.5t126 -341.5t-133.5 -344.5
t-349.5 -132.5q-250 0 -383 173t-133 499q0 382 141.5 591.5t396.5 209.5q203 0 320.5 -103t128.5 -291z" />
    <glyph glyph-name="seven" unicode="7" 
d="M332 0q46 343 188.5 638.5t394.5 565.5h-778v187h975v-170q-243 -264 -386 -568t-187 -653h-207z" />
    <glyph glyph-name="eight" unicode="8" 
d="M369 1049q0 -102 67.5 -164t179.5 -62q113 0 180.5 62t67.5 164t-66 160.5t-182 58.5q-115 0 -181 -58.5t-66 -160.5zM324 412q0 -130 78.5 -205.5t213.5 -75.5q136 0 214.5 75.5t78.5 205.5q0 121 -78 191.5t-215 70.5q-136 0 -214 -70.5t-78 -191.5zM362 766
q-94 43 -141 117t-47 182q0 163 122.5 265t319.5 102q198 0 319.5 -102t121.5 -265q0 -109 -46 -183t-141 -116q117 -44 176.5 -135t59.5 -223q0 -205 -132.5 -327t-357.5 -122t-357 122t-132 327q0 132 59.5 223t175.5 135z" />
    <glyph glyph-name="nine" unicode="9" 
d="M311 956q0 -138 76.5 -220.5t202.5 -82.5q140 0 219.5 81.5t79.5 223.5q0 143 -79.5 227.5t-213.5 84.5q-128 0 -206.5 -86.5t-78.5 -227.5zM125 352h188q5 -107 72.5 -167t183.5 -60q156 0 239 127.5t97 388.5q-60 -78 -146 -118t-192 -40q-202 0 -328 129.5t-126 341.5
q0 213 133.5 345.5t349.5 132.5q249 0 381.5 -173t132.5 -499q0 -385 -141 -593t-402 -208q-202 0 -322 107t-120 286z" />
    <glyph glyph-name="colon" unicode=":" 
d="M475 795v305h283v-305h-283zM475 0v305h283v-305h-283z" />
    <glyph glyph-name="semicolon" unicode=";" 
d="M475 0v307h283v-330q0 -183 -85 -283t-247 -108v140q101 12 143.5 65.5t42.5 169.5v39h-137zM475 795v305h283v-305h-283z" />
    <glyph glyph-name="less" unicode="&#x3c;" 
d="M1092 1069l-754 -340l754 -336v-164l-953 437v129l953 436v-162z" />
    <glyph glyph-name="equal" unicode="=" 
d="M139 995h953v-141h-953v141zM139 598h953v-139h-953v139z" />
    <glyph glyph-name="greater" unicode="&#x3e;" 
d="M139 1069v162l953 -436v-129l-953 -437v164l756 336z" />
    <glyph glyph-name="question" unicode="?" 
d="M461 0v305h284v-305h-284zM516 424q0 9 -1 26t-1 25q0 96 37 173.5t121 154.5l78 71q59 55 85.5 106.5t26.5 111.5q0 96 -63 152t-172 56q-132 0 -200 -72.5t-73 -217.5h-178v24q0 203 119.5 314.5t337.5 111.5q191 0 307.5 -99t116.5 -259q0 -87 -37.5 -162.5
t-114.5 -142.5l-84 -74q-80 -71 -104.5 -122.5t-24.5 -129.5q0 -19 0.5 -28.5t1.5 -18.5h-178z" />
    <glyph glyph-name="at" unicode="@" 
d="M961 750v178q-43 -23 -124.5 -36.5t-109.5 -21.5q-82 -23 -118 -73t-36 -142q0 -94 37.5 -144t108.5 -50q108 0 175 78t67 211zM1198 363q-23 -8 -42 -11.5t-32 -3.5q-75 0 -110 34t-35 107v13q-66 -91 -139 -134.5t-160 -43.5q-123 0 -193.5 86.5t-70.5 236.5
q0 141 62 224t190 114q52 13 142 23q142 17 142 73q0 107 -82 177.5t-213 70.5q-184 0 -275 -153t-91 -465q0 -330 84.5 -472.5t277.5 -142.5q46 0 89.5 8t86.5 25v-135q-43 -17 -91.5 -25t-108.5 -8q-250 0 -372 178t-122 543q0 389 132 583.5t397 194.5q119 0 214 -46
t154 -132q44 -63 63 -156.5t19 -257.5v-336q0 -27 13.5 -42t37.5 -15q5 0 14.5 2t18.5 4v-118z" />
    <glyph glyph-name="A" unicode="A" 
d="M397 592h439l-220 627zM-6 0l518 1423h209l520 -1423h-192l-150 418h-567l-150 -418h-188z" />
    <glyph glyph-name="B" unicode="B" 
d="M655 170q140 0 208.5 62.5t68.5 189.5q0 121 -72 179t-223 58h-305v-489h323zM610 831q134 0 201.5 53.5t67.5 159.5q0 108 -60.5 157.5t-191.5 49.5h-295v-420h278zM872 768q125 -32 190.5 -120t65.5 -222q0 -202 -118 -314t-332 -112h-535v1421h506q205 0 310.5 -90
t105.5 -266q0 -104 -46 -175t-147 -122z" />
    <glyph glyph-name="C" unicode="C" 
d="M948 528h197q-27 -265 -163 -416t-347 -151q-246 0 -386 199.5t-140 550.5q0 352 140 550.5t386 198.5q192 0 323 -125.5t164 -341.5h-194q-32 141 -109 219t-184 78q-153 0 -241.5 -154t-88.5 -425q0 -269 89 -423.5t241 -154.5q125 0 208 104.5t105 290.5z" />
    <glyph glyph-name="D" unicode="D" 
d="M614 1421q267 0 398 -176t131 -534q0 -341 -138 -526t-391 -185h-473v1421h473zM600 1251h-268v-1081h268q176 0 261 133t85 408q0 287 -81 413.5t-265 126.5z" />
    <glyph glyph-name="E" unicode="E" 
d="M186 0v1421h885v-172h-696v-426h635v-170h-635v-481h712v-172h-901z" />
    <glyph glyph-name="F" unicode="F" 
d="M197 0v1421h925v-172h-735v-426h598v-170h-598v-653h-190z" />
    <glyph glyph-name="G" unicode="G" 
d="M991 190q-71 -114 -168.5 -171.5t-220.5 -57.5q-233 0 -379.5 206.5t-146.5 543.5q0 347 150.5 548t410.5 201q196 0 321.5 -123.5t151.5 -343.5h-203q-19 145 -93 224t-189 79q-168 0 -260.5 -151t-92.5 -428q0 -271 92.5 -425.5t249.5 -154.5q142 0 229 122.5t87 326.5
v8h-320v174h518v-768h-102z" />
    <glyph glyph-name="H" unicode="H" 
d="M141 0v1421h191v-579h569v579h189v-1421h-189v668h-569v-668h-191z" />
    <glyph glyph-name="I" unicode="I" 
d="M522 172v1077h-262v172h713v-172h-262v-1077h262v-172h-713v172h262z" />
    <glyph glyph-name="J" unicode="J" 
d="M780 471v950h187v-958q0 -266 -110.5 -384t-358.5 -118t-358.5 118.5t-110.5 385.5q0 31 3 98l1 6h184v-6q-4 -67 -4 -96q0 -177 67.5 -255.5t219.5 -78.5q153 0 216.5 74.5t63.5 263.5z" />
    <glyph glyph-name="K" unicode="K" 
d="M172 0v1421h188v-657l609 657h250l-557 -598l573 -823h-229l-478 686l-168 -180v-506h-188z" />
    <glyph glyph-name="L" unicode="L" 
d="M201 0v1421h188v-1249h725v-172h-913z" />
    <glyph glyph-name="M" unicode="M" 
d="M104 0v1421h252l260 -1253l263 1253h249v-1421h-159v1290l-264 -1290h-177l-264 1290v-1290h-160z" />
    <glyph glyph-name="N" unicode="N" 
d="M150 0v1421h223l538 -1165v1165h172v-1421h-219l-545 1165v-1165h-169z" />
    <glyph glyph-name="O" unicode="O" 
d="M287 711q0 -270 88.5 -424t240.5 -154q153 0 241.5 154.5t88.5 423.5q0 270 -88.5 424.5t-241.5 154.5q-152 0 -240.5 -154t-88.5 -425zM90 711q0 353 140 551t386 198t386.5 -199.5t140.5 -549.5q0 -351 -140.5 -550.5t-386.5 -199.5q-245 0 -385.5 199.5t-140.5 550.5z
" />
    <glyph glyph-name="P" unicode="P" 
d="M625 1247h-252v-473h237q167 0 233 55t66 183q0 126 -64.5 180.5t-219.5 54.5zM184 0v1421h492q212 0 321 -104t109 -305q0 -107 -36.5 -190t-108.5 -140q-58 -45 -132 -63.5t-247 -18.5h-209v-600h-189z" />
    <glyph glyph-name="Q" unicode="Q" 
d="M805 219l-160 168l111 105l133 -140q28 78 42.5 168t14.5 191q0 270 -88.5 424.5t-241.5 154.5q-152 0 -240.5 -154t-88.5 -425q0 -269 88.5 -423.5t240.5 -154.5q54 0 100 21t89 65zM934 88q-59 -62 -140 -94.5t-178 -32.5q-246 0 -386 199t-140 551t140 550.5
t386 198.5t386.5 -199.5t140.5 -549.5q0 -160 -27.5 -281t-85.5 -223l168 -172l-108 -109z" />
    <glyph glyph-name="R" unicode="R" 
d="M582 1247h-232v-473h219q167 0 233 55t66 183q0 126 -65 180.5t-221 54.5zM160 0v1421h475q210 0 320 -103.5t110 -301.5q0 -117 -47.5 -198t-140.5 -124q78 -24 112 -76.5t43 -184.5l15 -231q5 -75 19 -110t44 -53v-39h-215q-14 23 -23 69t-14 124l-10 184
q-8 139 -57 181t-246 42h-195v-600h-190z" />
    <glyph glyph-name="S" unicode="S" 
d="M293 469q0 -155 91 -245.5t245 -90.5q140 0 224.5 70.5t84.5 187.5q0 158 -300 239q-60 16 -93 25q-241 68 -318 150.5t-77 230.5q0 189 125 305.5t327 116.5q231 0 358 -119.5t127 -337.5v-4h-186q-11 142 -86.5 217.5t-206.5 75.5q-121 0 -193.5 -61.5t-72.5 -163.5
t54.5 -150t287.5 -102q271 -63 356.5 -150t85.5 -251q0 -207 -136.5 -329t-368.5 -122q-237 0 -370.5 132t-144.5 376h187z" />
    <glyph glyph-name="T" unicode="T" 
d="M522 0v1249h-432v172h1051v-172h-430v-1249h-189z" />
    <glyph glyph-name="U" unicode="U" 
d="M127 541v880h188v-891q0 -202 74 -299.5t227 -97.5q151 0 225 99t74 298v891h191v-880q0 -296 -120 -438t-370 -142q-248 0 -368.5 142t-120.5 438z" />
    <glyph glyph-name="V" unicode="V" 
d="M973 1423h194l-448 -1423h-205l-459 1423h195l366 -1210z" />
    <glyph glyph-name="W" unicode="W" 
d="M229 0l-245 1423h168l176 -1210l198 1210h179l202 -1210l176 1210h164l-250 -1423h-172l-211 1233l-204 -1233h-181z" />
    <glyph glyph-name="X" unicode="X" 
d="M74 0l444 729l-420 694h215l308 -526l313 526h207l-422 -692l444 -731h-217l-332 575l-325 -575h-215z" />
    <glyph glyph-name="Y" unicode="Y" 
d="M723 0h-191v563l-487 860h227l355 -673l350 673h213l-467 -848v-575z" />
    <glyph glyph-name="Z" unicode="Z" 
d="M106 0v164l807 1085h-751v172h964v-161l-794 -1088h794v-172h-1020z" />
    <glyph glyph-name="bracketleft" unicode="[" 
d="M596 -223h219v-137h-399v1781h399v-137h-219v-1507z" />
    <glyph glyph-name="backslash" unicode="\" 
d="M934 -190h-141l-496 1650h143z" />
    <glyph glyph-name="bracketright" unicode="]" 
d="M588 -223v1507h-219v137h399v-1781h-399v137h219z" />
    <glyph glyph-name="asciicircum" unicode="^" 
d="M684 1360l277 -353q6 -9 9 -18t3 -18q0 -22 -15.5 -36.5t-35.5 -14.5q-10 0 -15.5 2t-11.5 8l-279 278l-278 -278q-5 -5 -11 -7.5t-16 -2.5q-20 0 -35.5 14.5t-15.5 36.5q0 9 3 18t9 18l279 353q9 12 25.5 18t39.5 6q22 0 40 -6.5t28 -17.5z" />
    <glyph glyph-name="underscore" unicode="_" 
d="M0 -340h1233v-143h-1233v143z" />
    <glyph glyph-name="grave" unicode="`" 
d="M762 1249h-121l-285 348h201z" />
    <glyph glyph-name="a" unicode="a" 
d="M825 385v174q-68 -38 -228 -60q-57 -8 -88 -14q-94 -18 -132.5 -59t-38.5 -121q0 -89 45 -134.5t133 -45.5q134 0 221.5 73t87.5 187zM846 143q-78 -88 -168 -132t-193 -44q-154 0 -240.5 85.5t-86.5 236.5q0 167 89 248.5t308 107.5q27 3 76 9q200 22 200 157
q0 86 -56 127t-173 41q-118 0 -177.5 -50t-59.5 -149h-162v13q0 161 108 253.5t297 92.5q203 0 300.5 -81t97.5 -251v-569q0 -67 15 -88t52 -21q6 0 16.5 1.5t26.5 4.5v-139q-30 -9 -53.5 -12.5t-46.5 -3.5q-85 0 -127.5 39.5t-42.5 117.5v6z" />
    <glyph glyph-name="b" unicode="b" 
d="M922 551q0 200 -73.5 313t-201.5 113q-137 0 -209.5 -109.5t-72.5 -316.5q0 -208 72.5 -318t209.5 -110q128 0 201.5 113.5t73.5 314.5zM362 170v-170h-180v1470h180v-538q58 103 136.5 155t179.5 52q195 0 311.5 -159t116.5 -429q0 -271 -116.5 -430.5t-311.5 -159.5
q-102 0 -181.5 52.5t-134.5 156.5z" />
    <glyph glyph-name="c" unicode="c" 
d="M893 735q-6 118 -74.5 182t-187.5 64q-138 0 -213.5 -111.5t-75.5 -316.5q0 -210 74 -320t215 -110q111 0 184 72.5t86 197.5h172q-12 -198 -133.5 -315t-314.5 -117q-221 0 -344 155t-123 431t126 434t347 158q195 0 314.5 -109.5t125.5 -294.5h-178z" />
    <glyph glyph-name="d" unicode="d" 
d="M584 977q-128 0 -201.5 -113t-73.5 -313q0 -201 73.5 -314.5t201.5 -113.5q137 0 209.5 110t72.5 318q0 207 -72.5 316.5t-209.5 109.5zM868 170q-53 -104 -132.5 -156.5t-182.5 -52.5q-195 0 -311.5 159.5t-116.5 430.5q0 270 116.5 429t311.5 159q102 0 180.5 -51
t136.5 -156v538h179v-1470h-181v170z" />
    <glyph glyph-name="e" unicode="e" 
d="M350 649h535q0 158 -69 245t-193 87q-123 0 -194 -86.5t-79 -245.5zM350 498v-6q0 -171 76 -270t207 -99q90 0 153.5 50.5t87.5 141.5h179q-31 -162 -151 -258t-292 -96q-206 0 -327 158t-121 432q0 270 123.5 429t330.5 159q216 0 336.5 -147t120.5 -410
q0 -35 -0.5 -52.5t-1.5 -31.5h-721z" />
    <glyph glyph-name="f" unicode="f" 
d="M442 909h-329v154h329v100q0 159 95.5 233t300.5 74q35 0 81.5 -2t112.5 -8v-155q-4 0 -13 1q-97 7 -140 7q-133 0 -194.5 -44.5t-61.5 -138.5v-67h409v-154h-409v-909h-181v909z" />
    <glyph glyph-name="g" unicode="g" 
d="M1049 49q0 -251 -108.5 -362t-350.5 -111q-197 0 -307.5 83.5t-110.5 231.5v9h174q0 -85 63 -126.5t191 -41.5q146 0 211.5 65.5t65.5 214.5v156q-85 -120 -155.5 -163.5t-168.5 -43.5q-194 0 -311 159.5t-117 430.5q0 270 116.5 429t311.5 159q101 0 181 -53.5
t143 -163.5v178h172v-1051zM311 551q0 -201 73 -314.5t202 -113.5q138 0 212 110.5t74 317.5q0 206 -74 316t-212 110q-129 0 -202 -112t-73 -314z" />
    <glyph glyph-name="h" unicode="h" 
d="M193 0v1470h180v-530q48 97 130 148t189 51q110 0 188.5 -38t120.5 -112q25 -41 35.5 -95.5t10.5 -170.5v-55v-668h-181v686q0 162 -46 226.5t-154 64.5q-139 0 -216 -90t-77 -252v-635h-180z" />
    <glyph glyph-name="i" unicode="i" 
d="M750 1470v-204h-191v204h191zM743 152h373v-152h-921v152h368v757h-282v154h462v-911z" />
    <glyph glyph-name="j" unicode="j" 
d="M776 1470v-204h-180v204h180zM264 -256q14 -1 42 -4q66 -6 95 -6q117 0 156 38t39 167v970h-283v154h463v-1139q0 -197 -73.5 -274.5t-253.5 -77.5q-34 0 -78 2.5t-106 7.5z" />
    <glyph glyph-name="k" unicode="k" 
d="M217 0v1470h180v-866l498 496h227l-413 -406l403 -694h-203l-323 569l-189 -182v-387h-180z" />
    <glyph glyph-name="l" unicode="l" 
d="M551 1319h-283v151h463v-1318h369v-152h-920v152h371v1167z" />
    <glyph glyph-name="m" unicode="m" 
d="M121 0v1100h160v-117q30 75 81 115.5t115 40.5q75 0 127.5 -41.5t75.5 -118.5q44 82 98 121t123 39q115 0 165 -84.5t50 -294.5v-760h-166v772q0 121 -23.5 170t-78.5 49q-70 0 -111 -68.5t-41 -187.5v-735h-155v772q0 119 -24.5 169t-80.5 50q-69 0 -109 -67.5
t-40 -188.5v-735h-166z" />
    <glyph glyph-name="n" unicode="n" 
d="M193 0v1100h172v-168q54 103 135.5 155t191.5 52t188.5 -38t120.5 -112q25 -41 35.5 -95.5t10.5 -170.5v-55v-668h-181v686q0 162 -46 226.5t-154 64.5q-139 0 -216 -90t-77 -252v-635h-180z" />
    <glyph glyph-name="o" unicode="o" 
d="M324 551q0 -207 76 -318.5t216 -111.5q141 0 217 111.5t76 318.5t-75.5 317.5t-217.5 110.5q-141 0 -216.5 -110.5t-75.5 -317.5zM139 549q0 278 126.5 434t350.5 156q226 0 352 -155.5t126 -434.5q0 -278 -126 -433t-352 -155q-224 0 -350.5 155.5t-126.5 432.5z" />
    <glyph glyph-name="p" unicode="p" 
d="M362 930q61 110 136 159.5t180 49.5q195 0 311.5 -159t116.5 -429q0 -271 -117 -430.5t-311 -159.5q-106 0 -179 48t-137 159v-594h-180v1526h180v-170zM647 123q128 0 201.5 113.5t73.5 314.5q0 200 -73.5 313t-201.5 113q-137 0 -209.5 -109.5t-72.5 -316.5
q0 -208 72.5 -318t209.5 -110z" />
    <glyph glyph-name="q" unicode="q" 
d="M309 551q0 -201 73.5 -314.5t201.5 -113.5q137 0 209.5 110t72.5 318q0 207 -72.5 316.5t-209.5 109.5q-128 0 -201.5 -113t-73.5 -313zM868 930v170h181v-1526h-179v594q-62 -110 -136.5 -158.5t-180.5 -48.5q-194 0 -311 159.5t-117 430.5q0 270 116.5 429t311.5 159
q105 0 180 -49.5t135 -159.5z" />
    <glyph glyph-name="r" unicode="r" 
d="M260 0v1100h164v-182q57 107 143.5 164t194.5 57q178 0 266.5 -94.5t91.5 -286.5h-182q0 107 -54.5 163t-158.5 56q-138 0 -211.5 -89.5t-73.5 -258.5v-629h-180z" />
    <glyph glyph-name="s" unicode="s" 
d="M731 641q191 -44 260.5 -115t69.5 -202q0 -170 -119.5 -266.5t-331.5 -96.5q-204 0 -315.5 98.5t-113.5 282.5h173q10 -110 78.5 -165.5t194.5 -55.5q117 0 185.5 49t68.5 133q0 62 -34.5 95.5t-133.5 58.5l-201 49q-172 42 -239.5 113t-67.5 200q0 146 109 233t296 87
q191 0 304.5 -89.5t113.5 -238.5v-4h-176q-5 83 -69 130.5t-173 47.5q-110 0 -167.5 -41t-57.5 -119q0 -56 35.5 -87.5t136.5 -55.5z" />
    <glyph glyph-name="t" unicode="t" 
d="M434 909h-311v154h311v321h180v-321h412v-154h-412v-520q0 -174 55.5 -224t200.5 -50q29 0 67.5 3t88.5 9v-155q-78 -6 -128.5 -8.5t-84.5 -2.5q-212 0 -295.5 81.5t-83.5 315.5v551z" />
    <glyph glyph-name="u" unicode="u" 
d="M1040 1100v-1100h-172v168q-54 -104 -135.5 -155.5t-191.5 -51.5t-188.5 38t-121.5 112q-24 41 -34.5 95.5t-10.5 170.5v55v668h181v-707q0 -143 47 -205.5t153 -62.5q139 0 216 89t77 251v635h180z" />
    <glyph glyph-name="v" unicode="v" 
d="M522 0l-407 1100h188l315 -887l310 887h186l-401 -1100h-191z" />
    <glyph glyph-name="w" unicode="w" 
d="M453 0h-172l-271 1100h172l183 -934l161 934h179l161 -934l183 934h174l-271 -1100h-172l-164 934z" />
    <glyph glyph-name="x" unicode="x" 
d="M324 0h-211l385 565l-365 535h213l268 -400l269 400h209l-371 -533l393 -567h-217l-291 428z" />
    <glyph glyph-name="y" unicode="y" 
d="M932 1100h192l-446 -1241q-62 -175 -131 -230t-201 -55q-60 0 -100 4t-74 12v174q53 -10 93 -15t73 -5q62 0 99 22t55 70l36 103l-417 1161h196l309 -905z" />
    <glyph glyph-name="z" unicode="z" 
d="M819 948h-610v152h831v-139l-634 -809h663v-152h-891v137z" />
    <glyph glyph-name="braceleft" unicode="{" 
d="M551 1104q0 222 74 289t293 67h47v-147h-37q-121 0 -163 -43t-42 -189v-225q0 -160 -44.5 -227t-158.5 -99q115 -31 159 -97.5t44 -227.5v-225q0 -145 42.5 -187.5t168.5 -42.5h31v-149h-47q-219 0 -293 68t-74 290v229q0 149 -55 209t-191 60h-39v149h39q136 0 191 59.5
t55 206.5v232z" />
    <glyph glyph-name="bar" unicode="|" 
d="M543 1565h149v-2048h-149v2048z" />
    <glyph glyph-name="braceright" unicode="}" 
d="M682 1104v-232q0 -148 53.5 -208t184.5 -60q6 0 21 1t24 1v-149h-39q-135 0 -189.5 -59.5t-54.5 -209.5v-229q0 -222 -75 -290t-294 -68h-47v149h39q121 0 163 43t42 187v225q0 164 43.5 229.5t157.5 95.5q-114 31 -157.5 96.5t-43.5 229.5v225q0 145 -42 188.5
t-163 43.5h-39v147h47q220 0 294.5 -67.5t74.5 -288.5z" />
    <glyph glyph-name="asciitilde" unicode="~" 
d="M133 586q0 55 88 108.5t191 53.5q69 0 207.5 -43t205.5 -43q66 0 138.5 36.5t87.5 36.5q24 0 36.5 -15.5t12.5 -45.5q0 -55 -88.5 -108.5t-190.5 -53.5q-68 0 -206.5 43t-206.5 43q-66 0 -139 -37t-87 -37q-24 0 -36.5 16t-12.5 46z" />
    <glyph glyph-name="uni0080" 
d="M973 510h196q-33 -258 -168 -403.5t-342 -145.5q-213 0 -347 150t-169 428h-157l53 116h96v27v39v47h-178l51 115h135q35 277 169 427t347 150q195 0 323.5 -123.5t162.5 -343.5h-193q-31 142 -108 219.5t-185 77.5q-126 0 -213.5 -111t-103.5 -296h510l-53 -115h-469
q-1 -15 -1.5 -30t-0.5 -36v-5q2 -23 2 -42h420l-52 -116h-360q26 -192 111 -299t210 -107q121 0 204 99.5t110 277.5z" />
    <glyph glyph-name="uni00A0" unicode="&#xa0;" 
 />
    <glyph glyph-name="exclamdown" unicode="&#xa1;" 
d="M760 1460v-305h-285v305h285zM666 999l49 -583v-416h-201v416l47 583h105z" />
    <glyph glyph-name="cent" unicode="&#xa2;" 
d="M731 969q-25 6 -48.5 9t-47.5 3q-165 0 -254.5 -111t-89.5 -317q0 -138 38.5 -235t114.5 -152zM944 736q-5 71 -34 119t-89 83l-284 -803q3 0 11 -2q62 -10 93 -10q127 0 211.5 73.5t99.5 196.5h172q-9 -191 -144 -311.5t-339 -120.5q-41 0 -137 13q-16 2 -25 3l-69 -196
h-103l80 221q-139 79 -210 216.5t-71 328.5q0 275 141.5 433.5t385.5 158.5q37 0 74.5 -4.5t76.5 -14.5l62 172h102l-71 -198q116 -53 179.5 -146t65.5 -213z" />
    <glyph glyph-name="sterling" unicode="&#xa3;" 
d="M252 -25l-98 140q125 99 186 189t61 177q0 33 -9.5 68.5t-29.5 75.5h-219v114h158q-50 68 -77 143.5t-27 147.5q0 168 134 285t335 117q212 0 338 -113.5t126 -304.5v-24q0 -9 -2 -17h-182v16q0 134 -73 206.5t-207 72.5q-120 0 -197.5 -69.5t-77.5 -174.5q0 -76 85 -239
q16 -30 24 -46h325v-114h-274q11 -39 15.5 -64.5t4.5 -46.5q0 -82 -51 -171t-153 -183q51 25 105.5 37t127.5 12q71 0 175.5 -34t142.5 -34t75.5 13t91.5 47l82 -135q-66 -54 -125.5 -77.5t-128.5 -23.5q-40 0 -78 7t-96 28l-94 37q-30 11 -65 16.5t-72 5.5q-68 0 -133 -21
t-123 -63z" />
    <glyph glyph-name="currency" unicode="&#xa4;" 
d="M123 459l190 188q-39 54 -59.5 113.5t-20.5 124.5q0 64 20 122.5t60 112.5l-190 191l72 71l190 -190q51 41 111 61.5t127 20.5q66 0 125 -20.5t112 -61.5l189 190l71 -71l-190 -191q40 -54 60 -112.5t20 -122.5q0 -66 -20 -125.5t-60 -112.5l190 -188l-71 -72l-189 191
q-53 -42 -112 -62t-125 -20q-68 0 -127 20t-111 62l-190 -191zM336 885q0 -119 83.5 -203t203.5 -84q118 0 203 84.5t85 202.5q0 120 -84.5 204.5t-203.5 84.5t-203 -85t-84 -204z" />
    <glyph glyph-name="yen" unicode="&#xa5;" 
d="M719 0h-184v551h-519v108h457l-70 113h-387v111h320l-320 508h228l383 -656l385 656h207l-308 -508h308v-111h-373l-70 -113h443v-108h-500v-551z" />
    <glyph glyph-name="brokenbar" unicode="&#xa6;" 
d="M555 674v758h121v-758h-121zM555 -352v760h121v-760h-121z" />
    <glyph glyph-name="section" unicode="&#xa7;" 
d="M774 360q45 32 70.5 79.5t25.5 99.5q0 61 -34 105.5t-152 111.5l-223 127q-53 -36 -78 -77t-25 -93q0 -59 37 -104.5t150 -112.5zM256 86h172v-10q0 -81 50.5 -124.5t142.5 -43.5q79 0 126.5 38.5t47.5 102.5q0 58 -44.5 105t-181.5 122l-182 99q-103 55 -153 125
t-50 159q0 84 45 155t136 132q-47 39 -70 89.5t-23 113.5q0 138 93 224.5t241 86.5q161 0 254.5 -85t93.5 -232v-13l-172 1q-3 82 -50.5 130t-125.5 48q-73 0 -115 -37t-42 -101q0 -51 33.5 -90.5t115.5 -83.5l248 -133q108 -57 155.5 -127.5t47.5 -173.5
q0 -86 -52.5 -164.5t-132.5 -109.5q52 -44 77.5 -98.5t25.5 -120.5q0 -138 -102 -228t-261 -90q-157 0 -252.5 90t-95.5 240v4z" />
    <glyph glyph-name="dieresis" unicode="&#xa8;" 
d="M692 1307v211h182v-211h-182zM362 1307v211h183v-211h-183z" />
    <glyph glyph-name="copyright" unicode="&#xa9;" 
d="M616 1180q-97 0 -187.5 -38t-160.5 -108q-69 -70 -107 -161.5t-38 -186.5t38.5 -186.5t108.5 -161.5q71 -71 160 -108t186 -37t188 38t161 107q70 72 107.5 161.5t37.5 186.5q0 98 -38 189.5t-107 160.5q-71 70 -161 107t-188 37zM25 686q0 119 44 226.5t128 191.5
t192.5 129t226.5 45q117 0 226.5 -45t191.5 -127t128 -193t46 -227q0 -118 -45.5 -226t-130.5 -194q-83 -85 -189.5 -129.5t-226.5 -44.5q-86 0 -169 25t-156 73q-128 85 -197 214.5t-69 281.5zM768 1024q7 11 20 16.5t33 6.5q36 0 48 -25t12 -121v-67q0 -38 -14 -53
t-48 -15q-50 0 -68 81q-2 9 -4 16q-8 33 -45.5 56t-87.5 23q-96 0 -151 -69.5t-55 -192.5q0 -113 58.5 -182.5t151.5 -69.5q66 0 137.5 43t78.5 43q27 0 43 -15.5t16 -41.5q0 -49 -89 -100.5t-192 -51.5q-147 0 -245.5 105t-98.5 264q0 163 99.5 272t248.5 109q37 0 74 -7.5
t78 -23.5z" />
    <glyph glyph-name="ordfeminine" unicode="&#xaa;" 
d="M786 1067q-61 -29 -184 -41q-45 -5 -65 -8q-83 -14 -115.5 -42.5t-32.5 -84.5t38.5 -86.5t109.5 -30.5q107 0 178 52t71 130v111zM922 1229v-375q0 -50 11.5 -63t41.5 -13q10 0 18 0.5t16 1.5l1 -96q-22 -6 -42 -9t-38 -3q-66 0 -98.5 29t-32.5 87q-67 -63 -136.5 -93.5
t-148.5 -30.5q-121 0 -190.5 59.5t-69.5 163.5q0 109 72.5 165t242.5 74q19 2 54 6q163 16 163 101q0 59 -44.5 88t-135.5 29q-93 0 -141.5 -36t-48.5 -104h-127v11q0 110 86.5 174.5t234.5 64.5q162 0 237 -55.5t75 -175.5zM281 532h686v-108h-686v108z" />
    <glyph glyph-name="guillemotleft" unicode="&#xab;" 
d="M571 926v-193l-213 -182l213 -184v-193l-321 266v219zM983 926v-193l-215 -182l215 -184v-193l-324 266v219z" />
    <glyph glyph-name="logicalnot" unicode="&#xac;" 
d="M981 764h-803q-35 0 -56.5 20.5t-21.5 53.5q0 31 22.5 51t55.5 20h897q28 0 43 -10t15 -29v-440q0 -35 -21.5 -57.5t-54.5 -22.5q-31 0 -53.5 23.5t-22.5 56.5v334z" />
    <glyph glyph-name="uni00AD" unicode="&#xad;" 
d="M369 469v162h495v-162h-495z" />
    <glyph glyph-name="registered" unicode="&#xae;" 
d="M532 926v-183h58q66 0 99.5 23.5t33.5 69.5t-31.5 68t-99.5 22h-60zM532 471h19q39 0 57.5 -13.5t18.5 -41.5q0 -30 -16.5 -43t-55.5 -13h-180q-26 0 -41 15t-15 41q0 31 17.5 43t64.5 12h15v455h-15q-48 0 -65 11.5t-17 41.5q0 26 15 40.5t41 14.5h190q147 0 217 -49.5
t70 -153.5q0 -60 -33.5 -106t-91.5 -66q5 -4 11 -12t14 -19l104 -157h8q36 0 53 -13.5t17 -41.5q0 -26 -14.5 -41t-40.5 -15h-60q-22 0 -37.5 10.5t-33.5 41.5l-105 157q-33 50 -48.5 60t-43.5 10h-19v-168zM616 1180q-97 0 -187.5 -38t-160.5 -108q-69 -70 -107 -161.5
t-38 -186.5t38.5 -186.5t108.5 -161.5q71 -71 160 -108t186 -37t188 38t161 107q70 72 107.5 161.5t37.5 186.5q0 98 -38 189.5t-107 160.5q-71 70 -161 107t-188 37zM25 686q0 119 44 226.5t128 191.5t192.5 129t226.5 45q117 0 226.5 -45t191.5 -127t128 -193t46 -227
q0 -118 -45.5 -226t-130.5 -194q-83 -85 -189.5 -129.5t-226.5 -44.5q-86 0 -169 25t-156 73q-128 85 -197 214.5t-69 281.5z" />
    <glyph glyph-name="macron" unicode="&#xaf;" 
d="M0 1565h1233v-119h-1233v119z" />
    <glyph glyph-name="degree" unicode="&#xb0;" 
d="M616 1362q-80 0 -137 -56.5t-57 -136.5q0 -81 56.5 -138.5t137.5 -57.5t138 58t57 138q0 81 -56.5 137t-138.5 56zM616 1456q119 0 204 -84.5t85 -204.5q0 -117 -84 -201.5t-205 -84.5q-120 0 -204 83.5t-84 202.5q0 120 84.5 204.5t203.5 84.5z" />
    <glyph glyph-name="plusminus" unicode="&#xb1;" 
d="M545 446v355h-406v139h406v352h141v-352h406v-139h-406v-355h-141zM139 307h953v-141h-953v141z" />
    <glyph glyph-name="uni00B2" unicode="&#xb2;" 
d="M246 397v6q0 144 73.5 245.5t243.5 191.5l109 59q67 36 102 86t35 111q0 80 -51.5 128t-136.5 48q-97 0 -150 -58t-53 -163v-13h-148v19q0 157 94 249.5t252 92.5q157 0 252 -81.5t95 -215.5q0 -103 -52.5 -176t-173.5 -138l-75 -40q-129 -69 -178 -114.5t-72 -103.5h551
v-133h-717z" />
    <glyph glyph-name="uni00B3" unicode="&#xb3;" 
d="M250 721h153v-21q0 -78 58.5 -132t148.5 -54q105 0 163 48t58 134q0 80 -56 124t-159 44q-12 0 -46 -2q-14 -1 -23 -2v123h22h45q88 0 134.5 37.5t46.5 107.5q0 71 -48 108.5t-139 37.5q-89 0 -137.5 -50t-48.5 -143v-6h-148v10q0 149 93 233.5t256 84.5q151 0 240 -72.5
t89 -193.5q0 -72 -35 -123.5t-100 -75.5q86 -26 130 -86.5t44 -153.5q0 -141 -104 -227t-279 -86q-163 0 -260.5 89.5t-97.5 238.5v8z" />
    <glyph glyph-name="acute" unicode="&#xb4;" 
d="M475 1249l205 348h201l-285 -348h-121z" />
    <glyph glyph-name="mu" unicode="&#xb5;" 
d="M936 137h63q29 0 44.5 -14.5t15.5 -42.5q0 -39 -23 -59.5t-67 -20.5h-158q-26 0 -37.5 7.5t-11.5 23.5q0 3 2 11q1 4 2 7l20 72q-79 -73 -162 -108.5t-175 -35.5q-55 0 -96 15t-72 47l-60 -334q-12 -67 -29 -91t-51 -24q-39 0 -56 13.5t-17 44.5q0 15 3 36.5t9 49.5
l217 1052h-80q-30 0 -45.5 15t-15.5 43q0 39 23 59.5t67 20.5h174q26 0 37.5 -7.5t11.5 -23.5q0 -7 -0.5 -10t-1.5 -7l-117 -532q-9 -46 -11.5 -63t-2.5 -29q0 -66 40 -99.5t120 -33.5q122 0 222.5 78t123.5 192l94 465q8 44 25.5 57t62.5 13q33 0 50.5 -14t17.5 -40
q0 -7 -0.5 -10.5t-2.5 -8.5z" />
    <glyph glyph-name="paragraph" unicode="&#xb6;" 
d="M1063 1473v-89h-121v-1384h-111v1384h-176v-1384h-112v776q-170 6 -271.5 100.5t-101.5 245.5q0 157 107.5 254t285.5 97h500z" />
    <glyph glyph-name="periodcentered" unicode="&#xb7;" 
d="M469 694q0 61 42.5 105.5t102.5 44.5q61 0 105.5 -44.5t44.5 -105.5t-43.5 -104t-106.5 -43q-61 0 -103 42t-42 105z" />
    <glyph glyph-name="cedilla" unicode="&#xb8;" 
d="M397 -426v100q76 -18 141.5 -28.5t106.5 -10.5q61 0 90 20t29 62q0 43 -31.5 64.5t-93.5 21.5q-20 0 -34 -0.5t-27 -1.5v199h77v-102h29q110 0 166.5 -46t56.5 -135q0 -91 -65 -139.5t-187 -48.5q-48 0 -114 11.5t-144 33.5z" />
    <glyph glyph-name="uni00B9" unicode="&#xb9;" 
d="M584 397v715h-250v100q143 2 213 47.5t82 143.5h110v-1006h-155z" />
    <glyph glyph-name="ordmasculine" unicode="&#xba;" 
d="M618 1348q-109 0 -167 -74t-58 -213q0 -137 58.5 -211t166.5 -74q107 0 164.5 74t57.5 211q0 138 -57.5 212.5t-164.5 74.5zM616 1460q171 0 265 -104.5t94 -294.5q0 -188 -95 -293.5t-264 -105.5q-167 0 -262.5 106t-95.5 293q0 189 95 294t263 105zM295 532h643v-108
h-643v108z" />
    <glyph glyph-name="guillemotright" unicode="&#xbb;" 
d="M659 926l324 -267v-219l-324 -266v193l213 184l-213 182v193zM250 926l323 -267v-219l-323 -266v193l213 184l-213 182v193z" />
    <glyph glyph-name="onequarter" unicode="&#xbc;" 
d="M612 55h283v367zM895 -260v215h-403v111l417 524h125v-535h137v-100h-137v-215h-139zM397 805v606h-264l1 86q142 2 211.5 40t82.5 122h111v-854h-142zM96 485l-22 117l1085 264l27 -112z" />
    <glyph glyph-name="onehalf" unicode="&#xbd;" 
d="M547 -256v6q0 122 65 208.5t215 162.5l97 47q59 30 89.5 73t30.5 95q0 69 -46.5 109t-127.5 40q-80 0 -126 -49.5t-46 -136.5v-10h-129v16q0 132 83.5 211.5t221.5 79.5t222 -70t84 -184q0 -87 -46 -148.5t-155 -117.5l-66 -35q-114 -58 -159.5 -99.5t-59.5 -91.5h486
v-106h-633zM397 805v606h-264l1 86q142 2 211.5 40t82.5 122h111v-854h-142zM96 500l-22 114l1085 265l27 -111z" />
    <glyph glyph-name="threequarters" unicode="&#xbe;" 
d="M612 55h283v367zM895 -260v215h-403v111l417 524h125v-535h137v-100h-137v-215h-139zM59 1081h136q0 -3 1 -9t1 -9q0 -67 53 -112.5t137 -45.5q87 0 137.5 42t50.5 114q0 69 -49 105t-145 36h-9q-26 -2 -48 -2v107h59q81 0 120.5 31.5t39.5 97.5q0 54 -42.5 86t-115.5 32
q-81 0 -125.5 -41t-44.5 -116v-15h-135v4q0 129 82 201t229 72q136 0 214.5 -61t78.5 -164q0 -61 -31 -104t-90 -64q77 -22 116.5 -73.5t39.5 -129.5q0 -121 -93 -194.5t-249 -73.5q-144 0 -231 75.5t-87 198.5v12zM96 485l-22 117l1085 264l27 -112z" />
    <glyph glyph-name="questiondown" unicode="&#xbf;" 
d="M717 1036q0 -8 1 -24.5t1 -26.5q0 -95 -37 -173t-121 -155l-80 -71q-59 -55 -85.5 -106.5t-26.5 -110.5q0 -96 64 -152.5t173 -56.5q132 0 200 72.5t73 217.5l178 1v-25q0 -203 -120.5 -314.5t-338.5 -111.5q-190 0 -306 98.5t-116 259.5q0 88 37.5 163t114.5 143l84 73
q80 72 104.5 123t24.5 129q0 19 -0.5 28.5t-1.5 18.5h178zM770 1460v-305h-283v305h283z" />
    <glyph glyph-name="Agrave" unicode="&#xc0;" 
d="M397 592h439l-220 627zM-6 0l518 1423h209l520 -1423h-192l-150 418h-567l-150 -418h-188zM762 1571h-121l-285 348h201z" />
    <glyph glyph-name="Aacute" unicode="&#xc1;" 
d="M397 592h439l-220 627zM-6 0l518 1423h209l520 -1423h-192l-150 418h-567l-150 -418h-188zM475 1571l205 348h201l-285 -348h-121z" />
    <glyph glyph-name="Acircumflex" unicode="&#xc2;" 
d="M397 592h439l-220 627zM-6 0l518 1423h209l520 -1423h-192l-150 418h-567l-150 -418h-188zM324 1571l196 348h197l194 -348h-120l-173 228l-174 -228h-120z" />
    <glyph glyph-name="Atilde" unicode="&#xc3;" 
d="M397 592h439l-220 627zM-6 0l518 1423h209l520 -1423h-192l-150 418h-567l-150 -418h-188zM909 1846q-20 -101 -69 -153t-125 -52q-14 0 -30.5 2.5t-35.5 7.5l-96 27q-14 4 -26 6t-23 2q-31 0 -53.5 -17.5t-36.5 -52.5h-88q18 99 68 152t124 53q18 0 32.5 -2t27.5 -6
l96 -29q14 -4 28.5 -6t26.5 -2q33 0 55.5 17t36.5 53h88z" />
    <glyph glyph-name="Adieresis" unicode="&#xc4;" 
d="M397 592h439l-220 627zM-6 0l518 1423h209l520 -1423h-192l-150 418h-567l-150 -418h-188zM692 1629v211h182v-211h-182zM362 1629v211h183v-211h-183z" />
    <glyph glyph-name="Aring" unicode="&#xc5;" 
d="M483 1720q0 -57 39.5 -96t95.5 -39t96 39.5t40 95.5t-40 95.5t-96 39.5t-95.5 -39.5t-39.5 -95.5zM367 1720q0 105 73 178.5t178 73.5q106 0 179 -73t73 -179t-73 -180t-179 -74q-105 0 -178 74t-73 180zM397 592h439l-220 627zM-6 0l518 1423h209l520 -1423h-192
l-150 418h-567l-150 -418h-188z" />
    <glyph glyph-name="AE" unicode="&#xc6;" 
d="M274 592h277v668h-47zM217 426l-149 -426h-177l488 1423h881v-176h-517v-426h463v-166h-463v-477h523v-178h-715v426h-334z" />
    <glyph glyph-name="Ccedilla" unicode="&#xc7;" 
d="M948 528h197q-27 -265 -163 -416t-347 -151q-246 0 -386 199.5t-140 550.5q0 352 140 550.5t386 198.5q192 0 323 -125.5t164 -341.5h-194q-32 141 -109 219t-184 78q-153 0 -241.5 -154t-88.5 -425q0 -269 89 -423.5t241 -154.5q125 0 208 104.5t105 290.5zM397 -426
v100q76 -18 141.5 -28.5t106.5 -10.5q61 0 90 20t29 62q0 43 -31.5 64.5t-93.5 21.5q-20 0 -34 -0.5t-27 -1.5v199h77v-102h29q110 0 166.5 -46t56.5 -135q0 -91 -65 -139.5t-187 -48.5q-48 0 -114 11.5t-144 33.5z" />
    <glyph glyph-name="Egrave" unicode="&#xc8;" 
d="M186 0v1421h885v-172h-696v-426h635v-170h-635v-481h712v-172h-901zM762 1571h-121l-285 348h201z" />
    <glyph glyph-name="Eacute" unicode="&#xc9;" 
d="M186 0v1421h885v-172h-696v-426h635v-170h-635v-481h712v-172h-901zM475 1571l205 348h201l-285 -348h-121z" />
    <glyph glyph-name="Ecircumflex" unicode="&#xca;" 
d="M186 0v1421h885v-172h-696v-426h635v-170h-635v-481h712v-172h-901zM324 1571l196 348h197l194 -348h-120l-173 228l-174 -228h-120z" />
    <glyph glyph-name="Edieresis" unicode="&#xcb;" 
d="M186 0v1421h885v-172h-696v-426h635v-170h-635v-481h712v-172h-901zM692 1629v211h182v-211h-182zM362 1629v211h183v-211h-183z" />
    <glyph glyph-name="Igrave" unicode="&#xcc;" 
d="M522 172v1077h-262v172h713v-172h-262v-1077h262v-172h-713v172h262zM762 1571h-121l-285 348h201z" />
    <glyph glyph-name="Iacute" unicode="&#xcd;" 
d="M522 172v1077h-262v172h713v-172h-262v-1077h262v-172h-713v172h262zM475 1571l205 348h201l-285 -348h-121z" />
    <glyph glyph-name="Icircumflex" unicode="&#xce;" 
d="M522 172v1077h-262v172h713v-172h-262v-1077h262v-172h-713v172h262zM324 1571l196 348h197l194 -348h-120l-173 228l-174 -228h-120z" />
    <glyph glyph-name="Idieresis" unicode="&#xcf;" 
d="M522 172v1077h-262v172h713v-172h-262v-1077h262v-172h-713v172h262zM692 1629v211h182v-211h-182zM362 1629v211h183v-211h-183z" />
    <glyph glyph-name="Eth" unicode="&#xd0;" 
d="M639 688h-307v-518h268q169 0 257.5 138.5t88.5 402.5q0 270 -86 405t-260 135h-268v-424h307v-139zM0 688v139h141v594h473q251 0 390 -186.5t139 -523.5q0 -333 -140.5 -522t-388.5 -189h-473v688h-141z" />
    <glyph glyph-name="Ntilde" unicode="&#xd1;" 
d="M150 0v1421h223l538 -1165v1165h172v-1421h-219l-545 1165v-1165h-169zM909 1846q-20 -101 -69 -153t-125 -52q-14 0 -30.5 2.5t-35.5 7.5l-96 27q-14 4 -26 6t-23 2q-31 0 -53.5 -17.5t-36.5 -52.5h-88q18 99 68 152t124 53q18 0 32.5 -2t27.5 -6l96 -29q14 -4 28.5 -6
t26.5 -2q33 0 55.5 17t36.5 53h88z" />
    <glyph glyph-name="Ograve" unicode="&#xd2;" 
d="M287 711q0 -270 88.5 -424t240.5 -154q153 0 241.5 154.5t88.5 423.5q0 270 -88.5 424.5t-241.5 154.5q-152 0 -240.5 -154t-88.5 -425zM90 711q0 353 140 551t386 198t386.5 -199.5t140.5 -549.5q0 -351 -140.5 -550.5t-386.5 -199.5q-245 0 -385.5 199.5t-140.5 550.5z
M762 1571h-121l-285 348h201z" />
    <glyph glyph-name="Oacute" unicode="&#xd3;" 
d="M287 711q0 -270 88.5 -424t240.5 -154q153 0 241.5 154.5t88.5 423.5q0 270 -88.5 424.5t-241.5 154.5q-152 0 -240.5 -154t-88.5 -425zM90 711q0 353 140 551t386 198t386.5 -199.5t140.5 -549.5q0 -351 -140.5 -550.5t-386.5 -199.5q-245 0 -385.5 199.5t-140.5 550.5z
M475 1571l205 348h201l-285 -348h-121z" />
    <glyph glyph-name="Ocircumflex" unicode="&#xd4;" 
d="M287 711q0 -270 88.5 -424t240.5 -154q153 0 241.5 154.5t88.5 423.5q0 270 -88.5 424.5t-241.5 154.5q-152 0 -240.5 -154t-88.5 -425zM90 711q0 353 140 551t386 198t386.5 -199.5t140.5 -549.5q0 -351 -140.5 -550.5t-386.5 -199.5q-245 0 -385.5 199.5t-140.5 550.5z
M324 1571l196 348h197l194 -348h-120l-173 228l-174 -228h-120z" />
    <glyph glyph-name="Otilde" unicode="&#xd5;" 
d="M287 711q0 -270 88.5 -424t240.5 -154q153 0 241.5 154.5t88.5 423.5q0 270 -88.5 424.5t-241.5 154.5q-152 0 -240.5 -154t-88.5 -425zM90 711q0 353 140 551t386 198t386.5 -199.5t140.5 -549.5q0 -351 -140.5 -550.5t-386.5 -199.5q-245 0 -385.5 199.5t-140.5 550.5z
M909 1846q-20 -101 -69 -153t-125 -52q-14 0 -30.5 2.5t-35.5 7.5l-96 27q-14 4 -26 6t-23 2q-31 0 -53.5 -17.5t-36.5 -52.5h-88q18 99 68 152t124 53q18 0 32.5 -2t27.5 -6l96 -29q14 -4 28.5 -6t26.5 -2q33 0 55.5 17t36.5 53h88z" />
    <glyph glyph-name="Odieresis" unicode="&#xd6;" 
d="M287 711q0 -270 88.5 -424t240.5 -154q153 0 241.5 154.5t88.5 423.5q0 270 -88.5 424.5t-241.5 154.5q-152 0 -240.5 -154t-88.5 -425zM90 711q0 353 140 551t386 198t386.5 -199.5t140.5 -549.5q0 -351 -140.5 -550.5t-386.5 -199.5q-245 0 -385.5 199.5t-140.5 550.5z
M692 1629v211h182v-211h-182zM362 1629v211h183v-211h-183z" />
    <glyph glyph-name="multiply" unicode="&#xd7;" 
d="M614 754l256 256q13 12 27.5 19t28.5 7q30 0 51.5 -21.5t21.5 -51.5q0 -14 -7 -28.5t-19 -27.5l-256 -256l264 -266q13 -13 20 -27.5t7 -27.5q0 -31 -21 -52.5t-51 -21.5q-17 0 -32 6t-27 19l-265 264l-256 -254q-12 -12 -27.5 -19.5t-29.5 -7.5q-31 0 -50.5 19.5
t-19.5 50.5q0 17 6.5 32t18.5 27l254 256l-264 266q-13 13 -20 28.5t-7 31.5q0 28 22.5 50t51.5 22q14 0 29.5 -7.5t27.5 -19.5z" />
    <glyph glyph-name="Oslash" unicode="&#xd8;" 
d="M385 274q44 -73 99.5 -107t131.5 -34q154 0 242 155.5t88 432.5q0 81 -10 152.5t-31 140.5zM842 1149q-34 67 -93.5 104t-132.5 37q-154 0 -241.5 -153.5t-87.5 -425.5q0 -88 9.5 -163t29.5 -145zM162 -45l-107 74l135 192q-52 105 -76 220t-24 270q0 353 140 551
t386 198q106 0 193 -39t147 -112l109 161l113 -67l-142 -205q56 -102 81.5 -212.5t25.5 -258.5q0 -362 -139.5 -564t-387.5 -202q-105 0 -186.5 35.5t-157.5 114.5z" />
    <glyph glyph-name="Ugrave" unicode="&#xd9;" 
d="M127 541v880h188v-891q0 -202 74 -299.5t227 -97.5q151 0 225 99t74 298v891h191v-880q0 -296 -120 -438t-370 -142q-248 0 -368.5 142t-120.5 438zM762 1571h-121l-285 348h201z" />
    <glyph glyph-name="Uacute" unicode="&#xda;" 
d="M127 541v880h188v-891q0 -202 74 -299.5t227 -97.5q151 0 225 99t74 298v891h191v-880q0 -296 -120 -438t-370 -142q-248 0 -368.5 142t-120.5 438zM475 1571l205 348h201l-285 -348h-121z" />
    <glyph glyph-name="Ucircumflex" unicode="&#xdb;" 
d="M127 541v880h188v-891q0 -202 74 -299.5t227 -97.5q151 0 225 99t74 298v891h191v-880q0 -296 -120 -438t-370 -142q-248 0 -368.5 142t-120.5 438zM324 1571l196 348h197l194 -348h-120l-173 228l-174 -228h-120z" />
    <glyph glyph-name="Udieresis" unicode="&#xdc;" 
d="M127 541v880h188v-891q0 -202 74 -299.5t227 -97.5q151 0 225 99t74 298v891h191v-880q0 -296 -120 -438t-370 -142q-248 0 -368.5 142t-120.5 438zM692 1629v211h182v-211h-182zM362 1629v211h183v-211h-183z" />
    <glyph glyph-name="Yacute" unicode="&#xdd;" 
d="M723 0h-191v563l-487 860h227l355 -673l350 673h213l-467 -848v-575zM475 1571l205 348h201l-285 -348h-121z" />
    <glyph glyph-name="Thorn" unicode="&#xde;" 
d="M625 975h-252v-475h237q167 0 233 54.5t66 182.5q0 127 -65 182.5t-219 55.5zM373 0h-189v1421h189v-272h303q211 0 320.5 -105t109.5 -307q0 -119 -46 -209.5t-134 -144.5q-52 -31 -120.5 -44t-223.5 -13h-209v-326z" />
    <glyph glyph-name="germandbls" unicode="&#xdf;" 
d="M205 0v1049q0 218 105.5 331t310.5 113q181 0 292 -102t111 -269q0 -111 -40.5 -187.5t-119.5 -113.5q105 -33 165.5 -128.5t60.5 -227.5q0 -220 -124 -360t-315 -140q-23 0 -50 3.5t-69 11.5v167q24 -6 44.5 -9t39.5 -3q126 0 206.5 85.5t80.5 223.5q0 142 -80.5 210.5
t-247.5 68.5h-30v149h30q131 0 200 60t69 174q0 105 -61 167t-165 62q-122 0 -179.5 -75.5t-57.5 -237.5v-1022h-176z" />
    <glyph glyph-name="agrave" unicode="&#xe0;" 
d="M825 385v174q-68 -38 -228 -60q-57 -8 -88 -14q-94 -18 -132.5 -59t-38.5 -121q0 -89 45 -134.5t133 -45.5q134 0 221.5 73t87.5 187zM846 143q-78 -88 -168 -132t-193 -44q-154 0 -240.5 85.5t-86.5 236.5q0 167 89 248.5t308 107.5q27 3 76 9q200 22 200 157
q0 86 -56 127t-173 41q-118 0 -177.5 -50t-59.5 -149h-162v13q0 161 108 253.5t297 92.5q203 0 300.5 -81t97.5 -251v-569q0 -67 15 -88t52 -21q6 0 16.5 1.5t26.5 4.5v-139q-30 -9 -53.5 -12.5t-46.5 -3.5q-85 0 -127.5 39.5t-42.5 117.5v6zM762 1249h-121l-285 348h201z
" />
    <glyph glyph-name="aacute" unicode="&#xe1;" 
d="M825 385v174q-68 -38 -228 -60q-57 -8 -88 -14q-94 -18 -132.5 -59t-38.5 -121q0 -89 45 -134.5t133 -45.5q134 0 221.5 73t87.5 187zM846 143q-78 -88 -168 -132t-193 -44q-154 0 -240.5 85.5t-86.5 236.5q0 167 89 248.5t308 107.5q27 3 76 9q200 22 200 157
q0 86 -56 127t-173 41q-118 0 -177.5 -50t-59.5 -149h-162v13q0 161 108 253.5t297 92.5q203 0 300.5 -81t97.5 -251v-569q0 -67 15 -88t52 -21q6 0 16.5 1.5t26.5 4.5v-139q-30 -9 -53.5 -12.5t-46.5 -3.5q-85 0 -127.5 39.5t-42.5 117.5v6zM475 1249l205 348h201
l-285 -348h-121z" />
    <glyph glyph-name="acircumflex" unicode="&#xe2;" 
d="M825 385v174q-68 -38 -228 -60q-57 -8 -88 -14q-94 -18 -132.5 -59t-38.5 -121q0 -89 45 -134.5t133 -45.5q134 0 221.5 73t87.5 187zM846 143q-78 -88 -168 -132t-193 -44q-154 0 -240.5 85.5t-86.5 236.5q0 167 89 248.5t308 107.5q27 3 76 9q200 22 200 157
q0 86 -56 127t-173 41q-118 0 -177.5 -50t-59.5 -149h-162v13q0 161 108 253.5t297 92.5q203 0 300.5 -81t97.5 -251v-569q0 -67 15 -88t52 -21q6 0 16.5 1.5t26.5 4.5v-139q-30 -9 -53.5 -12.5t-46.5 -3.5q-85 0 -127.5 39.5t-42.5 117.5v6zM324 1249l196 348h197l194 -348
h-120l-173 228l-174 -228h-120z" />
    <glyph glyph-name="atilde" unicode="&#xe3;" 
d="M825 385v174q-68 -38 -228 -60q-57 -8 -88 -14q-94 -18 -132.5 -59t-38.5 -121q0 -89 45 -134.5t133 -45.5q134 0 221.5 73t87.5 187zM846 143q-78 -88 -168 -132t-193 -44q-154 0 -240.5 85.5t-86.5 236.5q0 167 89 248.5t308 107.5q27 3 76 9q200 22 200 157
q0 86 -56 127t-173 41q-118 0 -177.5 -50t-59.5 -149h-162v13q0 161 108 253.5t297 92.5q203 0 300.5 -81t97.5 -251v-569q0 -67 15 -88t52 -21q6 0 16.5 1.5t26.5 4.5v-139q-30 -9 -53.5 -12.5t-46.5 -3.5q-85 0 -127.5 39.5t-42.5 117.5v6zM909 1524q-20 -101 -69 -153
t-125 -52q-14 0 -30.5 2.5t-35.5 7.5l-96 27q-14 4 -26 6t-23 2q-31 0 -53.5 -17.5t-36.5 -52.5h-88q18 99 68 152t124 53q18 0 32.5 -2t27.5 -6l96 -29q14 -4 28.5 -6t26.5 -2q33 0 55.5 17t36.5 53h88z" />
    <glyph glyph-name="adieresis" unicode="&#xe4;" 
d="M825 385v174q-68 -38 -228 -60q-57 -8 -88 -14q-94 -18 -132.5 -59t-38.5 -121q0 -89 45 -134.5t133 -45.5q134 0 221.5 73t87.5 187zM846 143q-78 -88 -168 -132t-193 -44q-154 0 -240.5 85.5t-86.5 236.5q0 167 89 248.5t308 107.5q27 3 76 9q200 22 200 157
q0 86 -56 127t-173 41q-118 0 -177.5 -50t-59.5 -149h-162v13q0 161 108 253.5t297 92.5q203 0 300.5 -81t97.5 -251v-569q0 -67 15 -88t52 -21q6 0 16.5 1.5t26.5 4.5v-139q-30 -9 -53.5 -12.5t-46.5 -3.5q-85 0 -127.5 39.5t-42.5 117.5v6zM692 1307v211h182v-211h-182z
M362 1307v211h183v-211h-183z" />
    <glyph glyph-name="aring" unicode="&#xe5;" 
d="M483 1483q0 -57 39.5 -96t95.5 -39t96 39.5t40 95.5q0 55 -40 95t-96 40t-95.5 -39.5t-39.5 -95.5zM367 1483q0 105 73 178.5t178 73.5q106 0 179 -73t73 -179q0 -107 -73 -180.5t-179 -73.5q-105 0 -178 73.5t-73 180.5zM825 385v174q-68 -38 -228 -60q-57 -8 -88 -14
q-94 -18 -132.5 -59t-38.5 -121q0 -89 45 -134.5t133 -45.5q134 0 221.5 73t87.5 187zM846 143q-78 -88 -168 -132t-193 -44q-154 0 -240.5 85.5t-86.5 236.5q0 167 89 248.5t308 107.5q27 3 76 9q200 22 200 157q0 86 -56 127t-173 41q-118 0 -177.5 -50t-59.5 -149h-162
v13q0 161 108 253.5t297 92.5q203 0 300.5 -81t97.5 -251v-569q0 -67 15 -88t52 -21q6 0 16.5 1.5t26.5 4.5v-139q-30 -9 -53.5 -12.5t-46.5 -3.5q-85 0 -127.5 39.5t-42.5 117.5v6z" />
    <glyph glyph-name="ae" unicode="&#xe6;" 
d="M498 385v174q-47 -36 -153 -57q-47 -9 -71 -17q-65 -21 -96 -64.5t-31 -115.5q0 -91 31.5 -135.5t95.5 -44.5q96 0 160 73t64 187zM682 649h383q0 161 -49.5 246.5t-143.5 85.5q-84 0 -135 -88t-55 -244zM623 1001q51 69 113.5 103.5t135.5 34.5q172 0 269.5 -148
t97.5 -411q0 -33 -0.5 -50.5t-1.5 -31.5h-555q0 -175 54.5 -275t148.5 -100q65 0 112 51.5t62 140.5h164q-28 -167 -121 -260.5t-234 -93.5q-99 0 -177 62t-122 176q-57 -120 -134 -176t-183 -56q-128 0 -198 84t-70 238q0 168 70.5 249t246.5 107q20 3 53 8q170 24 170 166
q0 77 -45 118.5t-129 41.5q-86 0 -134 -51t-48 -142v-6h-148v15q0 159 87 251.5t237 92.5q102 0 174.5 -36t104.5 -102z" />
    <glyph glyph-name="ccedilla" unicode="&#xe7;" 
d="M893 735q-6 118 -74.5 182t-187.5 64q-138 0 -213.5 -111.5t-75.5 -316.5q0 -210 74 -320t215 -110q111 0 184 72.5t86 197.5h172q-12 -198 -133.5 -315t-314.5 -117q-221 0 -344 155t-123 431t126 434t347 158q195 0 314.5 -109.5t125.5 -294.5h-178zM397 -426v100
q76 -18 141.5 -28.5t106.5 -10.5q61 0 90 20t29 62q0 43 -31.5 64.5t-93.5 21.5q-20 0 -34 -0.5t-27 -1.5v199h77v-102h29q110 0 166.5 -46t56.5 -135q0 -91 -65 -139.5t-187 -48.5q-48 0 -114 11.5t-144 33.5z" />
    <glyph glyph-name="egrave" unicode="&#xe8;" 
d="M350 649h535q0 158 -69 245t-193 87q-123 0 -194 -86.5t-79 -245.5zM350 498v-6q0 -171 76 -270t207 -99q90 0 153.5 50.5t87.5 141.5h179q-31 -162 -151 -258t-292 -96q-206 0 -327 158t-121 432q0 270 123.5 429t330.5 159q216 0 336.5 -147t120.5 -410
q0 -35 -0.5 -52.5t-1.5 -31.5h-721zM762 1249h-121l-285 348h201z" />
    <glyph glyph-name="eacute" unicode="&#xe9;" 
d="M350 649h535q0 158 -69 245t-193 87q-123 0 -194 -86.5t-79 -245.5zM350 498v-6q0 -171 76 -270t207 -99q90 0 153.5 50.5t87.5 141.5h179q-31 -162 -151 -258t-292 -96q-206 0 -327 158t-121 432q0 270 123.5 429t330.5 159q216 0 336.5 -147t120.5 -410
q0 -35 -0.5 -52.5t-1.5 -31.5h-721zM475 1249l205 348h201l-285 -348h-121z" />
    <glyph glyph-name="ecircumflex" unicode="&#xea;" 
d="M350 649h535q0 158 -69 245t-193 87q-123 0 -194 -86.5t-79 -245.5zM350 498v-6q0 -171 76 -270t207 -99q90 0 153.5 50.5t87.5 141.5h179q-31 -162 -151 -258t-292 -96q-206 0 -327 158t-121 432q0 270 123.5 429t330.5 159q216 0 336.5 -147t120.5 -410
q0 -35 -0.5 -52.5t-1.5 -31.5h-721zM324 1249l196 348h197l194 -348h-120l-173 228l-174 -228h-120z" />
    <glyph glyph-name="edieresis" unicode="&#xeb;" 
d="M350 649h535q0 158 -69 245t-193 87q-123 0 -194 -86.5t-79 -245.5zM350 498v-6q0 -171 76 -270t207 -99q90 0 153.5 50.5t87.5 141.5h179q-31 -162 -151 -258t-292 -96q-206 0 -327 158t-121 432q0 270 123.5 429t330.5 159q216 0 336.5 -147t120.5 -410
q0 -35 -0.5 -52.5t-1.5 -31.5h-721zM692 1307v211h182v-211h-182zM362 1307v211h183v-211h-183z" />
    <glyph glyph-name="igrave" unicode="&#xec;" 
d="M743 152h373v-152h-921v152h368v757h-282v154h462v-911zM762 1249h-121l-285 348h201z" />
    <glyph glyph-name="iacute" unicode="&#xed;" 
d="M743 152h373v-152h-921v152h368v757h-282v154h462v-911zM475 1249l205 348h201l-285 -348h-121z" />
    <glyph glyph-name="icircumflex" unicode="&#xee;" 
d="M743 152h373v-152h-921v152h368v757h-282v154h462v-911zM324 1249l196 348h197l194 -348h-120l-173 228l-174 -228h-120z" />
    <glyph glyph-name="idieresis" unicode="&#xef;" 
d="M743 152h373v-152h-921v152h368v757h-282v154h462v-911zM692 1307v211h182v-211h-182zM362 1307v211h183v-211h-183z" />
    <glyph glyph-name="eth" unicode="&#xf0;" 
d="M801 1016q-16 47 -46 97.5t-73 105.5l-248 -91l-35 97l217 75q-23 30 -54.5 56.5t-69.5 50.5l77 100q50 -28 96 -63t89 -78l243 90l37 -98l-209 -78q134 -168 202.5 -363t68.5 -411q0 -255 -127.5 -400t-352.5 -145t-351 144t-126 401t126.5 401t350.5 144
q56 0 100.5 -8.5t84.5 -26.5zM324 506q0 -191 76 -294t216 -103q141 0 217 102.5t76 294.5t-76 295.5t-217 103.5t-216.5 -103t-75.5 -296z" />
    <glyph glyph-name="ntilde" unicode="&#xf1;" 
d="M193 0v1100h172v-168q54 103 135.5 155t191.5 52t188.5 -38t120.5 -112q25 -41 35.5 -95.5t10.5 -170.5v-55v-668h-181v686q0 162 -46 226.5t-154 64.5q-139 0 -216 -90t-77 -252v-635h-180zM909 1524q-20 -101 -69 -153t-125 -52q-14 0 -30.5 2.5t-35.5 7.5l-96 27
q-14 4 -26 6t-23 2q-31 0 -53.5 -17.5t-36.5 -52.5h-88q18 99 68 152t124 53q18 0 32.5 -2t27.5 -6l96 -29q14 -4 28.5 -6t26.5 -2q33 0 55.5 17t36.5 53h88z" />
    <glyph glyph-name="ograve" unicode="&#xf2;" 
d="M324 551q0 -207 76 -318.5t216 -111.5q141 0 217 111.5t76 318.5t-75.5 317.5t-217.5 110.5q-141 0 -216.5 -110.5t-75.5 -317.5zM139 549q0 278 126.5 434t350.5 156q226 0 352 -155.5t126 -434.5q0 -278 -126 -433t-352 -155q-224 0 -350.5 155.5t-126.5 432.5z
M762 1249h-121l-285 348h201z" />
    <glyph glyph-name="oacute" unicode="&#xf3;" 
d="M324 551q0 -207 76 -318.5t216 -111.5q141 0 217 111.5t76 318.5t-75.5 317.5t-217.5 110.5q-141 0 -216.5 -110.5t-75.5 -317.5zM139 549q0 278 126.5 434t350.5 156q226 0 352 -155.5t126 -434.5q0 -278 -126 -433t-352 -155q-224 0 -350.5 155.5t-126.5 432.5z
M475 1249l205 348h201l-285 -348h-121z" />
    <glyph glyph-name="ocircumflex" unicode="&#xf4;" 
d="M324 551q0 -207 76 -318.5t216 -111.5q141 0 217 111.5t76 318.5t-75.5 317.5t-217.5 110.5q-141 0 -216.5 -110.5t-75.5 -317.5zM139 549q0 278 126.5 434t350.5 156q226 0 352 -155.5t126 -434.5q0 -278 -126 -433t-352 -155q-224 0 -350.5 155.5t-126.5 432.5z
M324 1249l196 348h197l194 -348h-120l-173 228l-174 -228h-120z" />
    <glyph glyph-name="otilde" unicode="&#xf5;" 
d="M324 551q0 -207 76 -318.5t216 -111.5q141 0 217 111.5t76 318.5t-75.5 317.5t-217.5 110.5q-141 0 -216.5 -110.5t-75.5 -317.5zM139 549q0 278 126.5 434t350.5 156q226 0 352 -155.5t126 -434.5q0 -278 -126 -433t-352 -155q-224 0 -350.5 155.5t-126.5 432.5z
M909 1524q-20 -101 -69 -153t-125 -52q-14 0 -30.5 2.5t-35.5 7.5l-96 27q-14 4 -26 6t-23 2q-31 0 -53.5 -17.5t-36.5 -52.5h-88q18 99 68 152t124 53q18 0 32.5 -2t27.5 -6l96 -29q14 -4 28.5 -6t26.5 -2q33 0 55.5 17t36.5 53h88z" />
    <glyph glyph-name="odieresis" unicode="&#xf6;" 
d="M324 551q0 -207 76 -318.5t216 -111.5q141 0 217 111.5t76 318.5t-75.5 317.5t-217.5 110.5q-141 0 -216.5 -110.5t-75.5 -317.5zM139 549q0 278 126.5 434t350.5 156q226 0 352 -155.5t126 -434.5q0 -278 -126 -433t-352 -155q-224 0 -350.5 155.5t-126.5 432.5z
M692 1307v211h182v-211h-182zM362 1307v211h183v-211h-183z" />
    <glyph glyph-name="divide" unicode="&#xf7;" 
d="M616 428q46 0 78.5 -33t32.5 -80q0 -45 -32 -77.5t-79 -32.5q-46 0 -78 32t-32 78q0 47 32.5 80t77.5 33zM168 705h895q30 0 46.5 -19.5t16.5 -54.5q0 -36 -16.5 -55t-46.5 -19h-895q-31 0 -47.5 18.5t-16.5 55.5q0 35 16.5 54.5t47.5 19.5zM616 1057q45 0 78 -33.5
t33 -79.5q0 -45 -32.5 -79t-78.5 -34q-45 0 -77.5 33.5t-32.5 79.5q0 47 32.5 80t77.5 33z" />
    <glyph glyph-name="oslash" unicode="&#xf8;" 
d="M819 881q-31 45 -86 71.5t-117 26.5q-141 0 -216.5 -111t-75.5 -317q0 -64 7 -120t21 -105zM414 221q33 -49 85 -74.5t117 -25.5q145 0 219 115t74 342q0 67 -8.5 111.5t-28.5 82.5zM305 88l-127 -149l-78 79l129 158q-45 72 -67.5 163.5t-22.5 209.5q0 278 126.5 434
t350.5 156q108 0 184 -30.5t130 -94.5l112 133l84 -72l-122 -149q44 -62 67 -157t23 -220q0 -279 -126 -433.5t-352 -154.5q-99 0 -173 30t-138 97z" />
    <glyph glyph-name="ugrave" unicode="&#xf9;" 
d="M1040 1100v-1100h-172v168q-54 -104 -135.5 -155.5t-191.5 -51.5t-188.5 38t-121.5 112q-24 41 -34.5 95.5t-10.5 170.5v55v668h181v-707q0 -143 47 -205.5t153 -62.5q139 0 216 89t77 251v635h180zM762 1249h-121l-285 348h201z" />
    <glyph glyph-name="uacute" unicode="&#xfa;" 
d="M1040 1100v-1100h-172v168q-54 -104 -135.5 -155.5t-191.5 -51.5t-188.5 38t-121.5 112q-24 41 -34.5 95.5t-10.5 170.5v55v668h181v-707q0 -143 47 -205.5t153 -62.5q139 0 216 89t77 251v635h180zM475 1249l205 348h201l-285 -348h-121z" />
    <glyph glyph-name="ucircumflex" unicode="&#xfb;" 
d="M1040 1100v-1100h-172v168q-54 -104 -135.5 -155.5t-191.5 -51.5t-188.5 38t-121.5 112q-24 41 -34.5 95.5t-10.5 170.5v55v668h181v-707q0 -143 47 -205.5t153 -62.5q139 0 216 89t77 251v635h180zM324 1249l196 348h197l194 -348h-120l-173 228l-174 -228h-120z" />
    <glyph glyph-name="udieresis" unicode="&#xfc;" 
d="M1040 1100v-1100h-172v168q-54 -104 -135.5 -155.5t-191.5 -51.5t-188.5 38t-121.5 112q-24 41 -34.5 95.5t-10.5 170.5v55v668h181v-707q0 -143 47 -205.5t153 -62.5q139 0 216 89t77 251v635h180zM692 1307v211h182v-211h-182zM362 1307v211h183v-211h-183z" />
    <glyph glyph-name="yacute" unicode="&#xfd;" 
d="M932 1100h192l-446 -1241q-62 -175 -131 -230t-201 -55q-60 0 -100 4t-74 12v174q53 -10 93 -15t73 -5q62 0 99 22t55 70l36 103l-417 1161h196l309 -905zM475 1249l205 348h201l-285 -348h-121z" />
    <glyph glyph-name="thorn" unicode="&#xfe;" 
d="M362 930q62 111 136 160t180 49q195 0 311.5 -159t116.5 -429q0 -271 -117 -430.5t-311 -159.5q-105 0 -178.5 48t-137.5 159v-594h-180v1896h180v-540zM641 123q132 0 206.5 113t74.5 315q0 200 -73.5 313t-201.5 113q-137 0 -209.5 -109.5t-72.5 -316.5
q0 -205 72 -316.5t204 -111.5z" />
    <glyph glyph-name="ydieresis" unicode="&#xff;" 
d="M932 1100h192l-446 -1241q-62 -175 -131 -230t-201 -55q-60 0 -100 4t-74 12v174q53 -10 93 -15t73 -5q62 0 99 22t55 70l36 103l-417 1161h196l309 -905zM692 1307v211h182v-211h-182zM362 1307v211h183v-211h-183z" />
    <glyph glyph-name="Amacron" unicode="&#x100;" 
d="M397 592h439l-220 627zM-6 0l518 1423h209l520 -1423h-192l-150 418h-567l-150 -418h-188zM348 1663v142h541v-142h-541z" />
    <glyph glyph-name="amacron" unicode="&#x101;" 
d="M825 385v174q-68 -38 -228 -60q-57 -8 -88 -14q-94 -18 -132.5 -59t-38.5 -121q0 -89 45 -134.5t133 -45.5q134 0 221.5 73t87.5 187zM846 143q-78 -88 -168 -132t-193 -44q-154 0 -240.5 85.5t-86.5 236.5q0 167 89 248.5t308 107.5q27 3 76 9q200 22 200 157
q0 86 -56 127t-173 41q-118 0 -177.5 -50t-59.5 -149h-162v13q0 161 108 253.5t297 92.5q203 0 300.5 -81t97.5 -251v-569q0 -67 15 -88t52 -21q6 0 16.5 1.5t26.5 4.5v-139q-30 -9 -53.5 -12.5t-46.5 -3.5q-85 0 -127.5 39.5t-42.5 117.5v6zM348 1341v142h541v-142h-541z
" />
    <glyph glyph-name="Abreve" unicode="&#x102;" 
d="M397 592h439l-220 627zM-6 0l518 1423h209l520 -1423h-192l-150 418h-567l-150 -418h-188zM326 1885h108q6 -73 50 -106.5t134 -33.5q91 0 134.5 34t48.5 106h108q-10 -146 -79.5 -212.5t-211.5 -66.5q-140 0 -211 67.5t-81 211.5z" />
    <glyph glyph-name="abreve" unicode="&#x103;" 
d="M825 385v174q-68 -38 -228 -60q-57 -8 -88 -14q-94 -18 -132.5 -59t-38.5 -121q0 -89 45 -134.5t133 -45.5q134 0 221.5 73t87.5 187zM846 143q-78 -88 -168 -132t-193 -44q-154 0 -240.5 85.5t-86.5 236.5q0 167 89 248.5t308 107.5q27 3 76 9q200 22 200 157
q0 86 -56 127t-173 41q-118 0 -177.5 -50t-59.5 -149h-162v13q0 161 108 253.5t297 92.5q203 0 300.5 -81t97.5 -251v-569q0 -67 15 -88t52 -21q6 0 16.5 1.5t26.5 4.5v-139q-30 -9 -53.5 -12.5t-46.5 -3.5q-85 0 -127.5 39.5t-42.5 117.5v6zM326 1563h108q6 -73 50 -106.5
t134 -33.5q91 0 134.5 34t48.5 106h108q-10 -146 -79.5 -212.5t-211.5 -66.5q-140 0 -211 67.5t-81 211.5z" />
    <glyph glyph-name="Aogonek" unicode="&#x104;" 
d="M397 592h439l-220 627zM-6 0l518 1423h209l520 -1423h-55q-73 -64 -105 -116.5t-32 -104.5q0 -43 21 -60.5t75 -17.5h84v-143h-86q-113 0 -169 42t-56 126q0 64 41 126t145 148h-55l-150 418h-567l-150 -418h-188z" />
    <glyph glyph-name="aogonek" unicode="&#x105;" 
d="M825 385v174q-67 -37 -184 -53.5t-146 -24.5q-82 -20 -119.5 -63.5t-37.5 -118.5q0 -84 46 -129t132 -45q134 0 221.5 73t87.5 187zM846 143q-78 -88 -168 -132t-193 -44q-154 0 -240.5 85.5t-86.5 236.5q0 167 89 248.5t308 107.5q27 3 76 9q200 22 200 157
q0 86 -56 127t-173 41q-118 0 -177.5 -50t-59.5 -149h-162v13q0 161 108 253.5t297 92.5q203 0 300.5 -81t97.5 -251v-569q0 -67 15 -88t52 -21q6 0 16.5 1.5t26.5 4.5v-139l-51 -12q-59 -42 -93 -97t-34 -108q0 -43 21 -60.5t75 -17.5h84v-143h-86q-113 0 -169 42t-56 126
q0 65 41 126.5t129 129.5q-69 10 -100 48t-31 113z" />
    <glyph glyph-name="Cacute" unicode="&#x106;" 
d="M948 528h197q-27 -265 -163 -416t-347 -151q-246 0 -386 199.5t-140 550.5q0 352 140 550.5t386 198.5q192 0 323 -125.5t164 -341.5h-194q-32 141 -109 219t-184 78q-153 0 -241.5 -154t-88.5 -425q0 -269 89 -423.5t241 -154.5q125 0 208 104.5t105 290.5zM475 1571
l205 348h201l-285 -348h-121z" />
    <glyph glyph-name="cacute" unicode="&#x107;" 
d="M893 735q-6 118 -74.5 182t-187.5 64q-138 0 -213.5 -111.5t-75.5 -316.5q0 -210 74 -320t215 -110q111 0 184 72.5t86 197.5h172q-12 -198 -133.5 -315t-314.5 -117q-221 0 -344 155t-123 431t126 434t347 158q195 0 314.5 -109.5t125.5 -294.5h-178zM475 1249l205 348
h201l-285 -348h-121z" />
    <glyph glyph-name="Ccircumflex" unicode="&#x108;" 
d="M948 528h197q-27 -265 -163 -416t-347 -151q-246 0 -386 199.5t-140 550.5q0 352 140 550.5t386 198.5q192 0 323 -125.5t164 -341.5h-194q-32 141 -109 219t-184 78q-153 0 -241.5 -154t-88.5 -425q0 -269 89 -423.5t241 -154.5q125 0 208 104.5t105 290.5zM324 1571
l196 348h197l194 -348h-120l-173 228l-174 -228h-120z" />
    <glyph glyph-name="ccircumflex" unicode="&#x109;" 
d="M893 735q-6 118 -74.5 182t-187.5 64q-138 0 -213.5 -111.5t-75.5 -316.5q0 -210 74 -320t215 -110q111 0 184 72.5t86 197.5h172q-12 -198 -133.5 -315t-314.5 -117q-221 0 -344 155t-123 431t126 434t347 158q195 0 314.5 -109.5t125.5 -294.5h-178zM324 1249l196 348
h197l194 -348h-120l-173 228l-174 -228h-120z" />
    <glyph glyph-name="Cdotaccent" unicode="&#x10a;" 
d="M948 528h197q-27 -265 -163 -416t-347 -151q-246 0 -386 199.5t-140 550.5q0 352 140 550.5t386 198.5q192 0 323 -125.5t164 -341.5h-194q-32 141 -109 219t-184 78q-153 0 -241.5 -154t-88.5 -425q0 -269 89 -423.5t241 -154.5q125 0 208 104.5t105 290.5zM522 1625
v219h193v-219h-193z" />
    <glyph glyph-name="cdotaccent" unicode="&#x10b;" 
d="M893 735q-6 118 -74.5 182t-187.5 64q-138 0 -213.5 -111.5t-75.5 -316.5q0 -210 74 -320t215 -110q111 0 184 72.5t86 197.5h172q-12 -198 -133.5 -315t-314.5 -117q-221 0 -344 155t-123 431t126 434t347 158q195 0 314.5 -109.5t125.5 -294.5h-178zM522 1303v219h193
v-219h-193z" />
    <glyph glyph-name="Ccaron" unicode="&#x10c;" 
d="M948 528h197q-27 -265 -163 -416t-347 -151q-246 0 -386 199.5t-140 550.5q0 352 140 550.5t386 198.5q192 0 323 -125.5t164 -341.5h-194q-32 141 -109 219t-184 78q-153 0 -241.5 -154t-88.5 -425q0 -269 89 -423.5t241 -154.5q125 0 208 104.5t105 290.5zM324 1919
h120l174 -227l173 227h120l-194 -348h-197z" />
    <glyph glyph-name="ccaron" unicode="&#x10d;" 
d="M893 735q-6 118 -74.5 182t-187.5 64q-138 0 -213.5 -111.5t-75.5 -316.5q0 -210 74 -320t215 -110q111 0 184 72.5t86 197.5h172q-12 -198 -133.5 -315t-314.5 -117q-221 0 -344 155t-123 431t126 434t347 158q195 0 314.5 -109.5t125.5 -294.5h-178zM324 1597h120
l174 -227l173 227h120l-194 -348h-197z" />
    <glyph glyph-name="Dcaron" unicode="&#x10e;" 
d="M614 1421q267 0 398 -176t131 -534q0 -341 -138 -526t-391 -185h-473v1421h473zM600 1251h-268v-1081h268q176 0 261 133t85 408q0 287 -81 413.5t-265 126.5zM324 1919h120l174 -227l173 227h120l-194 -348h-197z" />
    <glyph glyph-name="dcaron" unicode="&#x10f;" 
d="M1118 1278v192h199v-182q0 -94 -49.5 -142.5t-149.5 -51.5v71q54 2 80.5 28.5t26.5 78.5v6h-107zM500 977q-128 0 -201.5 -113t-73.5 -313q0 -201 73.5 -314.5t201.5 -113.5q137 0 209.5 110t72.5 318q0 207 -72.5 316.5t-209.5 109.5zM784 170q-53 -104 -132.5 -156.5
t-182.5 -52.5q-195 0 -311.5 159.5t-116.5 430.5q0 270 116.5 429t311.5 159q102 0 179 -51t136 -156v538h181v-1470h-181v170z" />
    <glyph glyph-name="Dcroat" unicode="&#x110;" 
d="M639 688h-307v-518h268q169 0 257.5 138.5t88.5 402.5q0 270 -86 405t-260 135h-268v-424h307v-139zM0 688v139h141v594h473q251 0 390 -186.5t139 -523.5q0 -333 -140.5 -522t-388.5 -189h-473v688h-141z" />
    <glyph glyph-name="dcroat" unicode="&#x111;" 
d="M309 532q0 -186 75.5 -297.5t199.5 -111.5q133 0 207.5 107.5t74.5 301.5q0 192 -74.5 299t-207.5 107q-124 0 -199.5 -110.5t-75.5 -295.5zM868 170q-53 -104 -132.5 -156.5t-182.5 -52.5q-191 0 -309.5 157t-118.5 412q0 256 118.5 413t309.5 157q102 0 180.5 -51
t136.5 -156v344h-315v115h315v118h179v-118h147v-115h-147v-1237h-181v170z" />
    <glyph glyph-name="Emacron" unicode="&#x112;" 
d="M186 0v1421h885v-172h-696v-426h635v-170h-635v-481h712v-172h-901zM348 1663v142h541v-142h-541z" />
    <glyph glyph-name="emacron" unicode="&#x113;" 
d="M350 649h535q0 158 -69 245t-193 87q-123 0 -194 -86.5t-79 -245.5zM350 498v-6q0 -171 76 -270t207 -99q90 0 153.5 50.5t87.5 141.5h179q-31 -162 -151 -258t-292 -96q-206 0 -327 158t-121 432q0 270 123.5 429t330.5 159q216 0 336.5 -147t120.5 -410
q0 -35 -0.5 -52.5t-1.5 -31.5h-721zM348 1341v142h541v-142h-541z" />
    <glyph glyph-name="Ebreve" unicode="&#x114;" 
d="M186 0v1421h885v-172h-696v-426h635v-170h-635v-481h712v-172h-901zM326 1885h108q6 -73 50 -106.5t134 -33.5q91 0 134.5 34t48.5 106h108q-10 -146 -79.5 -212.5t-211.5 -66.5q-140 0 -211 67.5t-81 211.5z" />
    <glyph glyph-name="ebreve" unicode="&#x115;" 
d="M350 649h535q0 158 -69 245t-193 87q-123 0 -194 -86.5t-79 -245.5zM350 498v-6q0 -171 76 -270t207 -99q90 0 153.5 50.5t87.5 141.5h179q-31 -162 -151 -258t-292 -96q-206 0 -327 158t-121 432q0 270 123.5 429t330.5 159q216 0 336.5 -147t120.5 -410
q0 -35 -0.5 -52.5t-1.5 -31.5h-721zM326 1563h108q6 -73 50 -106.5t134 -33.5q91 0 134.5 34t48.5 106h108q-10 -146 -79.5 -212.5t-211.5 -66.5q-140 0 -211 67.5t-81 211.5z" />
    <glyph glyph-name="Edotaccent" unicode="&#x116;" 
d="M186 0v1421h885v-172h-696v-426h635v-170h-635v-481h712v-172h-901zM522 1625v219h193v-219h-193z" />
    <glyph glyph-name="edotaccent" unicode="&#x117;" 
d="M350 649h535q0 158 -69 245t-193 87q-123 0 -194 -86.5t-79 -245.5zM350 498v-6q0 -171 76 -270t207 -99q90 0 153.5 50.5t87.5 141.5h179q-31 -162 -151 -258t-292 -96q-206 0 -327 158t-121 432q0 270 123.5 429t330.5 159q216 0 336.5 -147t120.5 -410
q0 -35 -0.5 -52.5t-1.5 -31.5h-721zM522 1303v219h193v-219h-193z" />
    <glyph glyph-name="Eogonek" unicode="&#x118;" 
d="M1044 0q-72 -64 -104.5 -116.5t-32.5 -104.5q0 -43 21.5 -60.5t75.5 -17.5h83v-143h-86q-112 0 -168.5 42t-56.5 126q0 64 41.5 126t145.5 148h-777v1421h885v-172h-696v-426h635v-170h-635v-481h712v-172h-43z" />
    <glyph glyph-name="eogonek" unicode="&#x119;" 
d="M350 649h535q0 158 -69 245t-193 87q-123 0 -194 -86.5t-79 -245.5zM350 498v-6q0 -171 75.5 -270t205.5 -99q92 0 156.5 50.5t89.5 141.5h176q-27 -155 -184 -281q-12 -10 -20 -16q-79 -64 -118 -123t-39 -116q0 -44 20.5 -61t73.5 -17h86v-143h-86q-112 0 -168.5 42
t-56.5 126q0 62 38 123.5t114 123.5q-39 -6 -66.5 -9t-44.5 -3q-199 0 -319.5 160t-120.5 430t123.5 429t330.5 159q216 0 336.5 -147t120.5 -410q0 -35 -0.5 -52.5t-1.5 -31.5h-721z" />
    <glyph glyph-name="Ecaron" unicode="&#x11a;" 
d="M186 0v1421h885v-172h-696v-426h635v-170h-635v-481h712v-172h-901zM324 1919h120l174 -227l173 227h120l-194 -348h-197z" />
    <glyph glyph-name="ecaron" unicode="&#x11b;" 
d="M350 649h535q0 158 -69 245t-193 87q-123 0 -194 -86.5t-79 -245.5zM350 498v-6q0 -171 76 -270t207 -99q90 0 153.5 50.5t87.5 141.5h179q-31 -162 -151 -258t-292 -96q-206 0 -327 158t-121 432q0 270 123.5 429t330.5 159q216 0 336.5 -147t120.5 -410
q0 -35 -0.5 -52.5t-1.5 -31.5h-721zM324 1597h120l174 -227l173 227h120l-194 -348h-197z" />
    <glyph glyph-name="Gcircumflex" unicode="&#x11c;" 
d="M991 190q-71 -114 -168.5 -171.5t-220.5 -57.5q-233 0 -379.5 206.5t-146.5 543.5q0 347 150.5 548t410.5 201q196 0 321.5 -123.5t151.5 -343.5h-203q-19 145 -93 224t-189 79q-168 0 -260.5 -151t-92.5 -428q0 -271 92.5 -425.5t249.5 -154.5q142 0 229 122.5t87 326.5
v8h-320v174h518v-768h-102zM324 1571l196 348h197l194 -348h-120l-173 228l-174 -228h-120z" />
    <glyph glyph-name="gcircumflex" unicode="&#x11d;" 
d="M1049 49q0 -251 -108.5 -362t-350.5 -111q-197 0 -307.5 83.5t-110.5 231.5v9h174q0 -85 63 -126.5t191 -41.5q146 0 211.5 65.5t65.5 214.5v156q-85 -120 -155.5 -163.5t-168.5 -43.5q-194 0 -311 159.5t-117 430.5q0 270 116.5 429t311.5 159q101 0 181 -53.5
t143 -163.5v178h172v-1051zM311 551q0 -201 73 -314.5t202 -113.5q138 0 212 110.5t74 317.5q0 206 -74 316t-212 110q-129 0 -202 -112t-73 -314zM324 1249l196 348h197l194 -348h-120l-173 228l-174 -228h-120z" />
    <glyph glyph-name="Gbreve" unicode="&#x11e;" 
d="M991 190q-71 -114 -168.5 -171.5t-220.5 -57.5q-233 0 -379.5 206.5t-146.5 543.5q0 347 150.5 548t410.5 201q196 0 321.5 -123.5t151.5 -343.5h-203q-19 145 -93 224t-189 79q-168 0 -260.5 -151t-92.5 -428q0 -271 92.5 -425.5t249.5 -154.5q142 0 229 122.5t87 326.5
v8h-320v174h518v-768h-102zM326 1885h108q6 -73 50 -106.5t134 -33.5q91 0 134.5 34t48.5 106h108q-10 -146 -79.5 -212.5t-211.5 -66.5q-140 0 -211 67.5t-81 211.5z" />
    <glyph glyph-name="gbreve" unicode="&#x11f;" 
d="M1049 49q0 -251 -108.5 -362t-350.5 -111q-197 0 -307.5 83.5t-110.5 231.5v9h174q0 -85 63 -126.5t191 -41.5q146 0 211.5 65.5t65.5 214.5v156q-85 -120 -155.5 -163.5t-168.5 -43.5q-194 0 -311 159.5t-117 430.5q0 270 116.5 429t311.5 159q101 0 181 -53.5
t143 -163.5v178h172v-1051zM311 551q0 -201 73 -314.5t202 -113.5q138 0 212 110.5t74 317.5q0 206 -74 316t-212 110q-129 0 -202 -112t-73 -314zM326 1563h108q6 -73 50 -106.5t134 -33.5q91 0 134.5 34t48.5 106h108q-10 -146 -79.5 -212.5t-211.5 -66.5
q-140 0 -211 67.5t-81 211.5z" />
    <glyph glyph-name="Gdotaccent" unicode="&#x120;" 
d="M991 190q-71 -114 -168.5 -171.5t-220.5 -57.5q-233 0 -379.5 206.5t-146.5 543.5q0 347 150.5 548t410.5 201q196 0 321.5 -123.5t151.5 -343.5h-203q-19 145 -93 224t-189 79q-168 0 -260.5 -151t-92.5 -428q0 -271 92.5 -425.5t249.5 -154.5q142 0 229 122.5t87 326.5
v8h-320v174h518v-768h-102zM522 1625v219h193v-219h-193z" />
    <glyph glyph-name="gdotaccent" unicode="&#x121;" 
d="M1049 49q0 -251 -108.5 -362t-350.5 -111q-197 0 -307.5 83.5t-110.5 231.5v9h174q0 -85 63 -126.5t191 -41.5q146 0 211.5 65.5t65.5 214.5v156q-85 -120 -155.5 -163.5t-168.5 -43.5q-194 0 -311 159.5t-117 430.5q0 270 116.5 429t311.5 159q101 0 181 -53.5
t143 -163.5v178h172v-1051zM311 551q0 -201 73 -314.5t202 -113.5q138 0 212 110.5t74 317.5q0 206 -74 316t-212 110q-129 0 -202 -112t-73 -314zM522 1303v219h193v-219h-193z" />
    <glyph glyph-name="uni0122" unicode="&#x122;" 
d="M991 190q-71 -114 -168.5 -171.5t-220.5 -57.5q-233 0 -379.5 206.5t-146.5 543.5q0 347 150.5 548t410.5 201q196 0 321.5 -123.5t151.5 -343.5h-203q-19 145 -93 224t-189 79q-168 0 -260.5 -151t-92.5 -428q0 -271 92.5 -425.5t249.5 -154.5q142 0 229 122.5t87 326.5
v8h-320v174h518v-768h-102zM397 -426v100q76 -18 141.5 -28.5t106.5 -10.5q61 0 90 20t29 62q0 43 -31.5 64.5t-93.5 21.5q-20 0 -34 -0.5t-27 -1.5v199h77v-102h29q110 0 166.5 -46t56.5 -135q0 -91 -65 -139.5t-187 -48.5q-48 0 -114 11.5t-144 33.5z" />
    <glyph glyph-name="uni0123" unicode="&#x123;" 
d="M1049 49q0 -251 -108.5 -362t-350.5 -111q-197 0 -307.5 83.5t-110.5 231.5v9h174q0 -85 63 -126.5t191 -41.5q146 0 211.5 65.5t65.5 214.5v156q-85 -120 -155.5 -163.5t-168.5 -43.5q-194 0 -311 159.5t-117 430.5q0 270 116.5 429t311.5 159q101 0 181 -53.5
t143 -163.5v178h172v-1051zM311 551q0 -201 73 -314.5t202 -113.5q138 0 212 110.5t74 317.5q0 206 -74 316t-212 110q-129 0 -202 -112t-73 -314zM475 1249l205 348h201l-285 -348h-121z" />
    <glyph glyph-name="Hcircumflex" unicode="&#x124;" 
d="M141 0v1421h191v-579h569v579h189v-1421h-189v668h-569v-668h-191zM324 1571l196 348h197l194 -348h-120l-173 228l-174 -228h-120z" />
    <glyph glyph-name="hcircumflex" unicode="&#x125;" 
d="M193 0v1470h180v-530q48 97 130 148t189 51q110 0 188.5 -38t120.5 -112q25 -41 35.5 -95.5t10.5 -170.5v-55v-668h-181v686q0 162 -46 226.5t-154 64.5q-139 0 -216 -90t-77 -252v-635h-180zM-8 1581l196 348h197l194 -348h-120l-173 228l-174 -228h-120z" />
    <glyph glyph-name="Hbar" unicode="&#x126;" 
d="M141 0v1030h-133v152h133v239h191v-239h569v239h189v-239h135v-152h-135v-1030h-189v668h-569v-668h-191zM901 842v188h-569v-188h569z" />
    <glyph glyph-name="hbar" unicode="&#x127;" 
d="M193 0v1247h-154v115h154v108h180v-108h323v-115h-323v-307q48 97 129.5 148t189.5 51q110 0 188.5 -38t120.5 -112q25 -41 35.5 -96t10.5 -170v-55v-668h-181v686q0 160 -46 225.5t-154 65.5q-139 0 -216 -90t-77 -252v-635h-180z" />
    <glyph glyph-name="Itilde" unicode="&#x128;" 
d="M522 172v1077h-262v172h713v-172h-262v-1077h262v-172h-713v172h262zM909 1846q-20 -101 -69 -153t-125 -52q-14 0 -30.5 2.5t-35.5 7.5l-96 27q-14 4 -26 6t-23 2q-31 0 -53.5 -17.5t-36.5 -52.5h-88q18 99 68 152t124 53q18 0 32.5 -2t27.5 -6l96 -29q14 -4 28.5 -6
t26.5 -2q33 0 55.5 17t36.5 53h88z" />
    <glyph glyph-name="itilde" unicode="&#x129;" 
d="M743 152h373v-152h-921v152h368v757h-282v154h462v-911zM909 1524q-20 -101 -69 -153t-125 -52q-14 0 -30.5 2.5t-35.5 7.5l-96 27q-14 4 -26 6t-23 2q-31 0 -53.5 -17.5t-36.5 -52.5h-88q18 99 68 152t124 53q18 0 32.5 -2t27.5 -6l96 -29q14 -4 28.5 -6t26.5 -2
q33 0 55.5 17t36.5 53h88z" />
    <glyph glyph-name="Imacron" unicode="&#x12a;" 
d="M522 172v1077h-262v172h713v-172h-262v-1077h262v-172h-713v172h262zM348 1663v142h541v-142h-541z" />
    <glyph glyph-name="imacron" unicode="&#x12b;" 
d="M743 152h373v-152h-921v152h368v757h-282v154h462v-911zM348 1341v142h541v-142h-541z" />
    <glyph glyph-name="Ibreve" unicode="&#x12c;" 
d="M522 172v1077h-262v172h713v-172h-262v-1077h262v-172h-713v172h262zM326 1885h108q6 -73 50 -106.5t134 -33.5q91 0 134.5 34t48.5 106h108q-10 -146 -79.5 -212.5t-211.5 -66.5q-140 0 -211 67.5t-81 211.5z" />
    <glyph glyph-name="ibreve" unicode="&#x12d;" 
d="M743 152h373v-152h-921v152h368v757h-282v154h462v-911zM326 1563h108q6 -73 50 -106.5t134 -33.5q91 0 134.5 34t48.5 106h108q-10 -146 -79.5 -212.5t-211.5 -66.5q-140 0 -211 67.5t-81 211.5z" />
    <glyph glyph-name="Iogonek" unicode="&#x12e;" 
d="M522 172v1077h-262v172h713v-172h-262v-1077h262v-172h-713v172h262zM723 0q-71 -63 -103 -115.5t-32 -105.5q0 -43 21 -60.5t75 -17.5h84v-143h-86q-113 0 -169 42t-56 126q0 64 41.5 126t144.5 148h80z" />
    <glyph glyph-name="iogonek" unicode="&#x12f;" 
d="M750 1470v-204h-191v204h191zM743 152h373v-152h-921v152h368v757h-282v154h462v-911zM723 0q-71 -63 -103 -115.5t-32 -105.5q0 -43 21 -60.5t75 -17.5h84v-143h-86q-113 0 -169 42t-56 126q0 64 41.5 126t144.5 148h80z" />
    <glyph glyph-name="Idotaccent" unicode="&#x130;" 
d="M522 172v1077h-262v172h713v-172h-262v-1077h262v-172h-713v172h262zM522 1625v219h193v-219h-193z" />
    <glyph glyph-name="dotlessi" unicode="&#x131;" 
d="M743 152h373v-152h-921v152h368v757h-282v154h462v-911z" />
    <glyph glyph-name="IJ" unicode="&#x132;" 
d="M891 471v950h186v-958q0 -266 -110 -384t-359 -118q-242 0 -353.5 111.5t-111.5 353.5v47h187v-33q0 -161 66.5 -234t213.5 -73q154 0 217.5 74.5t63.5 263.5zM143 627v794h187v-794h-187z" />
    <glyph glyph-name="ij" unicode="&#x133;" 
d="M1112 1470v-204h-180v204h180zM473 1470v-204h-180v204h180zM602 -256q14 -1 43 -4q64 -6 92 -6q117 0 156 38t39 167v970h-283v154h463v-1139q0 -197 -73.5 -274.5t-254.5 -77.5q-33 0 -75.5 2.5t-106.5 8.5v161zM293 0v909h-281v154h461v-1063h-180z" />
    <glyph glyph-name="Jcircumflex" unicode="&#x134;" 
d="M780 471v950h187v-958q0 -266 -110.5 -384t-358.5 -118t-358.5 118.5t-110.5 385.5q0 31 3 98l1 6h184v-6q-4 -67 -4 -96q0 -177 67.5 -255.5t219.5 -78.5q153 0 216.5 74.5t63.5 263.5zM517 1571l196 348h197l194 -348h-120l-173 228l-174 -228h-120z" />
    <glyph glyph-name="jcircumflex" unicode="&#x135;" 
d="M264 -256q14 -1 42 -4q66 -6 95 -6q117 0 156 38t39 167v970h-283v154h463v-1139q0 -197 -73.5 -274.5t-253.5 -77.5q-34 0 -78 2.5t-106 7.5zM324 1249l196 348h197l194 -348h-120l-173 228l-174 -228h-120z" />
    <glyph glyph-name="uni0136" unicode="&#x136;" 
d="M172 0v1421h188v-657l609 657h250l-557 -598l573 -823h-229l-478 686l-168 -180v-506h-188zM516 -317v192h201v-182q0 -94 -51 -143t-150 -51l1 73q55 2 80.5 27t25.5 77v7h-107z" />
    <glyph glyph-name="uni0137" unicode="&#x137;" 
d="M217 0v1470h180v-866l498 496h227l-413 -406l403 -694h-203l-323 569l-189 -182v-387h-180zM516 -317v192h201v-182q0 -94 -51 -143t-150 -51l1 73q55 2 80.5 27t25.5 77v7h-107z" />
    <glyph glyph-name="kgreenlandic" unicode="&#x138;" 
d="M217 0v1100h180v-496l498 496h227l-413 -406l403 -694h-203l-323 569l-189 -182v-387h-180z" />
    <glyph glyph-name="Lacute" unicode="&#x139;" 
d="M201 0v1421h188v-1249h725v-172h-913zM151 1571l205 348h201l-285 -348h-121z" />
    <glyph glyph-name="lacute" unicode="&#x13a;" 
d="M551 1319h-283v151h463v-1318h369v-152h-920v152h371v1167zM405 1581l205 348h201l-285 -348h-121z" />
    <glyph glyph-name="uni013B" unicode="&#x13b;" 
d="M201 0v1421h188v-1249h725v-172h-913zM516 -317v192h201v-182q0 -94 -51 -143t-150 -51l1 73q55 2 80.5 27t25.5 77v7h-107z" />
    <glyph glyph-name="uni013C" unicode="&#x13c;" 
d="M551 1319h-283v151h463v-1318h369v-152h-920v152h371v1167zM516 -317v192h201v-182q0 -94 -51 -143t-150 -51l1 73q55 2 80.5 27t25.5 77v7h-107z" />
    <glyph glyph-name="Lcaron" unicode="&#x13d;" 
d="M842 1231v190h200v-180q0 -94 -50 -143.5t-150 -52.5v73q54 2 80 28t26 79v6h-106zM205 0v1421h190v-1249h723v-172h-913z" />
    <glyph glyph-name="lcaron" unicode="&#x13e;" 
d="M496 1319h-283v151h463v-1318h368v-152h-919v152h371v1167zM905 1278v192h199v-182q0 -94 -49.5 -142.5t-149.5 -51.5v71q54 2 80.5 28.5t26.5 78.5v6h-107z" />
    <glyph glyph-name="Ldot" unicode="&#x13f;" 
d="M858 719v219h193v-219h-193zM201 0v1421h188v-1249h725v-172h-913z" />
    <glyph glyph-name="ldot" unicode="&#x140;" 
d="M551 1319h-283v151h463v-1318h369v-152h-920v152h371v1167zM1141 612v205h182v-205h-182z" />
    <glyph glyph-name="Lslash" unicode="&#x141;" 
d="M197 0v592l-146 -109l-78 105l224 166v667h188v-538l371 264l80 -105l-451 -325v-545h725v-172h-913z" />
    <glyph glyph-name="lslash" unicode="&#x142;" 
d="M551 610l-225 -159l-84 116l309 215v537h-283v151h463v-567l203 141l88 -114l-291 -197v-581h369v-152h-920v152h371v458z" />
    <glyph glyph-name="Nacute" unicode="&#x143;" 
d="M150 0v1421h223l538 -1165v1165h172v-1421h-219l-545 1165v-1165h-169zM475 1571l205 348h201l-285 -348h-121z" />
    <glyph glyph-name="nacute" unicode="&#x144;" 
d="M193 0v1100h172v-168q54 103 135.5 155t191.5 52t188.5 -38t120.5 -112q25 -41 35.5 -95.5t10.5 -170.5v-55v-668h-181v686q0 162 -46 226.5t-154 64.5q-139 0 -216 -90t-77 -252v-635h-180zM475 1249l205 348h201l-285 -348h-121z" />
    <glyph glyph-name="uni0145" unicode="&#x145;" 
d="M150 0v1421h223l538 -1165v1165h172v-1421h-219l-545 1165v-1165h-169zM516 -317v192h201v-182q0 -94 -51 -143t-150 -51l1 73q55 2 80.5 27t25.5 77v7h-107z" />
    <glyph glyph-name="uni0146" unicode="&#x146;" 
d="M193 0v1100h172v-168q54 103 135.5 155t191.5 52t188.5 -38t120.5 -112q25 -41 35.5 -95.5t10.5 -170.5v-55v-668h-181v686q0 162 -46 226.5t-154 64.5q-139 0 -216 -90t-77 -252v-635h-180zM516 -317v192h201v-182q0 -94 -51 -143t-150 -51l1 73q55 2 80.5 27t25.5 77v7
h-107z" />
    <glyph glyph-name="Ncaron" unicode="&#x147;" 
d="M150 0v1421h223l538 -1165v1165h172v-1421h-219l-545 1165v-1165h-169zM324 1919h120l174 -227l173 227h120l-194 -348h-197z" />
    <glyph glyph-name="ncaron" unicode="&#x148;" 
d="M193 0v1100h172v-168q54 103 135.5 155t191.5 52t188.5 -38t120.5 -112q25 -41 35.5 -95.5t10.5 -170.5v-55v-668h-181v686q0 162 -46 226.5t-154 64.5q-139 0 -216 -90t-77 -252v-635h-180zM324 1597h120l174 -227l173 227h120l-194 -348h-197z" />
    <glyph glyph-name="napostrophe" unicode="&#x149;" 
d="M266 0v1100h172v-168q54 103 136 155t192 52t188.5 -38t120.5 -112q24 -41 34.5 -95.5t10.5 -170.5v-55v-668h-180v686q0 162 -46.5 226.5t-154.5 64.5q-138 0 -215.5 -90t-77.5 -252v-635h-180zM-4 1278v192h199v-182q0 -94 -50 -142.5t-149 -51.5v71q54 2 80 28t26 79
v6h-106z" />
    <glyph glyph-name="Eng" unicode="&#x14a;" 
d="M1083 104q0 -225 -98.5 -350t-275.5 -125q-44 0 -93 11t-108 34v172q50 -23 98 -35t94 -12q96 0 145.5 55.5t49.5 161.5l-576 1149v-1165h-169v1421h223l538 -1085v1085h172v-1317z" />
    <glyph glyph-name="eng" unicode="&#x14b;" 
d="M193 0v1100h172v-168q54 103 135.5 155t191.5 52t188.5 -38t120.5 -112q25 -41 35.5 -96t10.5 -170v-55v-607q0 -226 -76.5 -343t-225.5 -117q-44 0 -84.5 8.5t-78.5 25.5v166q34 -18 65 -27.5t60 -9.5q82 0 120.5 70t38.5 217v635q0 160 -46 225.5t-154 65.5
q-139 0 -216 -90t-77 -252v-635h-180z" />
    <glyph glyph-name="Omacron" unicode="&#x14c;" 
d="M287 711q0 -270 88.5 -424t240.5 -154q153 0 241.5 154.5t88.5 423.5q0 270 -88.5 424.5t-241.5 154.5q-152 0 -240.5 -154t-88.5 -425zM90 711q0 353 140 551t386 198t386.5 -199.5t140.5 -549.5q0 -351 -140.5 -550.5t-386.5 -199.5q-245 0 -385.5 199.5t-140.5 550.5z
M348 1663v142h541v-142h-541z" />
    <glyph glyph-name="omacron" unicode="&#x14d;" 
d="M324 551q0 -207 76 -318.5t216 -111.5q141 0 217 111.5t76 318.5t-75.5 317.5t-217.5 110.5q-141 0 -216.5 -110.5t-75.5 -317.5zM139 549q0 278 126.5 434t350.5 156q226 0 352 -155.5t126 -434.5q0 -278 -126 -433t-352 -155q-224 0 -350.5 155.5t-126.5 432.5z
M348 1341v142h541v-142h-541z" />
    <glyph glyph-name="Obreve" unicode="&#x14e;" 
d="M287 711q0 -270 88.5 -424t240.5 -154q153 0 241.5 154.5t88.5 423.5q0 270 -88.5 424.5t-241.5 154.5q-152 0 -240.5 -154t-88.5 -425zM90 711q0 353 140 551t386 198t386.5 -199.5t140.5 -549.5q0 -351 -140.5 -550.5t-386.5 -199.5q-245 0 -385.5 199.5t-140.5 550.5z
M326 1885h108q6 -73 50 -106.5t134 -33.5q91 0 134.5 34t48.5 106h108q-10 -146 -79.5 -212.5t-211.5 -66.5q-140 0 -211 67.5t-81 211.5z" />
    <glyph glyph-name="obreve" unicode="&#x14f;" 
d="M324 551q0 -207 76 -318.5t216 -111.5q141 0 217 111.5t76 318.5t-75.5 317.5t-217.5 110.5q-141 0 -216.5 -110.5t-75.5 -317.5zM139 549q0 278 126.5 434t350.5 156q226 0 352 -155.5t126 -434.5q0 -278 -126 -433t-352 -155q-224 0 -350.5 155.5t-126.5 432.5z
M326 1563h108q6 -73 50 -106.5t134 -33.5q91 0 134.5 34t48.5 106h108q-10 -146 -79.5 -212.5t-211.5 -66.5q-140 0 -211 67.5t-81 211.5z" />
    <glyph glyph-name="Ohungarumlaut" unicode="&#x150;" 
d="M287 711q0 -270 88.5 -424t240.5 -154q153 0 241.5 154.5t88.5 423.5q0 270 -88.5 424.5t-241.5 154.5q-152 0 -240.5 -154t-88.5 -425zM90 711q0 353 140 551t386 198t386.5 -199.5t140.5 -549.5q0 -351 -140.5 -550.5t-386.5 -199.5q-245 0 -385.5 199.5t-140.5 550.5z
M676 1571l166 348h176l-246 -348h-96zM418 1571l137 348h176l-217 -348h-96z" />
    <glyph glyph-name="ohungarumlaut" unicode="&#x151;" 
d="M324 551q0 -207 76 -318.5t216 -111.5q141 0 217 111.5t76 318.5t-75.5 317.5t-217.5 110.5q-141 0 -216.5 -110.5t-75.5 -317.5zM139 549q0 278 126.5 434t350.5 156q226 0 352 -155.5t126 -434.5q0 -278 -126 -433t-352 -155q-224 0 -350.5 155.5t-126.5 432.5z
M676 1249l166 348h176l-246 -348h-96zM418 1249l137 348h176l-217 -348h-96z" />
    <glyph glyph-name="OE" unicode="&#x152;" 
d="M664 0v70q-39 -51 -98.5 -78t-133.5 -27q-201 0 -312.5 198.5t-111.5 561.5q0 352 108 545.5t302 193.5q89 0 151 -27.5t95 -80.5v65h634v-174h-485v-422h434v-172h-434v-477h485v-176h-634zM621 1151q-41 79 -84.5 114t-100.5 35q-118 0 -176.5 -143.5t-58.5 -431.5
q0 -302 58.5 -448t178.5 -146q61 0 101 34.5t82 123.5v862z" />
    <glyph glyph-name="oe" unicode="&#x153;" 
d="M121 551q0 -205 55.5 -317.5t155.5 -112.5q101 0 156 111.5t55 318.5t-55 317.5t-156 110.5t-156 -111t-55 -317zM715 649h383q0 161 -49.5 246.5t-143.5 85.5q-85 0 -135.5 -88t-54.5 -244zM623 129q-50 -85 -121 -126.5t-168 -41.5q-180 0 -281.5 155.5t-101.5 432.5
t102 433.5t281 156.5q88 0 157.5 -39.5t126.5 -122.5q68 81 139 121.5t148 40.5q172 0 269.5 -148t97.5 -411q0 -33 -0.5 -50t-1.5 -32h-555q0 -175 54.5 -275t148.5 -100q65 0 110.5 50t63.5 142h163q-25 -166 -120 -260t-236 -94q-78 0 -146.5 41.5t-129.5 126.5z" />
    <glyph glyph-name="Racute" unicode="&#x154;" 
d="M582 1247h-232v-473h219q167 0 233 55t66 183q0 126 -65 180.5t-221 54.5zM160 0v1421h475q210 0 320 -103.5t110 -301.5q0 -117 -47.5 -198t-140.5 -124q78 -24 112 -76.5t43 -184.5l15 -231q5 -75 19 -110t44 -53v-39h-215q-14 23 -23 69t-14 124l-10 184
q-8 139 -57 181t-246 42h-195v-600h-190zM475 1571l205 348h201l-285 -348h-121z" />
    <glyph glyph-name="racute" unicode="&#x155;" 
d="M260 0v1100h164v-182q57 107 143.5 164t194.5 57q178 0 266.5 -94.5t91.5 -286.5h-182q0 107 -54.5 163t-158.5 56q-138 0 -211.5 -89.5t-73.5 -258.5v-629h-180zM475 1249l205 348h201l-285 -348h-121z" />
    <glyph glyph-name="uni0156" unicode="&#x156;" 
d="M582 1247h-232v-473h219q167 0 233 55t66 183q0 126 -65 180.5t-221 54.5zM160 0v1421h475q210 0 320 -103.5t110 -301.5q0 -117 -47.5 -198t-140.5 -124q78 -24 112 -76.5t43 -184.5l15 -231q5 -75 19 -110t44 -53v-39h-215q-14 23 -23 69t-14 124l-10 184
q-8 139 -57 181t-246 42h-195v-600h-190zM516 -317v192h201v-182q0 -94 -51 -143t-150 -51l1 73q55 2 80.5 27t25.5 77v7h-107z" />
    <glyph glyph-name="uni0157" unicode="&#x157;" 
d="M260 0v1100h164v-182q57 107 143.5 164t194.5 57q178 0 266.5 -94.5t91.5 -286.5h-182q0 107 -54.5 163t-158.5 56q-138 0 -211.5 -89.5t-73.5 -258.5v-629h-180zM321 -317v192h201v-182q0 -94 -51 -143t-150 -51l1 73q55 2 80.5 27t25.5 77v7h-107z" />
    <glyph glyph-name="Rcaron" unicode="&#x158;" 
d="M582 1247h-232v-473h219q167 0 233 55t66 183q0 126 -65 180.5t-221 54.5zM160 0v1421h475q210 0 320 -103.5t110 -301.5q0 -117 -47.5 -198t-140.5 -124q78 -24 112 -76.5t43 -184.5l15 -231q5 -75 19 -110t44 -53v-39h-215q-14 23 -23 69t-14 124l-10 184
q-8 139 -57 181t-246 42h-195v-600h-190zM324 1919h120l174 -227l173 227h120l-194 -348h-197z" />
    <glyph glyph-name="rcaron" unicode="&#x159;" 
d="M260 0v1100h164v-182q57 107 143.5 164t194.5 57q178 0 266.5 -94.5t91.5 -286.5h-182q0 107 -54.5 163t-158.5 56q-138 0 -211.5 -89.5t-73.5 -258.5v-629h-180zM324 1597h120l174 -227l173 227h120l-194 -348h-197z" />
    <glyph glyph-name="Sacute" unicode="&#x15a;" 
d="M293 469q0 -155 91 -245.5t245 -90.5q140 0 224.5 70.5t84.5 187.5q0 158 -300 239q-60 16 -93 25q-241 68 -318 150.5t-77 230.5q0 189 125 305.5t327 116.5q231 0 358 -119.5t127 -337.5v-4h-186q-11 142 -86.5 217.5t-206.5 75.5q-121 0 -193.5 -61.5t-72.5 -163.5
t54.5 -150t287.5 -102q271 -63 356.5 -150t85.5 -251q0 -207 -136.5 -329t-368.5 -122q-237 0 -370.5 132t-144.5 376h187zM475 1571l205 348h201l-285 -348h-121z" />
    <glyph glyph-name="sacute" unicode="&#x15b;" 
d="M731 641q191 -44 260.5 -115t69.5 -202q0 -170 -119.5 -266.5t-331.5 -96.5q-204 0 -315.5 98.5t-113.5 282.5h173q10 -110 78.5 -165.5t194.5 -55.5q117 0 185.5 49t68.5 133q0 62 -34.5 95.5t-133.5 58.5l-201 49q-172 42 -239.5 113t-67.5 200q0 146 109 233t296 87
q191 0 304.5 -89.5t113.5 -238.5v-4h-176q-5 83 -69 130.5t-173 47.5q-110 0 -167.5 -41t-57.5 -119q0 -56 35.5 -87.5t136.5 -55.5zM475 1249l205 348h201l-285 -348h-121z" />
    <glyph glyph-name="Scircumflex" unicode="&#x15c;" 
d="M293 469q0 -155 91 -245.5t245 -90.5q140 0 224.5 70.5t84.5 187.5q0 158 -300 239q-60 16 -93 25q-241 68 -318 150.5t-77 230.5q0 189 125 305.5t327 116.5q231 0 358 -119.5t127 -337.5v-4h-186q-11 142 -86.5 217.5t-206.5 75.5q-121 0 -193.5 -61.5t-72.5 -163.5
t54.5 -150t287.5 -102q271 -63 356.5 -150t85.5 -251q0 -207 -136.5 -329t-368.5 -122q-237 0 -370.5 132t-144.5 376h187zM324 1571l196 348h197l194 -348h-120l-173 228l-174 -228h-120z" />
    <glyph glyph-name="scircumflex" unicode="&#x15d;" 
d="M731 641q191 -44 260.5 -115t69.5 -202q0 -170 -119.5 -266.5t-331.5 -96.5q-204 0 -315.5 98.5t-113.5 282.5h173q10 -110 78.5 -165.5t194.5 -55.5q117 0 185.5 49t68.5 133q0 62 -34.5 95.5t-133.5 58.5l-201 49q-172 42 -239.5 113t-67.5 200q0 146 109 233t296 87
q191 0 304.5 -89.5t113.5 -238.5v-4h-176q-5 83 -69 130.5t-173 47.5q-110 0 -167.5 -41t-57.5 -119q0 -56 35.5 -87.5t136.5 -55.5zM324 1249l196 348h197l194 -348h-120l-173 228l-174 -228h-120z" />
    <glyph glyph-name="Scedilla" unicode="&#x15e;" 
d="M293 469q0 -155 91 -245.5t245 -90.5q140 0 224.5 70.5t84.5 187.5q0 158 -300 239q-60 16 -93 25q-241 68 -318 150.5t-77 230.5q0 189 125 305.5t327 116.5q231 0 358 -119.5t127 -337.5v-4h-186q-11 142 -86.5 217.5t-206.5 75.5q-121 0 -193.5 -61.5t-72.5 -163.5
t54.5 -150t287.5 -102q271 -63 356.5 -150t85.5 -251q0 -207 -136.5 -329t-368.5 -122q-237 0 -370.5 132t-144.5 376h187zM397 -426v100q76 -18 141.5 -28.5t106.5 -10.5q61 0 90 20t29 62q0 43 -31.5 64.5t-93.5 21.5q-20 0 -34 -0.5t-27 -1.5v199h77v-102h29
q110 0 166.5 -46t56.5 -135q0 -91 -65 -139.5t-187 -48.5q-48 0 -114 11.5t-144 33.5z" />
    <glyph glyph-name="scedilla" unicode="&#x15f;" 
d="M731 641q191 -44 260.5 -115t69.5 -202q0 -170 -119.5 -266.5t-331.5 -96.5q-204 0 -315.5 98.5t-113.5 282.5h173q10 -110 78.5 -165.5t194.5 -55.5q117 0 185.5 49t68.5 133q0 62 -34.5 95.5t-133.5 58.5l-201 49q-172 42 -239.5 113t-67.5 200q0 146 109 233t296 87
q191 0 304.5 -89.5t113.5 -238.5v-4h-176q-5 83 -69 130.5t-173 47.5q-110 0 -167.5 -41t-57.5 -119q0 -56 35.5 -87.5t136.5 -55.5zM397 -426v100q76 -18 141.5 -28.5t106.5 -10.5q61 0 90 20t29 62q0 43 -31.5 64.5t-93.5 21.5q-20 0 -34 -0.5t-27 -1.5v199h77v-102h29
q110 0 166.5 -46t56.5 -135q0 -91 -65 -139.5t-187 -48.5q-48 0 -114 11.5t-144 33.5z" />
    <glyph glyph-name="Scaron" unicode="&#x160;" 
d="M293 469q0 -155 91 -245.5t245 -90.5q140 0 224.5 70.5t84.5 187.5q0 158 -300 239q-60 16 -93 25q-241 68 -318 150.5t-77 230.5q0 189 125 305.5t327 116.5q231 0 358 -119.5t127 -337.5v-4h-186q-11 142 -86.5 217.5t-206.5 75.5q-121 0 -193.5 -61.5t-72.5 -163.5
t54.5 -150t287.5 -102q271 -63 356.5 -150t85.5 -251q0 -207 -136.5 -329t-368.5 -122q-237 0 -370.5 132t-144.5 376h187zM324 1919h120l174 -227l173 227h120l-194 -348h-197z" />
    <glyph glyph-name="scaron" unicode="&#x161;" 
d="M731 641q191 -44 260.5 -115t69.5 -202q0 -170 -119.5 -266.5t-331.5 -96.5q-204 0 -315.5 98.5t-113.5 282.5h173q10 -110 78.5 -165.5t194.5 -55.5q117 0 185.5 49t68.5 133q0 62 -34.5 95.5t-133.5 58.5l-201 49q-172 42 -239.5 113t-67.5 200q0 146 109 233t296 87
q191 0 304.5 -89.5t113.5 -238.5v-4h-176q-5 83 -69 130.5t-173 47.5q-110 0 -167.5 -41t-57.5 -119q0 -56 35.5 -87.5t136.5 -55.5zM324 1597h120l174 -227l173 227h120l-194 -348h-197z" />
    <glyph glyph-name="uni0162" unicode="&#x162;" 
d="M522 0v1249h-432v172h1051v-172h-430v-1249h-189zM516 -317v192h201v-182q0 -94 -51 -143t-150 -51l1 73q55 2 80.5 27t25.5 77v7h-107z" />
    <glyph glyph-name="uni0163" unicode="&#x163;" 
d="M434 909h-311v154h311v321h180v-321h412v-154h-412v-520q0 -174 55.5 -224t200.5 -50q29 0 67.5 3t88.5 9v-155q-78 -6 -128.5 -8.5t-84.5 -2.5q-212 0 -295.5 81.5t-83.5 315.5v551zM516 -317v192h201v-182q0 -94 -51 -143t-150 -51l1 73q55 2 80.5 27t25.5 77v7h-107z
" />
    <glyph glyph-name="Tcaron" unicode="&#x164;" 
d="M522 0v1249h-432v172h1051v-172h-430v-1249h-189zM324 1919h120l174 -227l173 227h120l-194 -348h-197z" />
    <glyph glyph-name="tcaron" unicode="&#x165;" 
d="M379 909h-311v154h311v321h180v-321h389v-154h-389v-520q0 -176 55 -225t199 -49q29 0 69 3t89 9v-155q-79 -6 -129 -8.5t-84 -2.5q-212 0 -295.5 81.5t-83.5 315.5v551zM1057 1192v192h200v-182q0 -94 -50 -142.5t-150 -51.5v73q55 2 81.5 27.5t26.5 77.5v6h-108z" />
    <glyph glyph-name="Tbar" unicode="&#x166;" 
d="M524 0v606h-321v152h321v491h-430v172h1051v-172h-430v-491h321v-152h-321v-606h-191z" />
    <glyph glyph-name="tbar" unicode="&#x167;" 
d="M434 909h-311v154h311v321h180v-321h412v-154h-412v-280h480v-142h-480v-98q0 -171 54 -222.5t202 -51.5q29 0 67.5 3t88.5 9v-156q-91 -6 -137 -8t-76 -2q-112 0 -183.5 21t-117.5 67q-42 42 -60 101t-18 208v129h-379v142h379v280z" />
    <glyph glyph-name="Utilde" unicode="&#x168;" 
d="M127 541v880h188v-891q0 -202 74 -299.5t227 -97.5q151 0 225 99t74 298v891h191v-880q0 -296 -120 -438t-370 -142q-248 0 -368.5 142t-120.5 438zM909 1846q-20 -101 -69 -153t-125 -52q-14 0 -30.5 2.5t-35.5 7.5l-96 27q-14 4 -26 6t-23 2q-31 0 -53.5 -17.5
t-36.5 -52.5h-88q18 99 68 152t124 53q18 0 32.5 -2t27.5 -6l96 -29q14 -4 28.5 -6t26.5 -2q33 0 55.5 17t36.5 53h88z" />
    <glyph glyph-name="utilde" unicode="&#x169;" 
d="M1040 1100v-1100h-172v168q-54 -104 -135.5 -155.5t-191.5 -51.5t-188.5 38t-121.5 112q-24 41 -34.5 95.5t-10.5 170.5v55v668h181v-707q0 -143 47 -205.5t153 -62.5q139 0 216 89t77 251v635h180zM909 1524q-20 -101 -69 -153t-125 -52q-14 0 -30.5 2.5t-35.5 7.5
l-96 27q-14 4 -26 6t-23 2q-31 0 -53.5 -17.5t-36.5 -52.5h-88q18 99 68 152t124 53q18 0 32.5 -2t27.5 -6l96 -29q14 -4 28.5 -6t26.5 -2q33 0 55.5 17t36.5 53h88z" />
    <glyph glyph-name="Umacron" unicode="&#x16a;" 
d="M127 541v880h188v-891q0 -202 74 -299.5t227 -97.5q151 0 225 99t74 298v891h191v-880q0 -296 -120 -438t-370 -142q-248 0 -368.5 142t-120.5 438zM348 1663v142h541v-142h-541z" />
    <glyph glyph-name="umacron" unicode="&#x16b;" 
d="M1040 1100v-1100h-172v168q-54 -104 -135.5 -155.5t-191.5 -51.5t-188.5 38t-121.5 112q-24 41 -34.5 95.5t-10.5 170.5v55v668h181v-707q0 -143 47 -205.5t153 -62.5q139 0 216 89t77 251v635h180zM348 1341v142h541v-142h-541z" />
    <glyph glyph-name="Ubreve" unicode="&#x16c;" 
d="M127 541v880h188v-891q0 -202 74 -299.5t227 -97.5q151 0 225 99t74 298v891h191v-880q0 -296 -120 -438t-370 -142q-248 0 -368.5 142t-120.5 438zM326 1885h108q6 -73 50 -106.5t134 -33.5q91 0 134.5 34t48.5 106h108q-10 -146 -79.5 -212.5t-211.5 -66.5
q-140 0 -211 67.5t-81 211.5z" />
    <glyph glyph-name="ubreve" unicode="&#x16d;" 
d="M1040 1100v-1100h-172v168q-54 -104 -135.5 -155.5t-191.5 -51.5t-188.5 38t-121.5 112q-24 41 -34.5 95.5t-10.5 170.5v55v668h181v-707q0 -143 47 -205.5t153 -62.5q139 0 216 89t77 251v635h180zM326 1563h108q6 -73 50 -106.5t134 -33.5q91 0 134.5 34t48.5 106h108
q-10 -146 -79.5 -212.5t-211.5 -66.5q-140 0 -211 67.5t-81 211.5z" />
    <glyph glyph-name="Uring" unicode="&#x16e;" 
d="M127 541v880h188v-891q0 -202 74 -299.5t227 -97.5q151 0 225 99t74 298v891h191v-880q0 -296 -120 -438t-370 -142q-248 0 -368.5 142t-120.5 438zM483 1805q0 -57 39.5 -96t95.5 -39t96 39.5t40 95.5q0 55 -40 95t-96 40t-95.5 -39.5t-39.5 -95.5zM367 1805
q0 105 73 178.5t178 73.5q106 0 179 -73t73 -179q0 -107 -73 -180.5t-179 -73.5q-105 0 -178 73.5t-73 180.5z" />
    <glyph glyph-name="uring" unicode="&#x16f;" 
d="M1040 1100v-1100h-172v168q-54 -104 -135.5 -155.5t-191.5 -51.5t-188.5 38t-121.5 112q-24 41 -34.5 95.5t-10.5 170.5v55v668h181v-707q0 -143 47 -205.5t153 -62.5q139 0 216 89t77 251v635h180zM483 1483q0 -57 39.5 -96t95.5 -39t96 39.5t40 95.5q0 55 -40 95
t-96 40t-95.5 -39.5t-39.5 -95.5zM367 1483q0 105 73 178.5t178 73.5q106 0 179 -73t73 -179q0 -107 -73 -180.5t-179 -73.5q-105 0 -178 73.5t-73 180.5z" />
    <glyph glyph-name="Uhungarumlaut" unicode="&#x170;" 
d="M127 541v880h188v-891q0 -202 74 -299.5t227 -97.5q151 0 225 99t74 298v891h191v-880q0 -296 -120 -438t-370 -142q-248 0 -368.5 142t-120.5 438zM676 1571l166 348h176l-246 -348h-96zM418 1571l137 348h176l-217 -348h-96z" />
    <glyph glyph-name="uhungarumlaut" unicode="&#x171;" 
d="M1040 1100v-1100h-172v168q-54 -104 -135.5 -155.5t-191.5 -51.5t-188.5 38t-121.5 112q-24 41 -34.5 95.5t-10.5 170.5v55v668h181v-707q0 -143 47 -205.5t153 -62.5q139 0 216 89t77 251v635h180zM676 1249l166 348h176l-246 -348h-96zM418 1249l137 348h176l-217 -348
h-96z" />
    <glyph glyph-name="Uogonek" unicode="&#x172;" 
d="M127 541v880h188v-891q0 -202 74 -299.5t227 -97.5q151 0 225 99t74 298v891h191v-880q0 -296 -120 -438t-370 -142q-248 0 -368.5 142t-120.5 438zM723 0q-71 -63 -103 -115.5t-32 -105.5q0 -43 21 -60.5t75 -17.5h84v-143h-86q-113 0 -169 42t-56 126q0 64 41.5 126
t144.5 148h80z" />
    <glyph glyph-name="uogonek" unicode="&#x173;" 
d="M1040 1100v-1100q-75 -72 -105 -121.5t-30 -99.5q0 -44 20.5 -61t75.5 -17h84v-143h-86q-112 0 -168.5 42t-56.5 126q0 64 41.5 126t145.5 148h-93v168q-54 -104 -135.5 -155.5t-191.5 -51.5t-188.5 38t-121.5 112q-24 41 -34.5 95.5t-10.5 170.5v55v668h181v-707
q0 -143 47 -205.5t153 -62.5q139 0 216 89t77 251v635h180z" />
    <glyph glyph-name="Wcircumflex" unicode="&#x174;" 
d="M229 0l-245 1423h168l176 -1210l198 1210h179l202 -1210l176 1210h164l-250 -1423h-172l-211 1233l-204 -1233h-181zM324 1571l196 348h197l194 -348h-120l-173 228l-174 -228h-120z" />
    <glyph glyph-name="wcircumflex" unicode="&#x175;" 
d="M453 0h-172l-271 1100h172l183 -934l161 934h179l161 -934l183 934h174l-271 -1100h-172l-164 934zM324 1249l196 348h197l194 -348h-120l-173 228l-174 -228h-120z" />
    <glyph glyph-name="Ycircumflex" unicode="&#x176;" 
d="M723 0h-191v563l-487 860h227l355 -673l350 673h213l-467 -848v-575zM324 1571l196 348h197l194 -348h-120l-173 228l-174 -228h-120z" />
    <glyph glyph-name="ycircumflex" unicode="&#x177;" 
d="M932 1100h192l-446 -1241q-62 -175 -131 -230t-201 -55q-60 0 -100 4t-74 12v174q53 -10 93 -15t73 -5q62 0 99 22t55 70l36 103l-417 1161h196l309 -905zM324 1249l196 348h197l194 -348h-120l-173 228l-174 -228h-120z" />
    <glyph glyph-name="Ydieresis" unicode="&#x178;" 
d="M723 0h-191v563l-487 860h227l355 -673l350 673h213l-467 -848v-575zM692 1629v211h182v-211h-182zM362 1629v211h183v-211h-183z" />
    <glyph glyph-name="Zacute" unicode="&#x179;" 
d="M106 0v164l807 1085h-751v172h964v-161l-794 -1088h794v-172h-1020zM475 1571l205 348h201l-285 -348h-121z" />
    <glyph glyph-name="zacute" unicode="&#x17a;" 
d="M819 948h-610v152h831v-139l-634 -809h663v-152h-891v137zM475 1249l205 348h201l-285 -348h-121z" />
    <glyph glyph-name="Zdotaccent" unicode="&#x17b;" 
d="M106 0v164l807 1085h-751v172h964v-161l-794 -1088h794v-172h-1020zM522 1625v219h193v-219h-193z" />
    <glyph glyph-name="zdotaccent" unicode="&#x17c;" 
d="M819 948h-610v152h831v-139l-634 -809h663v-152h-891v137zM522 1303v219h193v-219h-193z" />
    <glyph glyph-name="Zcaron" unicode="&#x17d;" 
d="M106 0v164l807 1085h-751v172h964v-161l-794 -1088h794v-172h-1020zM324 1919h120l174 -227l173 227h120l-194 -348h-197z" />
    <glyph glyph-name="zcaron" unicode="&#x17e;" 
d="M819 948h-610v152h831v-139l-634 -809h663v-152h-891v137zM324 1597h120l174 -227l173 227h120l-194 -348h-197z" />
    <glyph glyph-name="longs" unicode="&#x17f;" 
d="M442 909h-280v154h280v100q0 160 95 233.5t301 73.5q27 0 70.5 -2t123.5 -8v-155q-44 4 -82 6t-71 2q-133 0 -194.5 -44.5t-61.5 -138.5v-1130h-181v909z" />
    <glyph glyph-name="florin" unicode="&#x192;" 
d="M25 -377l47 160q29 -19 59 -28t62 -9q72 0 109.5 59t72.5 252l137 744h-211v147h242q58 324 141 443.5t236 119.5q44 0 88 -11t90 -34l-47 -151q-35 16 -63.5 24.5t-51.5 8.5q-77 0 -117.5 -70.5t-83.5 -329.5h230v-147h-256l-123 -660q-63 -335 -146.5 -450t-236.5 -115
q-46 0 -90 11.5t-88 35.5z" />
    <glyph glyph-name="Aringacute" unicode="&#x1fa;" 
d="M539 1673q0 -32 23.5 -55t55.5 -23q33 0 55.5 23t22.5 55q0 34 -22 57t-56 23q-32 0 -55.5 -24t-23.5 -56zM440 1673q0 74 51.5 126t124.5 52q74 0 126.5 -52t52.5 -126q0 -73 -52 -124.5t-127 -51.5q-73 0 -124.5 51t-51.5 125zM590 1896h-109l125 228h187zM397 592h439
l-220 627zM-6 0l518 1423h209l520 -1423h-192l-150 418h-567l-150 -418h-188z" />
    <glyph glyph-name="aringacute" unicode="&#x1fb;" 
d="M846 143q-79 -87 -169.5 -131.5t-191.5 -44.5q-155 0 -241 85t-86 237q0 158 82.5 241.5t263.5 108.5q87 0 161 11t117 30q31 14 41.5 36t10.5 95q0 85 -57 126.5t-175 41.5t-177.5 -50t-59.5 -149h-162v8q0 164 108 257.5t297 93.5q205 0 301.5 -81t96.5 -251v-569
q0 -68 14.5 -88.5t52.5 -20.5q7 0 18 1.5t25 4.5v-139q-28 -8 -52.5 -12t-47.5 -4q-85 0 -127.5 39.5t-42.5 117.5v6zM825 385v174q-62 -36 -219 -58q-64 -10 -96 -16q-94 -17 -133 -58.5t-39 -121.5q0 -90 44.5 -135t133.5 -45q136 0 222.5 72.5t86.5 187.5zM590 1589h-109
l125 226h187zM440 1366q0 74 51.5 125t124.5 51q75 0 127 -51.5t52 -124.5q0 -74 -52.5 -126t-126.5 -52q-73 0 -124.5 52t-51.5 126zM539 1366q0 -32 23.5 -55t55.5 -23q33 0 55.5 23t22.5 55q0 34 -22 56t-56 22q-32 0 -55.5 -23t-23.5 -55z" />
    <glyph glyph-name="AEacute" unicode="&#x1fc;" 
d="M274 592h277v668h-47zM217 426l-149 -426h-177l488 1423h881v-176h-517v-426h463v-166h-463v-477h523v-178h-715v426h-334zM475 1571l205 348h201l-285 -348h-121z" />
    <glyph glyph-name="aeacute" unicode="&#x1fd;" 
d="M498 385v174q-47 -36 -153 -57q-47 -9 -71 -17q-65 -21 -96 -64.5t-31 -115.5q0 -91 31.5 -135.5t95.5 -44.5q96 0 160 73t64 187zM682 649h383q0 161 -49.5 246.5t-143.5 85.5q-84 0 -135 -88t-55 -244zM623 1001q51 69 113.5 103.5t135.5 34.5q172 0 269.5 -148
t97.5 -411q0 -33 -0.5 -50.5t-1.5 -31.5h-555q0 -175 54.5 -275t148.5 -100q65 0 112 51.5t62 140.5h164q-28 -167 -121 -260.5t-234 -93.5q-99 0 -177 62t-122 176q-57 -120 -134 -176t-183 -56q-128 0 -198 84t-70 238q0 168 70.5 249t246.5 107q20 3 53 8q170 24 170 166
q0 77 -45 118.5t-129 41.5q-86 0 -134 -51t-48 -142v-6h-148v15q0 159 87 251.5t237 92.5q102 0 174.5 -36t104.5 -102zM475 1249l205 348h201l-285 -348h-121z" />
    <glyph glyph-name="Oslashacute" unicode="&#x1fe;" 
d="M385 274q44 -73 99.5 -107t131.5 -34q154 0 242 155.5t88 432.5q0 81 -10 152.5t-31 140.5zM842 1149q-34 67 -93.5 104t-132.5 37q-154 0 -241.5 -153.5t-87.5 -425.5q0 -88 9.5 -163t29.5 -145zM162 -45l-107 74l135 192q-52 105 -76 220t-24 270q0 353 140 551
t386 198q106 0 193 -39t147 -112l109 161l113 -67l-142 -205q56 -102 81.5 -212.5t25.5 -258.5q0 -362 -139.5 -564t-387.5 -202q-105 0 -186.5 35.5t-157.5 114.5zM475 1571l205 348h201l-285 -348h-121z" />
    <glyph glyph-name="oslashacute" unicode="&#x1ff;" 
d="M819 881q-31 45 -86 71.5t-117 26.5q-141 0 -216.5 -111t-75.5 -317q0 -64 7 -120t21 -105zM414 221q33 -49 85 -74.5t117 -25.5q145 0 219 115t74 342q0 67 -8.5 111.5t-28.5 82.5zM305 88l-127 -149l-78 79l129 158q-45 72 -67.5 163.5t-22.5 209.5q0 278 126.5 434
t350.5 156q108 0 184 -30.5t130 -94.5l112 133l84 -72l-122 -149q44 -62 67 -157t23 -220q0 -279 -126 -433.5t-352 -154.5q-99 0 -173 30t-138 97zM475 1249l205 348h201l-285 -348h-121z" />
    <glyph glyph-name="circumflex" unicode="&#x2c6;" 
d="M324 1249l196 348h197l194 -348h-120l-173 228l-174 -228h-120z" />
    <glyph glyph-name="caron" unicode="&#x2c7;" 
d="M324 1597h120l174 -227l173 227h120l-194 -348h-197z" />
    <glyph glyph-name="uni02C9" unicode="&#x2c9;" 
d="M348 1341v142h541v-142h-541z" />
    <glyph glyph-name="breve" unicode="&#x2d8;" 
d="M326 1563h108q6 -73 50 -106.5t134 -33.5q91 0 134.5 34t48.5 106h108q-10 -146 -79.5 -212.5t-211.5 -66.5q-140 0 -211 67.5t-81 211.5z" />
    <glyph glyph-name="dotaccent" unicode="&#x2d9;" 
d="M522 1303v219h193v-219h-193z" />
    <glyph glyph-name="ring" unicode="&#x2da;" 
d="M483 1483q0 -57 39.5 -96t95.5 -39t96 39.5t40 95.5q0 55 -40 95t-96 40t-95.5 -39.5t-39.5 -95.5zM367 1483q0 105 73 178.5t178 73.5q106 0 179 -73t73 -179q0 -107 -73 -180.5t-179 -73.5q-105 0 -178 73.5t-73 180.5z" />
    <glyph glyph-name="ogonek" unicode="&#x2db;" 
d="M723 0q-71 -63 -103 -115.5t-32 -105.5q0 -43 21 -60.5t75 -17.5h84v-143h-86q-113 0 -169 42t-56 126q0 64 41.5 126t144.5 148h80z" />
    <glyph glyph-name="tilde" unicode="&#x2dc;" 
d="M909 1524q-20 -101 -69 -153t-125 -52q-14 0 -30.5 2.5t-35.5 7.5l-96 27q-14 4 -26 6t-23 2q-31 0 -53.5 -17.5t-36.5 -52.5h-88q18 99 68 152t124 53q18 0 32.5 -2t27.5 -6l96 -29q14 -4 28.5 -6t26.5 -2q33 0 55.5 17t36.5 53h88z" />
    <glyph glyph-name="hungarumlaut" unicode="&#x2dd;" 
d="M676 1249l166 348h176l-246 -348h-96zM418 1249l137 348h176l-217 -348h-96z" />
    <glyph glyph-name="uni037E" unicode="&#x37e;" 
d="M475 307h283v-330q0 -183 -85 -283t-247 -108v140q101 12 143.5 65.5t42.5 169.5v39h-137v307zM475 1100h283v-305h-283v305z" />
    <glyph glyph-name="tonos" unicode="&#x384;" 
d="M745 1597h201l-284 -348h-121z" />
    <glyph glyph-name="dieresistonos" unicode="&#x385;" 
d="M786 1430h160v-181h-160v181zM713 1597l-29 -348h-133l-31 348h193zM289 1430h160v-181h-160v181z" />
    <glyph glyph-name="Alphatonos" unicode="&#x386;" 
d="M41 1073l111 350h200l-190 -350h-121zM836 592l-220 627l-219 -627h439zM721 1423l520 -1423h-192l-150 418h-567l-150 -418h-188l518 1423h209z" />
    <glyph glyph-name="anoteleia" unicode="&#x387;" 
d="M469 694q0 61 42.5 105.5t102.5 44.5q61 0 105.5 -44.5t44.5 -105.5t-43.5 -104t-106.5 -43q-61 0 -103 42t-42 105z" />
    <glyph glyph-name="Epsilontonos" unicode="&#x388;" 
d="M0 1073l109 348h202l-190 -348h-121zM1190 1421v-172h-610v-426h548v-170h-548v-481h626v-172h-817v1421h801z" />
    <glyph glyph-name="Etatonos" unicode="&#x389;" 
d="M0 1073l109 348h202l-190 -348h-121zM580 1421v-579h421v579h189v-1421h-189v668h-421v-668h-189v1421h189z" />
    <glyph glyph-name="Iotatonos" unicode="&#x38a;" 
d="M0 1073l109 348h202l-190 -348h-121zM391 1249v172h711v-172h-262v-1077h262v-172h-711v172h260v1077h-260z" />
    <glyph glyph-name="Omicrontonos" unicode="&#x38c;" 
d="M0 1112l109 348h202l-190 -348h-121zM657 1290q-130 0 -205 -153.5t-75 -425.5q0 -269 75.5 -423.5t204.5 -154.5q130 0 205.5 154.5t75.5 423.5q0 271 -75 425t-206 154zM182 711q0 352 126.5 550.5t348.5 198.5q221 0 347 -199t126 -550t-126 -550.5t-347 -199.5
t-348 199t-127 551z" />
    <glyph glyph-name="Upsilontonos" unicode="&#x38e;" 
d="M0 1073l109 350h202l-190 -350h-121zM717 563l-344 860h227l211 -673l209 673h213l-326 -848v-575h-190v563z" />
    <glyph glyph-name="Omegatonos" unicode="&#x38f;" 
d="M0 1112l109 348h202l-190 -348h-121zM184 172h222q-111 134 -161 279t-50 331q0 312 129.5 495t345.5 183q218 0 347.5 -182.5t129.5 -495.5q0 -188 -49.5 -332.5t-159.5 -277.5h221v-172h-418v172q103 82 159 245.5t56 383.5q0 229 -76.5 361t-207.5 132
q-132 0 -209.5 -134t-77.5 -363q0 -219 56.5 -382t158.5 -243v-172h-416v172z" />
    <glyph glyph-name="iotadieresistonos" unicode="&#x390;" 
d="M338 948v152h369v-854q0 -73 32.5 -103t110.5 -30q23 0 52 2.5t64 7.5l1 -133q-53 -14 -103.5 -21.5t-97.5 -7.5q-137 0 -188.5 62t-51.5 245v680h-188zM786 1430h160v-181h-160v181zM713 1597l-29 -348h-133l-31 348h193zM289 1430h160v-181h-160v181z" />
    <glyph glyph-name="Alpha" unicode="&#x391;" 
d="M616 1219l-219 -627h439zM512 1423h209l520 -1423h-192l-150 418h-567l-150 -418h-188z" />
    <glyph glyph-name="Beta" unicode="&#x392;" 
d="M655 170q140 0 208.5 62.5t68.5 189.5q0 121 -72 179t-223 58h-305v-489h323zM610 831q134 0 201.5 53.5t67.5 159.5q0 108 -60.5 157.5t-191.5 49.5h-295v-420h278zM872 768q125 -32 190.5 -120t65.5 -222q0 -202 -118 -314t-332 -112h-535v1421h506q205 0 310.5 -90
t105.5 -266q0 -104 -46 -175t-147 -122z" />
    <glyph glyph-name="Gamma" unicode="&#x393;" 
d="M201 0v1421h938v-172h-750v-1249h-188z" />
    <glyph glyph-name="uni0394" unicode="&#x394;" 
d="M-6 0l518 1423h209l520 -1423h-1247zM616 1219l-368 -1047h737z" />
    <glyph glyph-name="Epsilon" unicode="&#x395;" 
d="M186 1421h885v-172h-696v-426h635v-170h-635v-481h712v-172h-901v1421z" />
    <glyph glyph-name="Zeta" unicode="&#x396;" 
d="M106 164l807 1085h-751v172h964v-161l-794 -1088h794v-172h-1020v164z" />
    <glyph glyph-name="Eta" unicode="&#x397;" 
d="M141 1421h191v-579h569v579h189v-1421h-189v668h-569v-668h-191v1421z" />
    <glyph glyph-name="Theta" unicode="&#x398;" 
d="M397 805h439v-172h-439v172zM616 1290q-152 0 -240.5 -154t-88.5 -425q0 -270 88.5 -424t240.5 -154q153 0 241.5 154.5t88.5 423.5q0 270 -88.5 424.5t-241.5 154.5zM90 711q0 352 140 550.5t386 198.5t386.5 -199.5t140.5 -549.5q0 -351 -140.5 -550.5t-386.5 -199.5
t-386 199t-140 551z" />
    <glyph glyph-name="Iota" unicode="&#x399;" 
d="M522 1249h-262v172h713v-172h-262v-1077h262v-172h-713v172h262v1077z" />
    <glyph glyph-name="Kappa" unicode="&#x39a;" 
d="M172 1421h188v-657l609 657h250l-557 -598l573 -823h-229l-478 686l-168 -180v-506h-188v1421z" />
    <glyph glyph-name="Lambda" unicode="&#x39b;" 
d="M53 0l449 1423h205l460 -1423h-196l-367 1210l-354 -1210h-197z" />
    <glyph glyph-name="Mu" unicode="&#x39c;" 
d="M104 1421h252l260 -1253l263 1253h249v-1421h-159v1290l-264 -1290h-177l-266 1290v-1290h-158v1421z" />
    <glyph glyph-name="Nu" unicode="&#x39d;" 
d="M150 1421h223l538 -1165v1165h172v-1421h-219l-545 1165v-1165h-169v1421z" />
    <glyph glyph-name="Xi" unicode="&#x39e;" 
d="M82 172h1067v-172h-1067v172zM170 825h891v-172h-891v172zM98 1421h1035v-172h-1035v172z" />
    <glyph glyph-name="Omicron" unicode="&#x39f;" 
d="M616 1290q-152 0 -240.5 -154t-88.5 -425q0 -270 88.5 -424t240.5 -154q153 0 241.5 154.5t88.5 423.5q0 270 -88.5 424.5t-241.5 154.5zM90 711q0 352 140 550.5t386 198.5t386.5 -199.5t140.5 -549.5q0 -351 -140.5 -550.5t-386.5 -199.5t-386 199t-140 551z" />
    <glyph glyph-name="Pi" unicode="&#x3a0;" 
d="M141 1421h949v-1421h-189v1249h-569v-1249h-191v1421z" />
    <glyph glyph-name="Rho" unicode="&#x3a1;" 
d="M610 774q167 0 233 55t66 183q0 125 -64.5 180t-219.5 55h-252v-473h237zM184 1421h492q212 0 321 -104t109 -305q0 -119 -46 -209.5t-134 -145.5q-52 -31 -120.5 -44t-223.5 -13h-209v-600h-189v1421z" />
    <glyph glyph-name="Sigma" unicode="&#x3a3;" 
d="M1092 1421v-172h-670l385 -514l-420 -563h721v-172h-948v152l440 583l-410 539v147h902z" />
    <glyph glyph-name="Tau" unicode="&#x3a4;" 
d="M522 1249h-432v172h1051v-172h-430v-1249h-189v1249z" />
    <glyph glyph-name="Upsilon" unicode="&#x3a5;" 
d="M532 0v563l-487 860h227l355 -673l350 673h213l-467 -848v-575h-191z" />
    <glyph glyph-name="Phi" unicode="&#x3a6;" 
d="M707 1106v-791q145 13 218.5 112t73.5 284q0 184 -73.5 283.5t-218.5 111.5zM526 315v791q-146 -12 -219.5 -111.5t-73.5 -283.5q0 -185 73.5 -284t219.5 -112zM526 170q-222 15 -345.5 157.5t-123.5 383.5q0 239 123.5 381t345.5 159v170h181v-170q222 -17 345.5 -159
t123.5 -381q0 -240 -123.5 -382t-345.5 -159v-170h-181v170z" />
    <glyph glyph-name="Chi" unicode="&#x3a7;" 
d="M518 729l-420 694h215l308 -526l313 526h207l-422 -692l444 -731h-217l-332 575l-325 -575h-215z" />
    <glyph glyph-name="Psi" unicode="&#x3a8;" 
d="M524 281q-262 14 -359 139t-97 532v469h180v-481q0 -330 56.5 -412t209.5 -82h10v975h183v-975h10q155 0 211.5 83t56.5 411v481h180v-469q0 -406 -98 -531.5t-360 -139.5v-281h-183v281z" />
    <glyph glyph-name="uni03A9" unicode="&#x3a9;" 
d="M74 0v172h245q-123 134 -178 278t-55 332q0 311 144 494.5t384 183.5q242 0 386.5 -183t144.5 -495q0 -188 -55.5 -332.5t-178.5 -277.5h248v-172h-463v172q120 76 187 240.5t67 386.5q0 230 -90 362.5t-244 132.5t-243.5 -132.5t-89.5 -362.5q0 -222 67 -386.5
t187 -240.5v-172h-463z" />
    <glyph glyph-name="Iotadieresis" unicode="&#x3aa;" 
d="M522 1249h-262v172h713v-172h-262v-1077h262v-172h-713v172h262v1077zM692 1840h182v-211h-182v211zM362 1840h183v-211h-183v211z" />
    <glyph glyph-name="Upsilondieresis" unicode="&#x3ab;" 
d="M532 0v563l-487 860h227l355 -673l350 673h213l-467 -848v-575h-191zM692 1840h182v-211h-182v211zM362 1840h183v-211h-183v211z" />
    <glyph glyph-name="alphatonos" unicode="&#x3ac;" 
d="M1047 1100v-801q0 -124 19.5 -156t72.5 -32h16v-134q-31 -8 -56 -12t-48 -4q-90 0 -136.5 50.5t-46.5 148.5v6q-63 -106 -139 -155.5t-176 -49.5q-194 0 -311 159.5t-117 430.5q0 270 116.5 429t311.5 159q102 0 180.5 -51t136.5 -156v168h177zM584 977
q-128 0 -201.5 -113t-73.5 -313q0 -202 74.5 -315t206.5 -113t204 111.5t72 316.5q0 207 -72.5 316.5t-209.5 109.5zM745 1597h201l-284 -348h-121z" />
    <glyph glyph-name="epsilontonos" unicode="&#x3ad;" 
d="M1012 766h-168q-10 118 -57.5 167.5t-149.5 49.5q-106 0 -166.5 -46.5t-60.5 -125.5q0 -73 60 -118.5t159 -45.5h106v-151h-98q-135 0 -198.5 -43.5t-63.5 -135.5q0 -94 67 -147t187 -53q123 0 189 57t81 178h174q-18 -190 -136.5 -290.5t-324.5 -100.5q-195 0 -305 92.5
t-110 255.5q0 89 43 154t137 119q-70 47 -105.5 109t-35.5 136q0 133 106.5 221.5t271.5 88.5q192 0 295 -91t103 -262v-18zM745 1597h201l-284 -348h-121z" />
    <glyph glyph-name="etatonos" unicode="&#x3ae;" 
d="M1075 668v-1094h-182v1112q0 163 -46 227t-153 64q-138 0 -216.5 -90.5t-78.5 -251.5v-635h-180v797q0 126 -20.5 158t-75.5 32h-19v133q34 9 58.5 13t46.5 4q92 0 138 -51.5t46 -153.5q54 103 136 155t192 52t188.5 -38t120.5 -112q24 -42 34.5 -97t10.5 -169v-55z
M745 1597h201l-284 -348h-121z" />
    <glyph glyph-name="iotatonos" unicode="&#x3af;" 
d="M338 948v152h369v-854q0 -73 32.5 -103t110.5 -30q23 0 52 2.5t64 7.5l1 -133q-53 -14 -103.5 -21.5t-97.5 -7.5q-137 0 -188.5 62t-51.5 245v680h-188zM745 1597h201l-284 -348h-121z" />
    <glyph glyph-name="upsilondieresistonos" unicode="&#x3b0;" 
d="M188 1100h183v-586q0 -237 52 -314t193 -77q142 0 194 77t52 314v586h180v-582q0 -184 -12.5 -260.5t-42.5 -128.5q-46 -80 -142.5 -124t-228.5 -44t-228.5 44t-141.5 124q-31 54 -44.5 133.5t-13.5 255.5v582zM786 1430h160v-181h-160v181zM713 1597l-29 -348h-133
l-31 348h193zM289 1430h160v-181h-160v181z" />
    <glyph glyph-name="alpha" unicode="&#x3b1;" 
d="M1047 1100v-801q0 -124 19.5 -156t72.5 -32h16v-134q-31 -8 -56 -12t-48 -4q-90 0 -136.5 50.5t-46.5 148.5v6q-63 -106 -139 -155.5t-176 -49.5q-194 0 -311 159.5t-117 430.5q0 270 116.5 429t311.5 159q102 0 180.5 -51t136.5 -156v168h177zM584 977
q-128 0 -201.5 -113t-73.5 -313q0 -202 74.5 -315t206.5 -113t204 111.5t72 316.5q0 207 -72.5 316.5t-209.5 109.5z" />
    <glyph glyph-name="beta" unicode="&#x3b2;" 
d="M524 688v139h86q126 0 202.5 70.5t76.5 185.5q0 112 -65 174t-181 62q-134 0 -199 -78.5t-65 -241.5v-487q0 -205 76.5 -305.5t232.5 -100.5q125 0 195.5 75t70.5 208q0 148 -80.5 223.5t-238.5 75.5h-111zM379 111v-537h-176v1274q0 195 12 276t41 133
q57 102 160.5 157.5t234.5 55.5q176 0 290 -104t114 -262q0 -112 -47.5 -191.5t-141.5 -126.5q130 -42 199.5 -141t69.5 -242q0 -205 -113.5 -324.5t-308.5 -119.5q-89 0 -173.5 38.5t-160.5 113.5z" />
    <glyph glyph-name="gamma" unicode="&#x3b3;" 
d="M281 748q-9 21 -25 58q-70 169 -164 169q-1 0 -12.5 -1.5t-21.5 -2.5l-1 147q30 9 58 14t51 5q78 0 125 -42t117 -206l239 -563l318 774h184l-414 -998v-528h-178v528z" />
    <glyph glyph-name="delta" unicode="&#x3b4;" 
d="M754 870q-55 7 -75.5 9t-31.5 2q-167 0 -263.5 -101t-96.5 -276q0 -173 92 -278t242 -105q154 0 247 105.5t93 281.5q0 129 -50 215.5t-157 146.5zM205 1470h823v-151h-559q191 -134 291.5 -209.5t165.5 -132.5q105 -94 159 -213.5t54 -257.5q0 -233 -148.5 -389
t-367.5 -156q-227 0 -372 153t-145 394q0 226 136.5 366t357.5 140h16q-118 89 -218.5 164t-192.5 141v151z" />
    <glyph glyph-name="epsilon" unicode="&#x3b5;" 
d="M1012 766h-168q-10 118 -57.5 167.5t-149.5 49.5q-106 0 -166.5 -46.5t-60.5 -125.5q0 -73 60 -118.5t159 -45.5h106v-151h-98q-135 0 -198.5 -43.5t-63.5 -135.5q0 -94 67 -147t187 -53q123 0 189 57t81 178h174q-18 -190 -136.5 -290.5t-324.5 -100.5q-195 0 -305 92.5
t-110 255.5q0 89 43 154t137 119q-70 47 -105.5 109t-35.5 136q0 133 106.5 221.5t271.5 88.5q192 0 295 -91t103 -262v-18z" />
    <glyph glyph-name="zeta" unicode="&#x3b6;" 
d="M387 1470h735v-127q-290 -166 -460 -411t-170 -488q0 -95 23 -159t69 -92q32 -20 77 -28.5t142 -8.5h37h48q129 -2 189 -50.5t60 -152.5q0 -73 -25 -171t-72 -208h-157q47 113 68.5 185.5t21.5 117.5q0 59 -27 82t-98 23h-60q-246 0 -362.5 106t-116.5 332q0 229 132 456
t390 443h-444v151z" />
    <glyph glyph-name="eta" unicode="&#x3b7;" 
d="M1075 668v-1094h-182v1112q0 163 -46 227t-153 64q-138 0 -216.5 -90.5t-78.5 -251.5v-635h-180v797q0 126 -20.5 158t-75.5 32h-19v133q34 9 58.5 13t46.5 4q92 0 138 -51.5t46 -153.5q54 103 136 155t192 52t188.5 -38t120.5 -112q24 -42 34.5 -97t10.5 -169v-55z" />
    <glyph glyph-name="theta" unicode="&#x3b8;" 
d="M614 1468q243 0 362.5 -186.5t119.5 -566.5q0 -381 -119.5 -567.5t-362.5 -186.5q-242 0 -360.5 186.5t-118.5 567.5t118.5 567t360.5 186zM316 668q4 -287 76 -419t222 -132q151 0 223 131.5t78 419.5h-599zM915 819q-7 258 -79 375t-222 117q-148 0 -219.5 -116.5
t-79.5 -375.5h600z" />
    <glyph glyph-name="iota" unicode="&#x3b9;" 
d="M338 948v152h369v-854q0 -73 32.5 -103t110.5 -30q23 0 52 2.5t64 7.5l1 -133q-53 -14 -103.5 -21.5t-97.5 -7.5q-137 0 -188.5 62t-51.5 245v680h-188z" />
    <glyph glyph-name="kappa" unicode="&#x3ba;" 
d="M260 1100h180v-434l449 434h229l-411 -398l467 -702h-216l-374 578l-144 -138v-440h-180v1100z" />
    <glyph glyph-name="lambda" unicode="&#x3bb;" 
d="M1212 154v-152q-30 -9 -55 -13.5t-47 -4.5q-176 0 -299 315l-8 20l-189 482l-301 -801h-188l395 1026l-53 139l-2 5q-53 135 -146 135q-10 0 -22.5 -1t-38.5 -3v151q24 9 49 13.5t51 4.5q177 0 299 -311l11 -26l336 -845q2 -6 9 -22q47 -119 138 -119q13 0 34.5 3t26.5 4
z" />
    <glyph glyph-name="uni03BC" unicode="&#x3bc;" 
d="M193 -426v1526h174v-613q0 -195 59 -282.5t188 -87.5q134 0 193 91t59 300v592h183v-809q0 -117 19.5 -147.5t72.5 -30.5h22v-133q-28 -8 -54 -11.5t-52 -3.5q-83 0 -127.5 40t-55.5 124q-51 -82 -114.5 -124t-134.5 -42q-72 0 -135 34.5t-123 106.5v-530h-174z" />
    <glyph glyph-name="nu" unicode="&#x3bd;" 
d="M115 1100h188l315 -887l310 887h186l-401 -1100h-191z" />
    <glyph glyph-name="xi" unicode="&#x3be;" 
d="M272 1323v152h797v-152h-186q-236 0 -311.5 -52.5t-75.5 -185.5q0 -118 93.5 -176.5t280.5 -58.5h136v-150h-156q-221 0 -327.5 -67.5t-106.5 -208.5q0 -87 43 -148t125 -90q46 -17 258 -20h28q149 -3 210 -49.5t61 -153.5q0 -70 -25.5 -170t-73.5 -215h-157
q42 98 66 181t24 128q0 58 -29.5 82.5t-101.5 24.5q-1 0 -4 -1q-10 -1 -21 -1q-302 0 -446 102t-144 316q0 135 71 228t218 150q-106 54 -154.5 121t-48.5 158q0 76 33 141t96 115h-172z" />
    <glyph glyph-name="omicron" unicode="&#x3bf;" 
d="M1096 549q0 -281 -125.5 -434.5t-354.5 -153.5q-228 0 -352.5 153.5t-124.5 434.5q0 282 125 436t352 154q228 0 354 -154.5t126 -435.5zM616 979q-141 0 -216.5 -111t-75.5 -317q0 -207 76 -318.5t216 -111.5q141 0 217 111.5t76 318.5t-75.5 317.5t-217.5 110.5z" />
    <glyph glyph-name="pi" unicode="&#x3c0;" 
d="M80 1100h1073v-148h-141v-704q0 -72 24.5 -103.5t79.5 -31.5q15 0 37 2.5t29 3.5v-133q-35 -13 -72 -19t-74 -6q-113 0 -159 65.5t-46 241.5v684h-428v-952h-180v952h-143v148z" />
    <glyph glyph-name="rho" unicode="&#x3c1;" 
d="M346 111v-539h-174v956q0 298 123 454.5t356 156.5q229 0 353 -154t124 -436q0 -278 -125.5 -433t-351.5 -155q-99 0 -174 37t-131 113zM649 979q-140 0 -215.5 -110.5t-75.5 -317.5q0 -208 75.5 -319t215.5 -111q141 0 217 111.5t76 318.5t-75.5 317.5t-217.5 110.5z
" />
    <glyph glyph-name="sigma1" unicode="&#x3c2;" 
d="M801 -426q42 113 66 200t24 130q0 97 -201 136q-40 8 -63 13q-7 2 -19 4q-199 43 -280 113q-75 65 -117.5 178t-42.5 248q0 241 138 392t358 151q199 0 317 -117t123 -321l-182 -1q-14 138 -78 207.5t-176 69.5q-138 0 -222 -101.5t-84 -269.5q0 -165 69.5 -251
t246.5 -128l28 -6q367 -83 367 -270q0 -72 -27.5 -173.5t-76.5 -203.5h-168z" />
    <glyph glyph-name="sigma" unicode="&#x3c3;" 
d="M989 948q51 -69 77 -169.5t26 -229.5q0 -279 -126 -433.5t-352 -154.5q-225 0 -352 155t-127 433q0 279 126 434.5t353 155.5q66 0 176 -19.5t154 -19.5h279v-152h-234zM612 979q-141 0 -217 -111t-76 -317q0 -207 76.5 -318.5t216.5 -111.5q141 0 217 111.5t76 318.5
t-75.5 317.5t-217.5 110.5z" />
    <glyph glyph-name="tau" unicode="&#x3c4;" 
d="M129 948v152h952v-152h-387v-702q0 -68 32 -100.5t97 -32.5q20 0 42.5 1.5t47.5 4.5v-133q-44 -13 -87 -19t-85 -6q-127 0 -177 63.5t-50 243.5v680h-385z" />
    <glyph glyph-name="upsilon" unicode="&#x3c5;" 
d="M188 1100h183v-586q0 -237 52 -314t193 -77q142 0 194 77t52 314v586h180v-582q0 -184 -12.5 -260.5t-42.5 -128.5q-46 -80 -142.5 -124t-228.5 -44t-228.5 44t-141.5 124q-31 54 -44.5 133.5t-13.5 255.5v582z" />
    <glyph glyph-name="phi" unicode="&#x3c6;" 
d="M533 1102q19 1 40.5 1.5t59.5 0.5q257 0 391.5 -142t134.5 -413q0 -246 -119 -389t-342 -164v-424h-166v424q-227 23 -342.5 166t-115.5 399q0 210 89.5 347.5t250.5 174.5v-174q-83 -32 -123.5 -121t-40.5 -237q0 -180 70.5 -278t211.5 -115zM698 944v-786
q142 17 212.5 115t70.5 278t-70.5 278t-212.5 115z" />
    <glyph glyph-name="chi" unicode="&#x3c7;" 
d="M328 786q-61 115 -94.5 142.5t-92.5 27.5q-9 0 -18 -0.5t-19 -1.5l1 140q29 11 56 16.5t54 5.5q70 0 117 -35.5t104 -140.5l213 -389l305 549h189l-400 -725l256 -477q61 -113 96 -141.5t91 -28.5q2 0 14.5 1.5t22.5 2.5v-142q-31 -11 -59 -16.5t-54 -5.5
q-124 0 -227 191v1l-242 447l-354 -633h-195l453 805z" />
    <glyph glyph-name="psi" unicode="&#x3c8;" 
d="M528 -12q-260 18 -357 128.5t-97 413.5v570h176v-570q0 -219 60.5 -297.5t217.5 -78.5v1212h177v-1212q157 0 217.5 78.5t60.5 297.5v570h176v-570q0 -302 -97.5 -413t-356.5 -129v-416h-177v416z" />
    <glyph glyph-name="omega" unicode="&#x3c9;" 
d="M705 852v-416q0 -156 37 -230.5t114 -74.5q80 0 131 102.5t51 266.5q0 158 -52 303t-165 297h187q103 -140 156 -293t53 -313q0 -237 -100.5 -385t-256.5 -148q-87 0 -149 48t-95 141q-32 -93 -95 -141t-150 -48q-157 0 -257 148t-100 385q0 157 54 311t157 295h185
q-113 -152 -165 -297t-52 -303q0 -164 51 -266.5t131 -102.5q78 0 115.5 75.5t37.5 229.5v416h177z" />
    <glyph glyph-name="iotadieresis" unicode="&#x3ca;" 
d="M338 948v152h369v-854q0 -73 32.5 -103t110.5 -30q23 0 52 2.5t64 7.5l1 -133q-53 -14 -103.5 -21.5t-97.5 -7.5q-137 0 -188.5 62t-51.5 245v680h-188zM692 1518h182v-211h-182v211zM362 1518h183v-211h-183v211z" />
    <glyph glyph-name="upsilondieresis" unicode="&#x3cb;" 
d="M188 1100h183v-586q0 -237 52 -314t193 -77q142 0 194 77t52 314v586h180v-582q0 -184 -12.5 -260.5t-42.5 -128.5q-46 -80 -142.5 -124t-228.5 -44t-228.5 44t-141.5 124q-31 54 -44.5 133.5t-13.5 255.5v582zM692 1518h182v-211h-182v211zM362 1518h183v-211h-183v211z
" />
    <glyph glyph-name="omicrontonos" unicode="&#x3cc;" 
d="M1096 549q0 -281 -125.5 -434.5t-354.5 -153.5q-228 0 -352.5 153.5t-124.5 434.5q0 282 125 436t352 154q228 0 354 -154.5t126 -435.5zM616 979q-141 0 -216.5 -111t-75.5 -317q0 -207 76 -318.5t216 -111.5q141 0 217 111.5t76 318.5t-75.5 317.5t-217.5 110.5z
M745 1597h201l-284 -348h-121z" />
    <glyph glyph-name="upsilontonos" unicode="&#x3cd;" 
d="M188 1100h183v-586q0 -237 52 -314t193 -77q142 0 194 77t52 314v586h180v-582q0 -184 -12.5 -260.5t-42.5 -128.5q-46 -80 -142.5 -124t-228.5 -44t-228.5 44t-141.5 124q-31 54 -44.5 133.5t-13.5 255.5v582zM745 1597h201l-284 -348h-121z" />
    <glyph glyph-name="omegatonos" unicode="&#x3ce;" 
d="M705 852v-416q0 -156 37 -230.5t114 -74.5q80 0 131 102.5t51 266.5q0 158 -52 303t-165 297h187q103 -140 156 -293t53 -313q0 -237 -100.5 -385t-256.5 -148q-87 0 -149 48t-95 141q-32 -93 -95 -141t-150 -48q-157 0 -257 148t-100 385q0 157 54 311t157 295h185
q-113 -152 -165 -297t-52 -303q0 -164 51 -266.5t131 -102.5q78 0 115.5 75.5t37.5 229.5v416h177zM745 1597h201l-284 -348h-121z" />
    <glyph glyph-name="uni0401" unicode="&#x401;" 
d="M362 1626v209h183v-209h-183zM692 1626v209h182v-209h-182zM186 0v1421h885v-172h-696v-426h635v-170h-635v-481h712v-172h-901z" />
    <glyph glyph-name="uni0402" unicode="&#x402;" 
d="M475 840q75 73 157.5 108t180.5 35q186 0 273.5 -119.5t87.5 -376.5q0 -254 -99 -391t-282 -137q-41 0 -79 6.5t-77 20.5v128q29 -6 58.5 -10t56.5 -4q124 0 177.5 76t53.5 256q0 221 -49 310t-166 89q-139 0 -216 -90.5t-77 -255.5v-485h-188v1249h-287v172h860v-172
h-385v-409z" />
    <glyph glyph-name="uni0403" unicode="&#x403;" 
d="M621 1567l204 348h201l-285 -348h-120zM274 1421h914v-172h-723v-1249h-191v1421z" />
    <glyph glyph-name="uni0404" unicode="&#x404;" 
d="M963 528h196q-29 -268 -163.5 -417.5t-346.5 -149.5q-246 0 -386 199t-140 551q0 353 140 551t386 198q193 0 323 -124t165 -343h-195q-32 142 -108.5 219.5t-184.5 77.5q-145 0 -234 -131.5t-89 -351.5h563v-162h-563q0 -232 89 -372t234 -140q125 0 207.5 103.5
t106.5 291.5z" />
    <glyph glyph-name="uni0405" unicode="&#x405;" 
d="M292 469q2 -155 92 -245.5t245 -90.5q140 0 224.5 70.5t84.5 187.5q0 58 -20 95.5t-68 70.5q-38 25 -207 70q-120 33 -192 55q-161 49 -231 132.5t-70 223.5q0 192 127 307t339 115q220 0 345.5 -122.5t125.5 -336.5v-4h-186q-11 142 -86.5 217.5t-206.5 75.5
q-121 0 -193.5 -61.5t-72.5 -163.5q0 -167 313 -245l27 -7q13 -3 37 -9q226 -55 301 -122q52 -46 79 -114.5t27 -155.5q0 -207 -136.5 -329t-368.5 -122q-237 0 -370.5 132t-144.5 376h186z" />
    <glyph glyph-name="uni0406" unicode="&#x406;" 
d="M522 172v1077h-262v172h713v-172h-262v-1077h262v-172h-713v172h262z" />
    <glyph glyph-name="uni0407" unicode="&#x407;" 
d="M360 1626v209h183v-209h-183zM690 1626v209h182v-209h-182zM522 172v1077h-262v172h713v-172h-262v-1077h262v-172h-713v172h262z" />
    <glyph glyph-name="uni0408" unicode="&#x408;" 
d="M780 471v950h187v-958q0 -265 -110.5 -383.5t-358.5 -118.5t-358.5 119.5t-110.5 386.5q0 30 3 91q1 8 1 11h184q0 -3 -1 -11q-3 -62 -3 -91q0 -177 67.5 -255.5t219.5 -78.5q153 0 216.5 75t63.5 263z" />
    <glyph glyph-name="uni0409" unicode="&#x409;" 
d="M791 170q116 0 180.5 64t64.5 180q0 113 -65 179t-176 66h-39v-489h35zM156 1421h600v-590h26q203 0 327 -112t124 -293q0 -198 -116.5 -312t-317.5 -114h-232v1255h-221v-866q0 -238 -57.5 -333t-196.5 -95q-21 0 -43 4t-49 13v163q16 -3 29 -4.5t24 -1.5
q58 0 80.5 40.5t22.5 162.5v1083z" />
    <glyph glyph-name="uni040A" unicode="&#x40a;" 
d="M791 170q120 0 182.5 65.5t62.5 190.5q0 111 -65.5 177.5t-175.5 66.5h-39v-500h35zM756 1421v-579h26q209 0 330 -114.5t121 -309.5q0 -191 -117.5 -304.5t-316.5 -113.5h-232v670h-344v-670h-188v1421h188v-579h344v579h189z" />
    <glyph glyph-name="uni040B" unicode="&#x40b;" 
d="M475 840q76 73 158 108t176 35q104 0 182 -39t119 -110q24 -42 34.5 -97t10.5 -170v-55v-512h-190v541q0 159 -44 219.5t-153 60.5q-140 0 -216.5 -87t-76.5 -249v-485h-188v1249h-287v172h860v-172h-385v-409z" />
    <glyph glyph-name="uni040C" unicode="&#x40c;" 
d="M539 1567l204 348h201l-285 -348h-120zM166 0v1421h188v-657l611 657h249l-559 -598l576 -823h-230l-477 686l-170 -180v-506h-188z" />
    <glyph glyph-name="uni040E" unicode="&#x40e;" 
d="M369 1880h141q5 -88 38.5 -129t100.5 -41t100.5 41t39.5 129h141q-11 -142 -79.5 -210t-201.5 -68q-132 0 -201.5 68.5t-78.5 209.5zM78 1423h215l352 -807l371 807h207l-576 -1212q-62 -132 -145.5 -192t-204.5 -60q-41 0 -86 6t-94 19v163q47 -9 83 -13.5t62 -4.5
q84 0 138 36.5t92 119.5l55 123z" />
    <glyph glyph-name="uni040F" unicode="&#x40f;" 
d="M139 1421h191v-1249h569v1249h188v-1421h-401v-301h-143v301h-404v1421z" />
    <glyph glyph-name="uni0410" unicode="&#x410;" 
d="M397 592h439l-220 627zM-6 0l518 1423h209l520 -1423h-192l-150 418h-567l-150 -418h-188z" />
    <glyph glyph-name="uni0411" unicode="&#x411;" 
d="M727 0h-534v1421h903v-172h-715v-418h278q255 0 387 -106t132 -311q0 -194 -119.5 -304t-331.5 -110zM705 170q136 0 206 61.5t70 180.5q0 129 -70.5 188t-224.5 59h-305v-489h324z" />
    <glyph glyph-name="uni0412" unicode="&#x412;" 
d="M655 170q136 0 206.5 61.5t70.5 180.5q0 129 -70.5 188t-224.5 59h-305v-489h323zM610 831q134 0 201.5 53.5t67.5 159.5q0 108 -60.5 157.5t-191.5 49.5h-295v-420h278zM872 768q127 -34 191.5 -122.5t64.5 -227.5q0 -196 -119 -307t-331 -111h-535v1421h506
q205 0 310.5 -90t105.5 -266q0 -104 -46 -175t-147 -122z" />
    <glyph glyph-name="uni0413" unicode="&#x413;" 
d="M274 1421h914v-172h-723v-1249h-191v1421z" />
    <glyph glyph-name="uni0414" unicode="&#x414;" 
d="M389 1421h623v-1249h164v-473h-160v301h-840v-301h-162v473h123q109 238 171 546t81 703zM549 1249q-21 -350 -77 -614t-150 -463h501v1077h-274z" />
    <glyph glyph-name="uni0415" unicode="&#x415;" 
d="M186 0v1421h885v-172h-696v-426h635v-170h-635v-481h712v-172h-901z" />
    <glyph glyph-name="uni0416" unicode="&#x416;" 
d="M20 1421h191l328 -630v630h151v-630l332 630h190l-348 -602l369 -819h-191l-272 676l-80 -148v-528h-151v528l-80 150l-269 -678h-190l365 819z" />
    <glyph glyph-name="uni0417" unicode="&#x417;" 
d="M848 748q133 -26 206.5 -112t73.5 -214q0 -201 -141 -331t-360 -130q-232 0 -370.5 122t-145.5 333h186q21 -136 105.5 -210.5t218.5 -74.5q135 0 224 78.5t89 198.5q0 122 -90.5 181.5t-276.5 59.5h-26v166h30q154 0 238 64t84 182q0 104 -69 166.5t-183 62.5
q-138 0 -217.5 -80.5t-85.5 -228.5h-188v25q0 200 132.5 327t340.5 127q204 0 333 -108t129 -277q0 -117 -60.5 -201t-176.5 -126z" />
    <glyph glyph-name="uni0418" unicode="&#x418;" 
d="M141 1421h191v-995l569 879v116h189v-1421h-189v1001l-569 -878v-123h-191v1421z" />
    <glyph glyph-name="uni0419" unicode="&#x419;" 
d="M336 1880h139q5 -88 38.5 -129t100.5 -41q68 0 102.5 41.5t39.5 128.5h141q-11 -142 -79.5 -210t-201.5 -68q-132 0 -201.5 69t-78.5 209zM141 1421h191v-995l569 879v116h189v-1421h-189v1001l-569 -878v-123h-191v1421z" />
    <glyph glyph-name="uni041A" unicode="&#x41a;" 
d="M166 0v1421h188v-657l611 657h249l-559 -598l576 -823h-230l-477 686l-170 -180v-506h-188z" />
    <glyph glyph-name="uni041B" unicode="&#x41b;" 
d="M190 1421h949v-1421h-191v1255h-569v-866q0 -214 -71.5 -322t-213.5 -108q-17 0 -40.5 4.5t-53.5 14.5v163q11 -2 23 -3t34 -1q73 0 103 44.5t30 156.5v1083z" />
    <glyph glyph-name="uni041C" unicode="&#x41c;" 
d="M104 0v1421h252l260 -1253l263 1253h247v-1421h-157v1290l-264 -1290h-177l-266 1290v-1290h-158z" />
    <glyph glyph-name="uni041D" unicode="&#x41d;" 
d="M141 0v1421h191v-579h569v579h189v-1421h-189v668h-569v-668h-191z" />
    <glyph glyph-name="uni041E" unicode="&#x41e;" 
d="M287 711q0 -270 88.5 -424t240.5 -154q153 0 241.5 153.5t88.5 424.5q0 270 -88.5 424.5t-241.5 154.5t-241 -154t-88 -425zM90 711q0 353 140 551t386 198t386.5 -199.5t140.5 -549.5q0 -351 -140.5 -550.5t-386.5 -199.5t-386 199t-140 551z" />
    <glyph glyph-name="uni041F" unicode="&#x41f;" 
d="M141 0v1421h949v-1421h-189v1249h-569v-1249h-191z" />
    <glyph glyph-name="uni0420" unicode="&#x420;" 
d="M625 1247h-252v-473h239q166 0 232.5 54.5t66.5 183.5q0 126 -65.5 180.5t-220.5 54.5zM582 600h-209v-600h-189v1421h439q131 0 193.5 -11.5t111.5 -39.5q86 -48 132 -140t46 -216t-45 -213t-135 -144q-51 -31 -119.5 -44t-224.5 -13z" />
    <glyph glyph-name="uni0421" unicode="&#x421;" 
d="M948 528h197q-29 -268 -163.5 -417.5t-346.5 -149.5q-247 0 -386.5 199t-139.5 551q0 353 139.5 551t386.5 198q193 0 322.5 -124t164.5 -343h-194q-32 142 -108.5 219.5t-184.5 77.5q-153 0 -241.5 -154t-88.5 -425q0 -270 88.5 -424t241.5 -154q125 0 207 103.5
t106 291.5z" />
    <glyph glyph-name="uni0422" unicode="&#x422;" 
d="M522 0v1249h-432v172h1051v-172h-430v-1249h-189z" />
    <glyph glyph-name="uni0423" unicode="&#x423;" 
d="M78 1423h215l352 -807l371 807h207l-576 -1212q-62 -132 -145.5 -192t-204.5 -60q-41 0 -86 6t-94 19v163q47 -9 83 -13.5t62 -4.5q84 0 138 36.5t92 119.5l55 123z" />
    <glyph glyph-name="uni0424" unicode="&#x424;" 
d="M711 1075v-743q152 17 240.5 116.5t88.5 253.5q0 161 -87.5 260t-241.5 113zM522 1421h189v-186q234 -27 377 -173.5t143 -359.5t-142.5 -358.5t-377.5 -171.5v-172h-189v172q-235 26 -377.5 171.5t-142.5 358.5t143 359.5t377 173.5v186zM522 1075q-154 -14 -241.5 -113
t-87.5 -260q0 -154 88.5 -253.5t240.5 -116.5v743z" />
    <glyph glyph-name="uni0425" unicode="&#x425;" 
d="M74 0l444 729l-420 694h215l308 -526l313 526h207l-422 -692l444 -731h-217l-332 575l-325 -575h-215z" />
    <glyph glyph-name="uni0426" unicode="&#x426;" 
d="M139 1421h191v-1249h569v1249h184v-1249h150v-473h-143v301h-951v1421z" />
    <glyph glyph-name="uni0427" unicode="&#x427;" 
d="M121 969v452h188v-465q0 -198 72 -297.5t215 -99.5q65 0 136.5 26.5t146.5 78.5v757h190v-1421h-190v485q-80 -49 -156 -73.5t-152 -24.5q-218 0 -334 150t-116 432z" />
    <glyph glyph-name="uni0428" unicode="&#x428;" 
d="M72 1421h190v-1249h260v1249h189v-1249h260v1249h190v-1421h-1089v1421z" />
    <glyph glyph-name="uni0429" unicode="&#x429;" 
d="M0 1421h190v-1249h259v1249h190v-1249h260v1249h184v-1249h150v-473h-143v301h-1090v1421z" />
    <glyph glyph-name="uni042A" unicode="&#x42a;" 
d="M782 0h-534v1249h-248v172h436v-590h279q254 0 386 -106t132 -311q0 -194 -119.5 -304t-331.5 -110zM760 170q136 0 206 61.5t70 180.5q0 129 -70.5 188t-224.5 59h-305v-489h324z" />
    <glyph glyph-name="uni042B" unicode="&#x42b;" 
d="M1016 1421h188v-1421h-188v1421zM428 0h-399v1421h188v-590h143q255 0 387 -106t132 -311q0 -194 -119.5 -304t-331.5 -110zM406 170q136 0 206 61.5t70 180.5q0 129 -70.5 188t-224.5 59h-170v-489h189z" />
    <glyph glyph-name="uni042C" unicode="&#x42c;" 
d="M713 0h-535v1421h191v-590h278q255 0 386.5 -106t131.5 -311q0 -193 -120 -303.5t-332 -110.5zM692 170q136 0 205.5 61t69.5 181q0 129 -70.5 188t-224.5 59h-303v-489h323z" />
    <glyph glyph-name="uni042D" unicode="&#x42d;" 
d="M291 528q24 -188 106 -291.5t207 -103.5q145 0 233.5 139.5t88.5 372.5h-564v162h564q0 221 -88.5 352t-233.5 131q-108 0 -184.5 -77.5t-108.5 -219.5h-194q35 219 164 343t321 124q247 0 386.5 -198t139.5 -551q0 -352 -139.5 -551t-386.5 -199q-211 0 -345 149.5
t-163 417.5h197z" />
    <glyph glyph-name="uni042E" unicode="&#x42e;" 
d="M559 711q0 -272 64.5 -425t177.5 -153q112 0 175.5 152.5t63.5 425.5q0 275 -63 427t-176 152t-177.5 -153.5t-64.5 -425.5zM373 668h-183v-668h-190v1421h190v-579h183q19 288 134 453t294 165q198 0 315 -201t117 -548t-117 -548.5t-315 -201.5q-194 0 -308 187.5
t-120 519.5z" />
    <glyph glyph-name="uni042F" unicode="&#x42f;" 
d="M637 1247q-155 0 -221 -54.5t-66 -180.5q0 -129 67 -183.5t232 -54.5h219v473h-231zM1057 0h-189v600h-194q-197 0 -246.5 -42t-56.5 -181l-11 -185q-4 -72 -13.5 -120.5t-22.5 -71.5h-215v39q28 15 43 52t20 112l14 229q10 131 44 184.5t112 77.5q-93 43 -140.5 125
t-47.5 197q0 97 29 175.5t85 131.5q57 54 135.5 76t268.5 22h20h365v-1421z" />
    <glyph glyph-name="uni0430" unicode="&#x430;" 
d="M825 385v174q-62 -36 -219 -58q-64 -10 -96 -16q-94 -17 -133 -58.5t-39 -121.5q0 -90 44.5 -135t133.5 -45q136 0 222.5 72.5t86.5 187.5zM846 143q-79 -87 -169.5 -131.5t-191.5 -44.5q-155 0 -241 85t-86 237q0 157 82 242t263 114q31 3 84 7q162 13 197 26
q28 14 37.5 35.5t9.5 97.5q0 86 -56 127t-173 41q-118 0 -177.5 -50t-59.5 -149h-162v8q0 164 108 257.5t297 93.5q205 0 301.5 -81t96.5 -251v-569q0 -68 14.5 -88.5t52.5 -20.5q7 0 18 1.5t25 4.5v-139q-28 -8 -52.5 -12t-47.5 -4q-85 0 -127.5 39.5t-42.5 117.5v6z" />
    <glyph glyph-name="uni0431" unicode="&#x431;" 
d="M324 551q0 -207 76 -318.5t216 -111.5q141 0 217 111.5t76 318.5q0 206 -75.5 317t-217.5 111q-141 0 -216.5 -110.5t-75.5 -317.5zM864 1528h143q-4 -60 -22.5 -102t-52.5 -70q-70 -57 -241 -76q-42 -5 -64 -8q-153 -22 -234.5 -98.5t-116.5 -229.5q59 99 142.5 147
t197.5 48q226 0 352 -155.5t126 -434.5q0 -278 -126 -433t-352 -155q-225 0 -351 155t-126 433q0 357 112 590.5t300 273.5q37 8 102 17q168 24 211 98z" />
    <glyph glyph-name="uni0432" unicode="&#x432;" 
d="M698 147q105 0 162.5 46.5t57.5 132.5q0 90 -58 134t-176 44h-293v-357h307zM657 651q103 0 157 39.5t54 114.5q0 73 -50 110t-150 37h-277v-301h266zM870 594q112 -25 171 -93t59 -171q0 -158 -106 -244t-300 -86h-483v1100h457q183 0 278.5 -70.5t95.5 -206.5
q0 -81 -41 -135.5t-131 -93.5z" />
    <glyph glyph-name="uni0433" unicode="&#x433;" 
d="M338 0v1100h752v-152h-572v-948h-180z" />
    <glyph glyph-name="uni0434" unicode="&#x434;" 
d="M389 1100h572v-948h141v-385h-156v233h-735v-233h-154v385h107q101 186 157 421.5t68 526.5zM543 948q-18 -248 -68.5 -444.5t-136.5 -351.5h442v796h-237z" />
    <glyph glyph-name="uni0435" unicode="&#x435;" 
d="M350 649h534q-1 162 -69 247t-197 85q-122 0 -195 -89.5t-73 -242.5zM350 498q0 -176 75.5 -275.5t207.5 -99.5q90 0 153.5 50.5t87.5 141.5h179q-34 -166 -151.5 -260t-291.5 -94q-204 0 -326 156.5t-122 421.5q0 281 121 440.5t333 159.5q217 0 337 -147.5t120 -413.5
q0 -33 -0.5 -50t-1.5 -30h-721z" />
    <glyph glyph-name="uni0436" unicode="&#x436;" 
d="M59 1100h181l295 -498v498h159v-498l299 498h181l-295 -467l305 -633h-172l-246 524l-72 -127v-397h-159v397l-74 127l-242 -524h-170l301 633z" />
    <glyph glyph-name="uni0437" unicode="&#x437;" 
d="M821 580q120 -20 187 -87.5t67 -168.5q0 -159 -126 -261t-324 -102q-199 0 -322.5 98t-128.5 258h170q17 -96 92.5 -149t194.5 -53q112 0 186 58t74 144q0 93 -80.5 137t-251.5 44h-12v135h28q131 0 206 49.5t75 134.5q0 76 -61.5 120t-167.5 44q-108 0 -174 -59
t-72 -160h-172v14q0 161 114.5 262t297.5 101q186 0 300.5 -85t114.5 -220q0 -90 -55 -155t-160 -99z" />
    <glyph glyph-name="uni0438" unicode="&#x438;" 
d="M188 1100h181v-770l495 680v90h178v-1100h-178v774l-495 -680v-94h-181v1100z" />
    <glyph glyph-name="uni0439" unicode="&#x439;" 
d="M336 1562h139q5 -87 38.5 -128t100.5 -41q68 0 102.5 41.5t39.5 127.5l141 1q-11 -143 -79.5 -211t-201.5 -68q-132 0 -201.5 69t-78.5 209zM188 1100h181v-770l495 680v90h178v-1100h-178v774l-495 -680v-94h-181v1100z" />
    <glyph glyph-name="uni043A" unicode="&#x43a;" 
d="M223 0v1100h180v-510l545 510h226l-504 -463l518 -637h-217l-422 526l-146 -135v-391h-180z" />
    <glyph glyph-name="uni043B" unicode="&#x43b;" 
d="M248 1100h854v-1100h-180v948h-494v-647q0 -168 -65 -251t-197 -83q-20 0 -43.5 4t-46.5 11v127q4 -1 9 -1q31 -4 44 -4q65 0 92 35t27 121v840z" />
    <glyph glyph-name="uni043C" unicode="&#x43c;" 
d="M141 0v1100h265l210 -930l211 930h265v-1100h-158v979l-232 -979h-172l-231 979v-979h-158z" />
    <glyph glyph-name="uni043D" unicode="&#x43d;" 
d="M188 0v1100h181v-441h495v441h178v-1100h-178v508h-495v-508h-181z" />
    <glyph glyph-name="uni043E" unicode="&#x43e;" 
d="M324 551q0 -207 76 -318.5t216 -111.5q141 0 217 111.5t76 318.5q0 206 -75.5 317t-217.5 111q-141 0 -216.5 -110.5t-75.5 -317.5zM139 549q0 278 126.5 434t350.5 156q226 0 352 -155.5t126 -434.5q0 -278 -126 -433t-352 -155q-224 0 -350.5 155.5t-126.5 432.5z" />
    <glyph glyph-name="uni043F" unicode="&#x43f;" 
d="M188 0v1100h854v-1100h-178v948h-495v-948h-181z" />
    <glyph glyph-name="uni0440" unicode="&#x440;" 
d="M362 930q59 108 135 158.5t181 50.5q196 0 312 -158.5t116 -429.5t-116.5 -430.5t-311.5 -159.5q-104 0 -178.5 48.5t-137.5 158.5v-594h-180v1526h180v-170zM647 123q128 0 201.5 113.5t73.5 314.5q0 200 -73.5 313t-201.5 113q-137 0 -209.5 -109.5t-72.5 -316.5
q0 -208 72.5 -318t209.5 -110z" />
    <glyph glyph-name="uni0441" unicode="&#x441;" 
d="M893 736q-5 114 -72 179.5t-180 65.5q-146 0 -222.5 -109.5t-76.5 -318.5q0 -206 73 -318t206 -112q119 0 192 70.5t88 199.5h172q-15 -205 -136 -318.5t-323 -113.5q-212 0 -334 156.5t-122 429.5q0 276 126 434t347 158q196 0 314 -108.5t126 -295.5z" />
    <glyph glyph-name="uni0442" unicode="&#x442;" 
d="M526 0v948h-383v152h947v-152h-383v-948h-181z" />
    <glyph glyph-name="uni0443" unicode="&#x443;" 
d="M932 1100h192l-446 -1241q-63 -174 -132 -229.5t-200 -55.5q-52 0 -95 4t-79 12v174q14 -3 40 -9q89 -21 126 -21q58 0 97 26t57 76l36 103l-417 1161h196l309 -905z" />
    <glyph glyph-name="uni0444" unicode="&#x444;" 
d="M702 762v-447q36 -91 79.5 -139.5t88.5 -48.5q82 0 130.5 116t48.5 318q0 193 -48.5 304.5t-130.5 111.5q-54 0 -96 -53.5t-72 -161.5zM530 1470h172v-518q38 93 88.5 140t114.5 47q147 0 237.5 -160.5t90.5 -429.5q0 -260 -90.5 -422t-229.5 -162q-65 0 -117 40t-94 122
v-553h-172v553q-42 -82 -93.5 -122t-117.5 -40q-138 0 -228.5 162t-90.5 422q0 269 90.5 429.5t237.5 160.5q64 0 115 -47t87 -140v518zM530 762q-29 108 -71 161.5t-97 53.5q-81 0 -129.5 -111.5t-48.5 -304.5q0 -203 47.5 -318.5t128.5 -115.5q47 0 91 49t79 139v447z" />
    <glyph glyph-name="uni0445" unicode="&#x445;" 
d="M324 0h-211l385 565l-365 535h213l268 -400l269 400h209l-371 -533l393 -567h-217l-291 428z" />
    <glyph glyph-name="uni0446" unicode="&#x446;" 
d="M178 1100h180v-948h494v948h180v-948h156v-385h-154v233h-856v1100z" />
    <glyph glyph-name="uni0447" unicode="&#x447;" 
d="M162 745v355h180v-340q0 -150 64 -228.5t186 -78.5q52 0 114.5 20t129.5 59v568h180v-1100h-180v373q-70 -38 -137.5 -57t-133.5 -19q-194 0 -298.5 116t-104.5 332z" />
    <glyph glyph-name="uni0448" unicode="&#x448;" 
d="M127 1100h180v-948h219v948h181v-948h219v948h180v-1100h-979v1100z" />
    <glyph glyph-name="uni0449" unicode="&#x449;" 
d="M96 1100h180v-948h220v948h180v-948h221v948h176v-948h160v-385h-156v233h-981v1100z" />
    <glyph glyph-name="uni044A" unicode="&#x44a;" 
d="M764 147q105 0 161 46.5t56 132.5q0 90 -58 134t-175 44h-291v-357h307zM758 0h-482v948h-223v152h404v-449h241q234 0 350.5 -80t116.5 -241q0 -156 -107 -243t-300 -87z" />
    <glyph glyph-name="uni044B" unicode="&#x44b;" 
d="M1008 1100h180v-1100h-180v1100zM483 147q105 0 161 46.5t56 132.5q0 90 -57.5 134t-175.5 44h-242v-357h258zM477 0h-432v1100h180v-449h193q233 0 350 -80t117 -241q0 -156 -107 -243t-301 -87z" />
    <glyph glyph-name="uni044C" unicode="&#x44c;" 
d="M713 147q104 0 160.5 46.5t56.5 132.5q0 90 -58 134t-176 44h-290v-357h307zM707 0h-482v1100h181v-449h241q234 0 350.5 -80t116.5 -241q0 -156 -107 -243t-300 -87z" />
    <glyph glyph-name="uni044D" unicode="&#x44d;" 
d="M322 408q19 -142 90.5 -213.5t191.5 -71.5q134 0 210.5 99t76.5 274h-502v141h502q0 151 -81 247.5t-206 96.5q-97 0 -164 -54t-96 -155h-178q32 172 148.5 269.5t289.5 97.5q223 0 349 -156.5t126 -433.5q0 -276 -126.5 -432t-348.5 -156q-190 0 -311.5 118t-147.5 329
h177z" />
    <glyph glyph-name="uni044E" unicode="&#x44e;" 
d="M399 508h-166v-508h-180v1100h180v-441h166q22 231 125 355.5t273 124.5q190 0 295.5 -155t105.5 -435q0 -279 -105.5 -433.5t-295.5 -154.5q-183 0 -286 141.5t-112 405.5zM580 549q0 -206 56 -317t161 -111q104 0 159.5 109.5t55.5 318.5t-55.5 319.5t-159.5 110.5
q-105 0 -161 -111t-56 -319z" />
    <glyph glyph-name="uni044F" unicode="&#x44f;" 
d="M625 952q-134 0 -196 -41t-62 -129q0 -93 62 -134.5t208 -41.5h188v346h-200zM1006 0h-181v459h-166q-176 0 -220.5 -33.5t-51.5 -141.5l-10 -134q-5 -62 -13 -98.5t-20 -51.5h-201v31q25 11 37.5 38.5t18.5 86.5l14 178q7 100 37.5 142.5t101.5 60.5q-86 35 -127 97
t-41 159q0 91 41.5 161t116.5 105q46 22 107 31.5t186 9.5h33h338v-1100z" />
    <glyph glyph-name="uni0451" unicode="&#x451;" 
d="M362 1307v211h183v-211h-183zM692 1307v211h182v-211h-182zM350 649h534q-1 162 -69 247t-197 85q-122 0 -195 -89.5t-73 -242.5zM350 498q0 -176 75.5 -275.5t207.5 -99.5q90 0 153.5 50.5t87.5 141.5h179q-34 -166 -151.5 -260t-291.5 -94q-204 0 -326 156.5
t-122 421.5q0 281 121 440.5t333 159.5q217 0 337 -147.5t120 -413.5q0 -33 -0.5 -50t-1.5 -30h-721z" />
    <glyph glyph-name="uni0452" unicode="&#x452;" 
d="M193 0v1247h-154v115h154v108h180v-108h323v-115h-323v-307q48 97 129.5 148t189.5 51q110 0 188.5 -38t120.5 -112q25 -41 35.5 -96t10.5 -170v-55v-623q0 -156 -62.5 -221.5t-210.5 -65.5q-24 0 -76 4h-6v143q12 0 24 -0.5t34 -0.5q69 0 92.5 24.5t23.5 118.5v639
q0 160 -46 225.5t-154 65.5q-139 0 -216 -90t-77 -252v-635h-180z" />
    <glyph glyph-name="uni0453" unicode="&#x453;" 
d="M588 1249l205 348h200l-282 -348h-123zM338 0v1100h752v-152h-572v-948h-180z" />
    <glyph glyph-name="uni0454" unicode="&#x454;" 
d="M915 408h179q-26 -211 -148.5 -329t-312.5 -118q-222 0 -347.5 155.5t-125.5 432.5q0 278 125 434t348 156q173 0 289.5 -97.5t148.5 -269.5h-178q-29 101 -96 155t-164 54q-122 0 -202 -95t-84 -249h503v-141l-504 -1q2 -175 78 -273.5t209 -98.5q120 0 191.5 71.5
t90.5 213.5z" />
    <glyph glyph-name="uni0455" unicode="&#x455;" 
d="M731 641q190 -46 260 -116t70 -201q0 -170 -119.5 -266.5t-331.5 -96.5q-206 0 -316 97.5t-113 283.5h173q10 -110 78.5 -165.5t194.5 -55.5q118 0 186 48.5t68 133.5q0 62 -34.5 95.5t-133.5 58.5l-201 49q-167 41 -237 111.5t-70 193.5q0 153 107.5 240.5t297.5 87.5
q191 0 304.5 -89t113.5 -239v-4h-176q-5 83 -69 130.5t-173 47.5q-110 0 -167.5 -41t-57.5 -119q0 -57 36.5 -88.5t135.5 -54.5z" />
    <glyph glyph-name="uni0456" unicode="&#x456;" 
d="M750 1470v-204h-191v204h191zM743 152h373v-152h-921v152h368v757h-282v154h462v-911z" />
    <glyph glyph-name="uni0457" unicode="&#x457;" 
d="M279 1307v211h182v-211h-182zM608 1307v211h183v-211h-183zM743 152h373v-152h-921v152h368v757h-282v154h462v-911z" />
    <glyph glyph-name="uni0458" unicode="&#x458;" 
d="M776 1470v-204h-180v204h180zM264 -256q48 -5 81 -7.5t56 -2.5q118 0 156.5 39t38.5 166v970h-283v154h463v-1139q0 -195 -73 -272.5t-254 -77.5q-37 0 -84 2t-101 6v162z" />
    <glyph glyph-name="uni0459" unicode="&#x459;" 
d="M141 1100h592v-449h33q234 0 350.5 -80t116.5 -241q0 -156 -107 -243t-301 -87h-272v948h-234v-647q0 -170 -58 -252t-179 -82q-18 0 -39 3.5t-43 11.5v126q20 -2 29.5 -3t15.5 -1q54 0 75 34t21 122v840zM831 147q105 0 161.5 46.5t56.5 132.5q0 90 -58 134t-176 44h-82
v-357h98z" />
    <glyph glyph-name="uni045A" unicode="&#x45a;" 
d="M831 147q106 0 162 46.5t56 134.5q0 91 -57.5 135.5t-176.5 44.5h-82v-361h98zM733 1100v-441h33q237 0 352 -81t115 -248q0 -156 -107 -243t-301 -87h-272v508h-287v-508h-180v1100h180v-441h287v441h180z" />
    <glyph glyph-name="uni045B" unicode="&#x45b;" 
d="M193 0v1247h-154v115h154v108h180v-108h323v-115h-323v-307q48 97 129.5 148t189.5 51q110 0 188.5 -38t120.5 -112q25 -41 35.5 -96t10.5 -170v-55v-668h-181v686q0 160 -46 225.5t-154 65.5q-139 0 -216 -90t-77 -252v-635h-180z" />
    <glyph glyph-name="uni045C" unicode="&#x45c;" 
d="M563 1249l205 348h201l-285 -348h-121zM238 0v1100h180v-510l545 510h225l-504 -463l518 -637h-217l-422 526l-145 -135v-391h-180z" />
    <glyph glyph-name="uni045E" unicode="&#x45e;" 
d="M338 1562h139q5 -87 38.5 -128t100.5 -41q68 0 102.5 41.5t39.5 127.5l139 1q-11 -143 -79.5 -211t-201.5 -68q-132 0 -200.5 69t-77.5 209zM932 1100h192l-446 -1241q-63 -174 -132 -229.5t-200 -55.5q-52 0 -95 4t-79 12v174q45 -10 87 -15t79 -5q62 0 99.5 22.5
t54.5 69.5l36 103l-417 1161h196l309 -905z" />
    <glyph glyph-name="uni045F" unicode="&#x45f;" 
d="M178 1100h180v-948h494v948h180v-1100h-348v-233h-156v233h-350v1100z" />
    <glyph glyph-name="uni0490" unicode="&#x490;" 
d="M274 1421h770v203h144v-375h-723v-1249h-191v1421z" />
    <glyph glyph-name="uni0491" unicode="&#x491;" 
d="M338 1100h596v155h156v-307h-572v-948h-180v1100z" />
    <glyph glyph-name="Wgrave" unicode="&#x1e80;" 
d="M229 0l-245 1423h168l176 -1210l198 1210h179l202 -1210l176 1210h164l-250 -1423h-172l-211 1233l-204 -1233h-181zM762 1571h-121l-285 348h201z" />
    <glyph glyph-name="wgrave" unicode="&#x1e81;" 
d="M453 0h-172l-271 1100h172l183 -934l161 934h179l161 -934l183 934h174l-271 -1100h-172l-164 934zM762 1249h-121l-285 348h201z" />
    <glyph glyph-name="Wacute" unicode="&#x1e82;" 
d="M229 0l-245 1423h168l176 -1210l198 1210h179l202 -1210l176 1210h164l-250 -1423h-172l-211 1233l-204 -1233h-181zM475 1571l205 348h201l-285 -348h-121z" />
    <glyph glyph-name="wacute" unicode="&#x1e83;" 
d="M453 0h-172l-271 1100h172l183 -934l161 934h179l161 -934l183 934h174l-271 -1100h-172l-164 934zM475 1249l205 348h201l-285 -348h-121z" />
    <glyph glyph-name="Wdieresis" unicode="&#x1e84;" 
d="M229 0l-245 1423h168l176 -1210l198 1210h179l202 -1210l176 1210h164l-250 -1423h-172l-211 1233l-204 -1233h-181zM692 1629v211h182v-211h-182zM362 1629v211h183v-211h-183z" />
    <glyph glyph-name="wdieresis" unicode="&#x1e85;" 
d="M453 0h-172l-271 1100h172l183 -934l161 934h179l161 -934l183 934h174l-271 -1100h-172l-164 934zM692 1307v211h182v-211h-182zM362 1307v211h183v-211h-183z" />
    <glyph glyph-name="Ygrave" unicode="&#x1ef2;" 
d="M723 0h-191v563l-487 860h227l355 -673l350 673h213l-467 -848v-575zM762 1571h-121l-285 348h201z" />
    <glyph glyph-name="ygrave" unicode="&#x1ef3;" 
d="M932 1100h192l-446 -1241q-62 -175 -131 -230t-201 -55q-60 0 -100 4t-74 12v174q53 -10 93 -15t73 -5q62 0 99 22t55 70l36 103l-417 1161h196l309 -905zM762 1249h-121l-285 348h201z" />
    <glyph glyph-name="endash" unicode="&#x2013;" 
d="M0 479v142h1233v-142h-1233z" />
    <glyph glyph-name="emdash" unicode="&#x2014;" 
d="M0 479v142h1233v-142h-1233z" />
    <glyph glyph-name="uni2015" unicode="&#x2015;" 
d="M154 479v142h925v-142h-925z" />
    <glyph glyph-name="underscoredbl" unicode="&#x2017;" 
d="M0 -131h1233v-119h-1233v119zM0 -365h1233v-118h-1233v118z" />
    <glyph glyph-name="quoteleft" unicode="&#x2018;" 
d="M733 1118v-256h-235v273q0 151 70 234.5t204 90.5v-114q-83 -11 -118.5 -56t-35.5 -141v-31h115z" />
    <glyph glyph-name="quoteright" unicode="&#x2019;" 
d="M500 1167v254h235v-272q0 -151 -70 -233.5t-204 -90.5v115q84 11 118.5 55t34.5 140v32h-114z" />
    <glyph glyph-name="quotesinglbase" unicode="&#x201a;" 
d="M518 0v254h236v-272q0 -152 -70.5 -235t-204.5 -91v117q84 10 119 54t35 140v33h-115z" />
    <glyph glyph-name="quotereversed" unicode="&#x201b;" 
d="M733 1118v-256h-235v273q0 151 70 234.5t204 90.5v-114q-83 -11 -118.5 -56t-35.5 -141v-31h115z" />
    <glyph glyph-name="quotedblleft" unicode="&#x201c;" 
d="M944 1118v-256h-235v273q0 151 70 234.5t204 90.5v-114q-83 -11 -118.5 -56t-35.5 -141v-31h115zM520 1118v-256h-233v273q0 151 70 234.5t204 90.5v-114q-84 -11 -119.5 -56t-35.5 -141v-31h114z" />
    <glyph glyph-name="quotedblright" unicode="&#x201d;" 
d="M309 1167v254h236v-272q0 -151 -70 -233.5t-205 -90.5v115q84 11 119 55t35 140v32h-115zM733 1167v254h236v-272q0 -151 -70 -233.5t-205 -90.5v115q84 11 119 55t35 140v32h-115z" />
    <glyph glyph-name="quotedblbase" unicode="&#x201e;" 
d="M301 0v254h234v-272q0 -152 -70.5 -235t-204.5 -91v117q85 10 120.5 54.5t35.5 139.5v33h-115zM723 0v254h235v-272q0 -152 -70 -235t-204 -91v117q84 10 119 54t35 140v33h-115z" />
    <glyph glyph-name="dagger" unicode="&#x2020;" 
d="M530 -268v1130h-366v156h366v403h172v-403h367v-156h-367v-1130h-172z" />
    <glyph glyph-name="daggerdbl" unicode="&#x2021;" 
d="M530 -268v405h-366v154h366v571h-366v156h366v403h172v-403h367v-156h-367v-571h367v-154h-367v-405h-172z" />
    <glyph glyph-name="bullet" unicode="&#x2022;" 
d="M457 684q0 67 46.5 114.5t112.5 47.5t113 -48t47 -114t-47 -113t-113 -47t-112.5 46.5t-46.5 113.5z" />
    <glyph glyph-name="ellipsis" unicode="&#x2026;" 
d="M887 102q0 58 40.5 99t98.5 41t99.5 -41t41.5 -99q0 -59 -41 -100t-100 -41q-58 0 -98.5 40.5t-40.5 100.5zM475 102q0 58 41 99t98 41q58 0 100 -41t42 -99q0 -59 -41 -100t-101 -41q-58 0 -98.5 40.5t-40.5 100.5zM63 102q0 58 41 99t99 41t99.5 -41t41.5 -99
q0 -59 -41 -100t-100 -41t-99.5 40.5t-40.5 100.5z" />
    <glyph glyph-name="perthousand" unicode="&#x2030;" 
d="M72 567l-37 97l1044 415l39 -96zM166 289q0 -69 48 -118.5t116 -49.5t117 49.5t49 118.5q0 67 -49.5 116.5t-116.5 49.5q-68 0 -116 -48.5t-48 -117.5zM45 289q0 120 83.5 203t201.5 83t202 -84t84 -202q0 -119 -84 -204t-202 -85t-201.5 83.5t-83.5 205.5zM121 1145
q0 -69 48.5 -117.5t117.5 -48.5q68 0 117 48.5t49 117.5q0 67 -49.5 116.5t-116.5 49.5q-68 0 -117 -48.5t-49 -117.5zM0 1145q0 119 84 203t203 84q118 0 202 -84.5t84 -202.5q0 -119 -84 -204t-202 -85q-119 0 -203 84t-84 205zM780 289q0 -69 49 -118.5t117 -49.5
t117 49.5t49 118.5q0 67 -49 116.5t-117 49.5t-117 -48.5t-49 -117.5zM659 289q0 119 84.5 202.5t202.5 83.5t202.5 -84t84.5 -202q0 -119 -84.5 -204t-202.5 -85t-202.5 84t-84.5 205z" />
    <glyph glyph-name="minute" unicode="&#x2032;" 
d="M467 879l98 471q13 64 35.5 88t63.5 24q33 0 58.5 -23.5t25.5 -56.5q0 -16 -6.5 -40t-16.5 -46l-184 -417h-74z" />
    <glyph glyph-name="second" unicode="&#x2033;" 
d="M311 879l99 471q12 64 34.5 88t63.5 24q34 0 59 -23.5t25 -56.5q0 -16 -6 -40t-17 -46l-184 -417h-74zM625 879l98 471q13 64 35 88t63 24q34 0 59 -23.5t25 -56.5q0 -16 -6 -40t-16 -46l-185 -417h-73z" />
    <glyph glyph-name="guilsinglleft" unicode="&#x2039;" 
d="M778 926v-193l-213 -182l213 -184v-193l-323 266v219z" />
    <glyph glyph-name="guilsinglright" unicode="&#x203a;" 
d="M455 926l323 -267v-219l-323 -266v193l213 184l-213 182v193z" />
    <glyph glyph-name="exclamdbl" unicode="&#x203c;" 
d="M725 0v305h285v-305h-285zM817 424l-49 582v417h201v-417l-47 -582h-105zM313 424l-47 582v417h201v-417l-49 -582h-105zM223 0v305h283v-305h-283z" />
    <glyph glyph-name="uni203E" unicode="&#x203e;" 
d="M348 1483h541v-142h-541v142z" />
    <glyph glyph-name="fraction" unicode="&#x2044;" 
d="M297 -190l494 1650h143l-496 -1650h-141z" />
    <glyph glyph-name="uni207F" unicode="&#x207f;" 
d="M236 545v878h155v-135q52 84 124 124t171 40q102 0 171 -29.5t108 -89.5q21 -32 30 -74.5t9 -132.5v-49v-532h-162v547q0 129 -41.5 180t-138.5 51q-125 0 -195 -72t-70 -200v-506h-161z" />
    <glyph glyph-name="franc" unicode="&#x20a3;" 
d="M672 762h-54q-42 0 -62.5 17.5t-20.5 51.5q0 37 20 55.5t59 18.5h152q27 0 41 -11t14 -32v-133q64 90 125.5 133t126.5 43q74 0 128 -39t54 -92q0 -37 -26.5 -65.5t-61.5 -28.5q-23 0 -73.5 28.5t-87.5 28.5q-45 0 -87.5 -33.5t-97.5 -113.5v-449h129q36 0 60 -19.5
t24 -47.5q0 -37 -22.5 -55.5t-67.5 -18.5h-330q-39 0 -59 18t-20 54q0 35 20.5 52t62.5 17h54v621zM401 141q37 0 54.5 -17t17.5 -52t-17.5 -53.5t-52.5 -18.5h-333q-34 0 -51 18t-17 54q0 35 17.5 52t54.5 17h63v901h-63q-36 0 -54 18t-18 54t17 54t51 18h641
q38 0 55.5 -16.5t17.5 -53.5q0 -34 -18.5 -54t-50.5 -20h-422v-358h205q39 0 56 -15t17 -48q0 -31 -17.5 -47.5t-51.5 -16.5h-209v-416h108z" />
    <glyph glyph-name="lira" unicode="&#x20a4;" 
d="M252 -25l-98 140q124 98 185.5 188.5t61.5 175.5v17h-258v114h219q-8 17 -29 54.5t-32 58.5h-158v115h101q-24 47 -35.5 95t-11.5 97q0 170 133 286t336 116q212 0 338 -113.5t126 -304.5v-25q0 -8 -2 -16h-182v16q0 134 -73 206.5t-207 72.5q-125 0 -199 -64.5
t-74 -171.5q0 -41 12 -89t37 -105h383v-115h-310q8 -23 17.5 -50.5t20.5 -62.5h272v-114l-256 -1q-4 -80 -54.5 -163.5t-147.5 -171.5q51 25 106 37t127 12q71 0 175.5 -34t142.5 -34t75.5 13t91.5 47l82 -135q-62 -52 -124 -76.5t-132 -24.5q-41 0 -80 7.5t-92 27.5l-94 37
q-34 12 -64 18t-57 6q-74 0 -143.5 -21.5t-128.5 -64.5z" />
    <glyph glyph-name="peseta" unicode="&#x20a7;" 
d="M340 1042v-464h22q110 0 175 63.5t65 169.5q0 104 -64 168.5t-167 64.5q-5 0 -15.5 -1t-15.5 -1zM430 141q48 0 70 -16.5t22 -52.5q0 -40 -21 -56t-79 -16h-309q-34 0 -52 18.5t-18 53.5t17.5 52t54.5 17h69v901h-10q-88 0 -109.5 15.5t-21.5 56.5q0 35 18 53.5t52 18.5
h161q233 0 354.5 -78t139.5 -240h74v258q0 42 20 63t60 21q44 0 60.5 -25t16.5 -114v-203h97q49 0 71.5 -17t22.5 -54q0 -35 -21 -52.5t-63 -17.5h-107v-334q0 -167 17 -213.5t63 -60.5q13 -4 37 -7q64 -8 64 -55q0 -42 -22.5 -62t-70.5 -20q-142 0 -193.5 73t-51.5 345v334
h-78q-36 -138 -140 -209.5t-270 -71.5h-14v-305h90z" />
    <glyph glyph-name="Euro" unicode="&#x20ac;" 
d="M973 510h196q-33 -258 -168 -403.5t-342 -145.5q-213 0 -347 150t-169 428h-157l53 116h96v27v39v47h-178l51 115h135q35 277 169 427t347 150q195 0 323.5 -123.5t162.5 -343.5h-193q-31 142 -108 219.5t-185 77.5q-126 0 -213.5 -111t-103.5 -296h510l-53 -115h-469
q-1 -15 -1.5 -30t-0.5 -36v-5q2 -23 2 -42h420l-52 -116h-360q26 -192 111 -299t210 -107q121 0 204 99.5t110 277.5z" />
    <glyph glyph-name="uni2105" unicode="&#x2105;" 
d="M578 1364q-4 89 -50.5 137.5t-128.5 48.5q-94 0 -145 -83.5t-51 -239.5q0 -158 50 -240t146 -82q78 0 126 56t53 151h136q-9 -150 -95 -233.5t-230 -83.5q-151 0 -238.5 114.5t-87.5 315.5q0 202 91 318t247 116q139 0 223.5 -79.5t90.5 -215.5h-137zM96 500l-22 114
l1085 265l27 -111zM684 162q0 -154 49 -238t137 -84q90 0 137.5 82.5t47.5 239.5t-47.5 240t-137.5 83q-88 0 -137 -84.5t-49 -238.5zM543 162q0 204 87 319t240 115q154 0 240 -114.5t86 -319.5q0 -206 -85.5 -319t-240.5 -113q-154 0 -240.5 114t-86.5 318z" />
    <glyph glyph-name="uni2113" unicode="&#x2113;" 
d="M545 279q24 -93 50.5 -125.5t74.5 -32.5q38 0 70 19t69 65q4 5 11 14q40 49 75 49q23 0 41 -19.5t18 -43.5q0 -72 -96.5 -151t-218.5 -79q-81 0 -136 48.5t-83 144.5q-116 -105 -194 -156t-122 -51q-26 0 -39.5 13.5t-13.5 39.5q0 38 119.5 123t208.5 170
q-18 80 -27.5 161t-9.5 163q0 294 119.5 485t290.5 191q94 0 152.5 -68.5t58.5 -179.5q0 -173 -108 -375t-310 -405zM510 428q143 173 219 333t76 286q0 54 -22.5 87t-57.5 33q-87 0 -160 -166.5t-73 -408.5q0 -30 4.5 -71.5t13.5 -92.5z" />
    <glyph glyph-name="uni2116" unicode="&#x2116;" 
d="M4 1421h141l340 -1001v1001h146v-1421h-139l-342 1001v-1001h-146v1421zM979 1260q118 0 184 -103t66 -289q0 -185 -66.5 -289t-183.5 -104q-118 0 -184 103.5t-66 289.5t66 289t184 103zM979 1149q-57 0 -89 -74t-32 -207q0 -132 32.5 -207t88.5 -75t88.5 75t32.5 207
q0 133 -32.5 207t-88.5 74zM748 309h460v-110h-460v110z" />
    <glyph glyph-name="trademark" unicode="&#x2122;" 
d="M221 1058q-2 -42 -14 -57.5t-41 -15.5q-27 0 -38 15.5t-11 52.5v10l4 145q0 25 14.5 39.5t38.5 14.5h338q24 0 38 -14.5t15 -38.5l6 -146v-27q0 -22 -14.5 -36.5t-36.5 -14.5q-28 0 -39.5 15t-13.5 58l-4 93h-66v-350h37q39 0 54.5 -12.5t15.5 -43.5q0 -23 -14.5 -39
t-36.5 -16h-220q-22 0 -36.5 15.5t-14.5 39.5q0 31 15.5 43.5t56.5 12.5h35v350h-66zM860 993l62 219q6 24 22.5 36t42.5 12h66q22 0 35.5 -15t13.5 -39q0 -21 -11.5 -34.5t-33.5 -18.5l10 -352q28 -4 40.5 -17t12.5 -39q0 -24 -14.5 -39.5t-36.5 -15.5h-108q-33 0 -49.5 14
t-16.5 41q0 28 16.5 42t49.5 14h8v282l-51 -188q-9 -27 -21.5 -38t-36.5 -11t-37.5 11t-21.5 38l-51 188v-282h8q35 0 51 -13.5t16 -42.5q0 -27 -15.5 -41t-47.5 -14h-109q-23 0 -37 15t-14 40q0 27 12.5 40t38.5 16l10 352q-22 5 -32 18t-10 35q0 24 13.5 39t35.5 15h63
q27 0 44.5 -12.5t23.5 -35.5z" />
    <glyph glyph-name="Omega" unicode="&#x2126;" 
d="M852 274v-155h152v49q0 56 13.5 71t47.5 15q33 0 47 -18t14 -68v-84q0 -53 -18.5 -68.5t-73.5 -15.5h-196q-94 0 -109.5 13.5t-15.5 88.5v166q0 28 6 44t24 36q17 18 50 51q155 154 155 306q0 161 -92 262.5t-238 101.5q-152 0 -243.5 -99t-91.5 -263q0 -153 161 -313
q12 -13 19 -19q39 -39 47 -58.5t8 -64.5v-23v-127q0 -75 -15.5 -88.5t-107.5 -13.5h-196q-56 0 -75.5 16.5t-19.5 67.5v84q0 48 15 67t49 19t47.5 -15t13.5 -71v-49h152v155q-153 105 -217 206t-64 237q0 213 143 350t369 137q233 0 377 -134.5t144 -346.5q0 -134 -64 -237
t-217 -212z" />
    <glyph glyph-name="estimated" unicode="&#x212e;" 
d="M842 715v33q0 208 -56 313.5t-165 105.5q-115 0 -169.5 -105t-62.5 -347h453zM387 606v-45q0 -241 62 -366t182 -125q101 0 163 94t68 258h215q-9 -220 -128.5 -341.5t-325.5 -121.5q-237 0 -358.5 165.5t-121.5 489.5q0 334 120.5 498t365.5 164q230 0 345.5 -154
t115.5 -460v-56h-703z" />
    <glyph glyph-name="oneeighth" unicode="&#x215b;" 
d="M725 205q-63 23 -94 66t-31 108q0 96 80.5 156.5t210.5 60.5q132 0 213.5 -60.5t81.5 -156.5q0 -63 -31 -106.5t-94 -67.5q75 -22 116.5 -77t41.5 -134q0 -120 -88.5 -192t-239.5 -72q-149 0 -236.5 71.5t-87.5 192.5q0 79 41 134t117 77zM737 371q0 -56 43.5 -91.5
t112.5 -35.5q70 0 113 35.5t43 91.5q0 57 -41.5 89t-114.5 32q-72 0 -114 -33t-42 -88zM711 -2q0 -72 49 -115t133 -43q86 0 135 42.5t49 115.5q0 67 -49 106t-135 39q-84 0 -133 -39t-49 -106zM397 805v606h-264l1 86q142 2 211.5 40t82.5 122h111v-854h-142zM96 500
l-22 114l1085 265l27 -111z" />
    <glyph glyph-name="threeeighths" unicode="&#x215c;" 
d="M711 -2q0 -72 49 -115t133 -43q86 0 135 42.5t49 115.5q0 67 -49 106t-135 39q-84 0 -133 -39t-49 -106zM737 371q0 -56 43.5 -91.5t112.5 -35.5q70 0 113 35.5t43 91.5q0 57 -41.5 89t-114.5 32q-72 0 -114 -33t-42 -88zM725 205q-63 23 -94 66t-31 108q0 96 80.5 156.5
t210.5 60.5q132 0 213.5 -60.5t81.5 -156.5q0 -63 -31 -106.5t-94 -67.5q75 -22 116.5 -77t41.5 -134q0 -120 -88.5 -192t-239.5 -72q-149 0 -236.5 71.5t-87.5 192.5q0 79 41 134t117 77zM96 500l-22 114l1085 265l27 -113zM59 1081h136q0 -3 1 -9t1 -9q0 -67 53 -112.5
t137 -45.5q87 0 137.5 42t50.5 114q0 69 -49 105t-145 36h-9q-26 -2 -48 -2v107h59q81 0 120.5 31.5t39.5 97.5q0 54 -42.5 86t-115.5 32q-81 0 -125.5 -41t-44.5 -116v-15h-135v4q0 129 82 201t229 72q136 0 214.5 -61t78.5 -164q0 -61 -31 -104t-90 -64
q77 -22 116.5 -73.5t39.5 -129.5q0 -121 -93 -194.5t-249 -73.5q-144 0 -231 75.5t-87 198.5v12z" />
    <glyph glyph-name="fiveeighths" unicode="&#x215d;" 
d="M57 1040h127q8 -62 60.5 -100.5t130.5 -38.5q94 0 151.5 51.5t57.5 134.5q0 87 -56.5 139t-150.5 52q-54 0 -99.5 -19.5t-82.5 -58.5h-109l74 447h506v-99h-414l-39 -229q33 27 82 41t108 14q138 0 227 -78.5t89 -201.5q0 -133 -93.5 -214t-246.5 -81q-138 0 -226 66.5
t-96 174.5zM711 -2q0 -72 49 -115t133 -43q86 0 135 42.5t49 115.5q0 67 -49 106t-135 39q-84 0 -133 -39t-49 -106zM737 371q0 -56 43.5 -91.5t112.5 -35.5q70 0 113 35.5t43 91.5q0 57 -41.5 89t-114.5 32q-72 0 -114 -33t-42 -88zM725 205q-63 23 -94 66t-31 108
q0 96 80.5 156.5t210.5 60.5q132 0 213.5 -60.5t81.5 -156.5q0 -63 -31 -106.5t-94 -67.5q75 -22 116.5 -77t41.5 -134q0 -120 -88.5 -192t-239.5 -72q-149 0 -236.5 71.5t-87.5 192.5q0 79 41 134t117 77zM96 500l-22 114l1085 265l27 -113z" />
    <glyph glyph-name="seveneighths" unicode="&#x215e;" 
d="M250 801q32 215 125.5 395.5t253.5 339.5h-502v113h637v-105q-162 -164 -251.5 -342.5t-121.5 -400.5h-141zM711 -2q0 -72 49 -115t133 -43q86 0 135 42.5t49 115.5q0 67 -49 106t-135 39q-84 0 -133 -39t-49 -106zM737 371q0 -56 43.5 -91.5t112.5 -35.5q70 0 113 35.5
t43 91.5q0 57 -41.5 89t-114.5 32q-72 0 -114 -33t-42 -88zM725 205q-63 23 -94 66t-31 108q0 96 80.5 156.5t210.5 60.5q132 0 213.5 -60.5t81.5 -156.5q0 -63 -31 -106.5t-94 -67.5q75 -22 116.5 -77t41.5 -134q0 -120 -88.5 -192t-239.5 -72q-149 0 -236.5 71.5
t-87.5 192.5q0 79 41 134t117 77zM96 500l-22 114l1085 265l27 -113z" />
    <glyph glyph-name="arrowleft" unicode="&#x2190;" 
d="M283 696h837q29 0 44.5 -17t15.5 -48q0 -32 -16 -50t-44 -18h-837l306 -163q24 -12 36 -28.5t12 -37.5q0 -29 -19 -47.5t-49 -18.5q-12 0 -23 3t-22 10l-418 241q-27 16 -41 34t-14 40v70q0 21 14 39.5t41 33.5l418 242q10 5 21.5 7.5t23.5 2.5q29 0 48.5 -17t19.5 -42
q0 -23 -11 -39.5t-36 -30.5z" />
    <glyph glyph-name="arrowup" unicode="&#x2191;" 
d="M682 1243v-1397q0 -28 -17.5 -44.5t-48.5 -16.5t-48 16.5t-17 44.5v1397l-166 -309q-15 -26 -30.5 -36.5t-39.5 -10.5q-25 0 -43 20t-18 49q0 13 3 23.5t9 19.5l242 420q15 27 33 40.5t41 13.5h69q22 0 41 -14t33 -40l242 -420q5 -8 7.5 -18t2.5 -25q0 -29 -17.5 -49
t-41.5 -20t-40 10.5t-30 36.5z" />
    <glyph glyph-name="arrowright" unicode="&#x2192;" 
d="M950 563h-837q-29 0 -45.5 18t-16.5 50q0 31 16.5 48t45.5 17h837l-307 166q-26 15 -36.5 30.5t-10.5 39.5q0 25 19.5 42t48.5 17q15 0 26 -2.5t19 -7.5l417 -242q26 -14 40 -33t14 -40v-70q0 -22 -13.5 -40.5t-40.5 -33.5l-418 -242q-8 -5 -20 -8.5t-24 -3.5
q-30 0 -49 18t-19 44q0 22 11 38.5t36 30.5z" />
    <glyph glyph-name="arrowdown" unicode="&#x2193;" 
d="M682 16l166 308q14 24 30.5 35.5t39.5 11.5q25 0 42 -19.5t17 -48.5q0 -11 -3 -23.5t-7 -20.5l-242 -419q-15 -26 -34 -40.5t-40 -14.5h-69q-22 0 -40.5 14t-33.5 41l-242 418q-6 11 -9 22t-3 23q0 30 18.5 49t46.5 19q21 0 37.5 -12t28.5 -36l166 -307v1397
q0 28 17.5 44t47.5 16q32 0 49 -15.5t17 -44.5v-1397z" />
    <glyph glyph-name="arrowboth" unicode="&#x2194;" 
d="M1032 696l-245 170q-22 15 -31.5 29.5t-10.5 32.5q0 28 19.5 46.5t48.5 18.5q13 0 27 -4.5t24 -11.5l314 -234q25 -18 36 -36.5t11 -40.5v-70q0 -23 -11 -41t-36 -37l-313 -233q-12 -8 -25 -12.5t-27 -4.5q-30 0 -49 18t-19 46q0 18 10.5 33.5t30.5 29.5l246 168h-829
l246 -168q19 -13 28.5 -29t9.5 -34q0 -29 -17.5 -46.5t-47.5 -17.5q-14 0 -27 4.5t-25 12.5l-315 233q-25 18 -35 36t-10 42v70q0 24 10 41.5t35 35.5l316 234q10 7 24 11.5t27 4.5q28 0 46.5 -18.5t18.5 -46.5q0 -18 -9 -33t-29 -29l-246 -170h829z" />
    <glyph glyph-name="arrowupdn" unicode="&#x2195;" 
d="M682 39l166 307q14 25 30.5 36t39.5 11q25 0 42 -19.5t17 -47.5q0 -12 -2.5 -23.5t-7.5 -21.5l-242 -418q-14 -26 -33 -39.5t-41 -13.5h-69q-23 0 -41 13t-33 40l-242 418q-6 11 -9 22t-3 23q0 30 18.5 49.5t46.5 19.5q21 0 37.5 -12.5t28.5 -36.5l166 -307v1204
l-166 -309q-15 -26 -30.5 -36.5t-39.5 -10.5q-25 0 -43 20t-18 49q0 13 3 23.5t9 19.5l242 420q15 27 33 40.5t41 13.5h69q22 0 41 -14t33 -40l242 -420q5 -8 7.5 -18t2.5 -25q0 -29 -17.5 -49t-41.5 -20t-40 10.5t-30 36.5l-166 309v-1204z" />
    <glyph glyph-name="arrowupdnbse" unicode="&#x21a8;" 
d="M682 39l166 307q14 25 30.5 36t39.5 11q25 0 42 -19.5t17 -47.5q0 -12 -2.5 -23.5t-7.5 -21.5l-242 -418q-14 -26 -33 -39.5t-41 -13.5h-69q-23 0 -41 13t-33 40l-242 418q-6 11 -9 22t-3 23q0 30 18.5 49.5t46.5 19.5q21 0 37.5 -12.5t28.5 -36.5l166 -307v1204
l-166 -309q-15 -26 -30.5 -36.5t-39.5 -10.5q-25 0 -43 20t-18 49q0 13 3 23.5t9 19.5l242 420q15 27 33 40.5t41 13.5h69q22 0 41 -14t33 -40l242 -420q5 -8 7.5 -18t2.5 -25q0 -29 -17.5 -49t-41.5 -20t-40 10.5t-30 36.5l-166 309v-1204zM168 -334h895q31 0 47 -16.5
t16 -48.5t-16 -49t-47 -17h-895q-31 0 -47.5 17t-16.5 49t16.5 48.5t47.5 16.5z" />
    <glyph glyph-name="partialdiff" unicode="&#x2202;" 
d="M893 561q-56 77 -126.5 115.5t-158.5 38.5q-146 0 -248 -106t-102 -257q0 -109 67 -175t177 -66q138 0 239 115.5t152 334.5zM930 727q8 61 11 94.5t3 57.5q0 139 -60 212.5t-175 73.5q-81 0 -168 -45t-101 -45q-22 0 -41.5 21.5t-19.5 46.5q0 47 115 102t245 55
q168 0 262.5 -109.5t94.5 -305.5q0 -190 -51 -374.5t-134 -305.5q-79 -115 -184 -172.5t-235 -57.5q-178 0 -287 101.5t-109 265.5q0 213 151.5 360.5t370.5 147.5q95 0 169 -29.5t143 -93.5z" />
    <glyph glyph-name="Delta" unicode="&#x2206;" 
d="M1112 141h12q52 0 72.5 -15.5t20.5 -53.5q0 -35 -18 -53.5t-52 -18.5h-1061q-34 0 -52 18.5t-18 53.5q0 39 20.5 54t72.5 15h12l362 944q29 75 47.5 94t47.5 19h57q65 0 106 -106l2 -6zM606 1014l-332 -873h672z" />
    <glyph glyph-name="product" unicode="&#x220f;" 
d="M1081 1374v-1669h27q53 0 72.5 -15.5t19.5 -54.5q0 -36 -18.5 -53.5t-57.5 -17.5h-43h-182q-81 0 -103 15.5t-22 55.5q0 39 25 54.5t90 15.5h35v1669h-611v-1669h47q56 0 79.5 -16t23.5 -54q0 -40 -22 -55.5t-91 -15.5h-241q-37 0 -54.5 17.5t-17.5 53.5q0 40 20.5 55
t79.5 15h19v1669h-41q-65 0 -87 15.5t-22 56.5q0 36 18.5 53t57.5 17h6q20 2 37 2h983q19 0 40 -2h7q37 0 54.5 -17.5t17.5 -52.5q0 -40 -23 -56t-86 -16h-37z" />
    <glyph glyph-name="summation" unicode="&#x2211;" 
d="M66 1356q-22 30 -32.5 55t-10.5 43q0 35 21 49.5t75 14.5h973q34 0 52.5 -19.5t18.5 -54.5v-371q0 -36 -18 -55t-53 -19q-42 0 -57 23t-15 98v256h-805l520 -731l2 -2q47 -68 47 -94q0 -18 -10 -41t-31 -51l-540 -752h837v260q0 77 15 99t55 22q37 0 54.5 -18.5
t17.5 -57.5v-45v-327q0 -36 -19 -55t-53 -19h-1014q-53 0 -74.5 14t-21.5 47q0 31 38 83q8 11 11 16l588 823z" />
    <glyph glyph-name="minus" unicode="&#x2212;" 
d="M1092 801v-142h-953v142h953z" />
    <glyph glyph-name="uni2215" unicode="&#x2215;" 
d="M297 -190l494 1650h143l-496 -1650h-141z" />
    <glyph glyph-name="uni2219" unicode="&#x2219;" 
d="M469 694q0 61 42.5 105.5t102.5 44.5q61 0 105.5 -44.5t44.5 -105.5t-43.5 -104t-106.5 -43q-61 0 -103 42t-42 105z" />
    <glyph glyph-name="radical" unicode="&#x221a;" 
d="M1087 1565h162q35 0 57.5 -21t22.5 -53q0 -33 -22 -53.5t-58 -20.5h-61l-555 -1456q-17 -45 -33 -61.5t-39 -16.5t-40.5 18.5t-31.5 57.5l-301 821l-120 -39q-2 0 -6 -1q-15 -3 -21 -3q-31 0 -50.5 21t-19.5 55q0 25 14.5 41.5t45.5 26.5l184 59q5 2 11.5 3t17.5 1
q23 0 39.5 -13.5t27.5 -41.5l252 -699z" />
    <glyph glyph-name="infinity" unicode="&#x221e;" 
d="M694 627q57 -136 102.5 -186t106.5 -50q71 0 116.5 67t45.5 175q0 107 -42 171t-112 64q-66 0 -118.5 -58.5t-98.5 -182.5zM537 635q-56 134 -102 183.5t-107 49.5q-71 0 -116.5 -66.5t-45.5 -172.5q0 -109 41.5 -173.5t109.5 -64.5q67 0 120 59t100 185zM616 764
q47 117 120.5 180.5t164.5 63.5q119 0 205 -109.5t86 -269.5q0 -167 -81.5 -273t-207.5 -106q-83 0 -147 50t-142 181q-65 -124 -131 -177.5t-151 -53.5q-125 0 -208 107t-83 272q0 173 78.5 276t210.5 103q94 0 162 -57.5t124 -186.5z" />
    <glyph glyph-name="orthogonal" unicode="&#x221f;" 
d="M117 901q0 36 21 58t55 22q33 0 53 -22t20 -58v-754h770q35 0 57.5 -20.5t22.5 -52.5q0 -33 -22.5 -53.5t-57.5 -20.5h-843q-36 0 -56 19.5t-20 54.5v827z" />
    <glyph glyph-name="intersection" unicode="&#x2229;" 
d="M1139 768v-719q0 -38 -20 -60t-54 -22t-54 22t-20 60v719q0 178 -100.5 280.5t-274.5 102.5t-274 -102t-100 -281v-719q0 -38 -20 -60t-54 -22t-54 22t-20 60v719q0 244 141 385t381 141t381.5 -141.5t141.5 -384.5z" />
    <glyph glyph-name="integral" unicode="&#x222b;" 
d="M954 1589q130 0 203.5 -24.5t73.5 -67.5q0 -34 -20.5 -55t-55.5 -21q-26 0 -101 15.5t-124 15.5q-222 0 -236 -616q-3 -149 -6 -234q-2 -53 -5 -150q-12 -362 -26 -462q-21 -160 -114 -239t-260 -79q-132 0 -206.5 24.5t-74.5 67.5q0 34 21 55t55 21q24 0 102 -16.5
t129 -16.5q220 0 233 732q0 45 1 70q5 272 11 428.5t15 217.5q28 176 119 255t266 79z" />
    <glyph glyph-name="approxequal" unicode="&#x2248;" 
d="M133 434q0 57 89 110.5t190 53.5q67 0 207 -44t206 -44q67 0 138 37t88 37q24 0 36.5 -15t12.5 -45q0 -56 -90 -110t-189 -54q-67 0 -206.5 43t-206.5 43q-68 0 -139.5 -35.5t-86.5 -35.5q-24 0 -36.5 15t-12.5 44zM133 735q0 57 89 110.5t190 53.5q67 0 207 -43t206 -43
q67 0 138 36t88 36q24 0 36.5 -15t12.5 -45q0 -56 -90 -109.5t-189 -53.5q-67 0 -206.5 44t-206.5 44q-68 0 -139.5 -37t-86.5 -37q-24 0 -36.5 15t-12.5 44z" />
    <glyph glyph-name="notequal" unicode="&#x2260;" 
d="M899 872h164q30 0 46.5 -19.5t16.5 -53.5q0 -37 -16 -55.5t-47 -18.5h-291l-162 -193h453q33 0 48 -16.5t15 -52.5q0 -35 -17 -55.5t-46 -20.5h-565l-170 -207q-12 -15 -25.5 -22.5t-26.5 -7.5q-23 0 -50 24.5t-27 48.5q0 14 6.5 28.5t19.5 29.5l90 106h-147
q-29 0 -46.5 20.5t-17.5 55.5q0 37 15 53t49 16h268l162 193h-430q-31 0 -47.5 18.5t-16.5 55.5q0 36 16.5 54.5t47.5 18.5h549l172 207q12 15 25 23t26 8q25 0 51.5 -25t26.5 -49q0 -13 -7 -28t-20 -29z" />
    <glyph glyph-name="equivalence" unicode="&#x2261;" 
d="M168 367h895q31 0 47 -18.5t16 -53.5t-16 -53.5t-47 -18.5h-895q-31 0 -47.5 18.5t-16.5 53.5t16.5 53.5t47.5 18.5zM168 700h895q31 0 47 -18t16 -53t-16 -52.5t-47 -17.5h-895q-32 0 -48 17.5t-16 52.5t16.5 53t47.5 18zM168 1036h895q31 0 47 -18t16 -53t-16 -53.5
t-47 -18.5h-895q-31 0 -47.5 18.5t-16.5 53.5t16.5 53t47.5 18z" />
    <glyph glyph-name="lessequal" unicode="&#x2264;" 
d="M236 285h759q35 0 57.5 -21t22.5 -53q0 -30 -23.5 -52t-56.5 -22h-759q-36 0 -58 20.5t-22 53.5q0 32 22 53t58 21zM426 786l565 -184q54 -17 74 -36.5t20 -53.5q0 -27 -18.5 -44t-48.5 -17q-14 0 -33 4t-41 12l-704 233q-46 16 -65 35.5t-19 50.5q0 29 21 51t63 35
l704 234q24 8 43 12t31 4q29 0 48 -17t19 -42q0 -34 -20 -53.5t-74 -36.5z" />
    <glyph glyph-name="greaterequal" unicode="&#x2265;" 
d="M240 285h761q36 0 58 -21t22 -53q0 -33 -22 -53.5t-58 -20.5h-761q-33 0 -56.5 22t-23.5 52q0 32 22 53t58 21zM809 786l-565 187q-52 17 -72 36t-20 48q0 31 17.5 48t49.5 17q11 0 26.5 -3.5t45.5 -12.5l706 -234q42 -13 63 -35t21 -51q0 -30 -19.5 -50.5t-64.5 -35.5
l-706 -233q-27 -9 -43 -12.5t-29 -3.5q-31 0 -49 17.5t-18 47.5t20.5 49.5t71.5 36.5z" />
    <glyph glyph-name="house" unicode="&#x2302;" 
d="M184 80h865v702l-433 586l-432 -586v-702zM104 0v807l512 694l512 -694v-807h-1024z" />
    <glyph glyph-name="revlogicalnot" unicode="&#x2310;" 
d="M250 764v-334q0 -32 -22.5 -56t-53.5 -24q-34 0 -55 22.5t-21 57.5v440q0 19 15 29t43 10h895q33 0 56 -20.5t23 -50.5q0 -33 -22 -53.5t-57 -20.5h-801z" />
    <glyph glyph-name="integraltp" unicode="&#x2320;" 
d="M692 -483h-151v1196q0 288 7.5 395.5t24.5 175.5q37 139 126 202.5t245 63.5q131 0 205 -24.5t74 -67.5q0 -34 -20.5 -55t-55.5 -21q-26 0 -101.5 15.5t-123.5 15.5q-131 0 -180.5 -98.5t-49.5 -396.5v-1401z" />
    <glyph glyph-name="integralbt" unicode="&#x2321;" 
d="M541 1565h151v-1198q0 -561 -86 -698.5t-317 -137.5q-131 0 -205 24.5t-74 67.5q0 34 21 55t55 21q26 0 100 -15.5t123 -15.5q132 0 182 100t50 396v1401z" />
    <glyph glyph-name="SF100000" unicode="&#x2500;" 
d="M-12 598h1257v-117h-1257v117z" />
    <glyph glyph-name="SF110000" unicode="&#x2502;" 
d="M557 1575h119v-2071h-119v2071z" />
    <glyph glyph-name="SF010000" unicode="&#x250c;" 
d="M557 598h688v-117h-569v-977h-119v1094z" />
    <glyph glyph-name="SF030000" unicode="&#x2510;" 
d="M-12 598h688v-1094h-119v977h-569v117z" />
    <glyph glyph-name="SF020000" unicode="&#x2514;" 
d="M557 1575h119v-977h569v-117h-688v1094z" />
    <glyph glyph-name="SF040000" unicode="&#x2518;" 
d="M557 1575h119v-1094h-688v117h569v977z" />
    <glyph glyph-name="SF080000" unicode="&#x251c;" 
d="M557 1575h119v-977h569v-117h-569v-977h-119v2071z" />
    <glyph glyph-name="SF090000" unicode="&#x2524;" 
d="M557 1575h119v-2071h-119v977h-569v117h569v977z" />
    <glyph glyph-name="SF060000" unicode="&#x252c;" 
d="M-12 598h1257v-117h-569v-977h-119v977h-569v117z" />
    <glyph glyph-name="SF070000" unicode="&#x2534;" 
d="M557 1575h119v-977h569v-117h-1257v117h569v977z" />
    <glyph glyph-name="SF050000" unicode="&#x253c;" 
d="M557 1575h119v-977h569v-117h-569v-977h-119v977h-569v117h569v977z" />
    <glyph glyph-name="SF430000" unicode="&#x2550;" 
d="M-12 422h1257v-119h-1257v119zM-12 778h1257v-119h-1257v119z" />
    <glyph glyph-name="SF240000" unicode="&#x2551;" 
d="M735 1577h119v-2073h-119v2073zM379 1577h119v-2073h-119v2073z" />
    <glyph glyph-name="SF510000" unicode="&#x2552;" 
d="M557 778h688v-119h-569v-237h569v-119h-569v-799h-119v1274z" />
    <glyph glyph-name="SF520000" unicode="&#x2553;" 
d="M379 598h866v-117h-391v-977h-119v977h-237v-977h-119v1094z" />
    <glyph glyph-name="SF390000" unicode="&#x2554;" 
d="M735 422h510v-119h-391v-799h-119v918zM379 778h866v-119h-747v-1155h-119v1274z" />
    <glyph glyph-name="SF220000" unicode="&#x2555;" 
d="M-12 778h688v-1274h-119v799h-569v119h569v237h-569v119z" />
    <glyph glyph-name="SF210000" unicode="&#x2556;" 
d="M-12 598h866v-1094h-119v977h-237v-977h-119v977h-391v117z" />
    <glyph glyph-name="SF250000" unicode="&#x2557;" 
d="M-12 422h510v-918h-119v799h-391v119zM-12 778h866v-1274h-119v1155h-747v119z" />
    <glyph glyph-name="SF500000" unicode="&#x2558;" 
d="M557 1577h119v-799h569v-119h-569v-237h569v-119h-688v1274z" />
    <glyph glyph-name="SF490000" unicode="&#x2559;" 
d="M379 1575h119v-977h237v977h119v-977h391v-117h-866v1094z" />
    <glyph glyph-name="SF380000" unicode="&#x255a;" 
d="M735 1577h119v-799h391v-119h-510v918zM379 1577h119v-1155h747v-119h-866v1274z" />
    <glyph glyph-name="SF280000" unicode="&#x255b;" 
d="M557 1577h119v-1274h-688v119h569v237h-569v119h569v799z" />
    <glyph glyph-name="SF270000" unicode="&#x255c;" 
d="M379 1575h119v-977h237v977h119v-1094h-866v117h391v977z" />
    <glyph glyph-name="SF260000" unicode="&#x255d;" 
d="M735 1577h119v-1274h-866v119h747v1155zM379 1577h119v-918h-510v119h391v799z" />
    <glyph glyph-name="SF360000" unicode="&#x255e;" 
d="M557 1575h119v-797h569v-119h-569v-237h569v-119h-569v-799h-119v2071z" />
    <glyph glyph-name="SF370000" unicode="&#x255f;" 
d="M735 1577h119v-979h391v-117h-391v-977h-119v2073zM379 1577h119v-2073h-119v2073z" />
    <glyph glyph-name="SF420000" unicode="&#x2560;" 
d="M735 422h510v-119h-391v-799h-119v918zM735 1577h119v-799h391v-119h-510v918zM379 1577h119v-2073h-119v2073z" />
    <glyph glyph-name="SF190000" unicode="&#x2561;" 
d="M557 1575h119v-2071h-119v799h-569v119h569v237h-569v119h569v797z" />
    <glyph glyph-name="SF200000" unicode="&#x2562;" 
d="M735 1577h119v-2073h-119v2073zM379 1577h119v-2073h-119v977h-391v117h391v979z" />
    <glyph glyph-name="SF230000" unicode="&#x2563;" 
d="M-12 422h510v-918h-119v799h-391v119zM735 1577h119v-2073h-119v2073zM379 1577h119v-918h-510v119h391v799z" />
    <glyph glyph-name="SF470000" unicode="&#x2564;" 
d="M-12 422h1257v-119h-569v-799h-119v799h-569v119zM-12 778h1257v-119h-1257v119z" />
    <glyph glyph-name="SF480000" unicode="&#x2565;" 
d="M-12 598h1257v-117h-391v-979h-119v979h-237v-979h-119v979h-391v117z" />
    <glyph glyph-name="SF410000" unicode="&#x2566;" 
d="M735 422h510v-119h-391v-799h-119v918zM-12 422h510v-918h-119v799h-391v119zM-12 778h1257v-119h-1257v119z" />
    <glyph glyph-name="SF450000" unicode="&#x2567;" 
d="M-12 422h1257v-119h-1257v119zM557 1575h119v-797h569v-119h-1257v119h569v797z" />
    <glyph glyph-name="SF460000" unicode="&#x2568;" 
d="M379 1577h119v-979h237v979h119v-979h391v-117h-1257v117h391v979z" />
    <glyph glyph-name="SF400000" unicode="&#x2569;" 
d="M-12 422h1257v-119h-1257v119zM735 1577h119v-799h391v-119h-510v918zM379 1577h119v-918h-510v119h391v799z" />
    <glyph glyph-name="SF540000" unicode="&#x256a;" 
d="M557 1575h119v-797h569v-119h-569v-237h569v-119h-569v-799h-119v799h-569v119h569v237h-569v119h569v797z" />
    <glyph glyph-name="SF530000" unicode="&#x256b;" 
d="M379 1577h119v-979h237v979h119v-979h391v-117h-391v-977h-119v977h-237v-977h-119v977h-391v117h391v979z" />
    <glyph glyph-name="SF440000" unicode="&#x256c;" 
d="M735 422h510v-119h-391v-799h-119v918zM-12 422h510v-918h-119v799h-391v119zM735 1577h119v-799h391v-119h-510v918zM379 1577h119v-918h-510v119h391v799z" />
    <glyph glyph-name="upblock" unicode="&#x2580;" 
d="M-12 1575h1257v-1034h-1257v1034z" />
    <glyph glyph-name="dnblock" unicode="&#x2584;" 
d="M-12 535h1257v-1031h-1257v1031z" />
    <glyph glyph-name="block" unicode="&#x2588;" 
d="M-12 1575h1257v-2071h-1257v2071z" />
    <glyph glyph-name="lfblock" unicode="&#x258c;" 
d="M-12 1575h628v-2071h-628v2071z" />
    <glyph glyph-name="rtblock" unicode="&#x2590;" 
d="M616 1575h629v-2071h-629v2071z" />
    <glyph glyph-name="ltshade" unicode="&#x2591;" 
d="M823 1223v342h205v-342h-205zM412 1223v342h204v-342h-204zM823 541v340h205v-340h-205zM412 541v340h204v-340h-204zM823 -143v342h205v-342h-205zM412 -143v342h204v-342h-204zM0 -143v342h205v-342h-205zM0 541v340h205v-340h-205zM0 1223v342h205v-342h-205z" />
    <glyph glyph-name="shade" unicode="&#x2592;" 
d="M1028 881v342h207v-342h-207zM616 881v342h207v-342h-207zM616 199v342h207v-342h-207zM1028 199v342h207v-342h-207zM1028 -483v340h207v-340h-207zM616 -483v340h207v-340h-207zM205 -483v340h207v-340h-207zM205 199v342h207v-342h-207zM205 881v342h207v-342h-207z
M823 1223v342h205v-342h-205zM412 1223v342h204v-342h-204zM823 541v340h205v-340h-205zM412 541v340h204v-340h-204zM823 -143v342h205v-342h-205zM412 -143v342h204v-342h-204zM0 -143v342h205v-342h-205zM0 541v340h205v-340h-205zM0 1223v342h205v-342h-205z" />
    <glyph glyph-name="dkshade" unicode="&#x2593;" 
d="M616 881h207v342h-207v-342zM205 881h207v342h-207v-342zM205 199h207v342h-207v-342zM616 199h207v342h-207v-342zM823 -496v353h-207v-353h-204v353h-207v-353h-205v2061h1235v-342h-207v-342h207v-340h-207v-342h207v-342h-207v-353h-205z" />
    <glyph glyph-name="filledbox" unicode="&#x25a0;" 
d="M100 1370h1033v-1370h-1033v1370z" />
    <glyph glyph-name="H22073" unicode="&#x25a1;" 
d="M1118 1329h-1003v-1579h1003v1579zM1233 1444v-1806h-1233v1806h1233z" />
    <glyph glyph-name="H18543" unicode="&#x25aa;" 
d="M57 0v1116h1119v-1116h-1119z" />
    <glyph glyph-name="H18551" unicode="&#x25ab;" 
d="M180 123h873v872h-873v-872zM57 0v1118h1119v-1118h-1119z" />
    <glyph glyph-name="filledrect" unicode="&#x25ac;" 
d="M4 889h1225v-408h-1225v408z" />
    <glyph glyph-name="triagup" unicode="&#x25b2;" 
d="M168 285l448 854l449 -854h-897z" />
    <glyph glyph-name="triagrt" unicode="&#x25ba;" 
d="M190 1133l852 -449l-852 -448v897z" />
    <glyph glyph-name="triagdn" unicode="&#x25bc;" 
d="M168 1081h897l-449 -854z" />
    <glyph glyph-name="triaglf" unicode="&#x25c4;" 
d="M1042 236l-852 448l852 449v-897z" />
    <glyph glyph-name="lozenge" unicode="&#x25ca;" 
d="M616 1270l-342 -727l342 -736l342 736zM616 1509l455 -966l-455 -971l-454 971z" />
    <glyph glyph-name="circle" unicode="&#x25cb;" 
d="M616 1040q-202 0 -347.5 -146t-145.5 -347q0 -202 145 -348t348 -146t348.5 146t145.5 348q0 204 -144.5 348.5t-349.5 144.5zM25 545q0 246 173 420t418 174t418.5 -174.5t173.5 -419.5q0 -244 -173 -418t-419 -174t-418.5 172.5t-172.5 419.5z" />
    <glyph glyph-name="H18533" unicode="&#x25cf;" 
d="M39 684q0 240 170 410t409 170q238 0 407 -170t169 -410q0 -237 -169 -406t-409 -169q-239 0 -408 167.5t-169 407.5z" />
    <glyph glyph-name="invbullet" unicode="&#x25d8;" 
d="M618 1051q-211 0 -361.5 -151t-150.5 -361q0 -212 149 -360t361 -148t361 149t149 359q0 211 -149 361.5t-359 150.5zM1233 1565v-2048h-1233v2048h1233z" />
    <glyph glyph-name="invcircle" unicode="&#x25d9;" 
d="M205 541q0 170 120.5 291.5t290.5 121.5t291 -121.5t121 -291.5t-120.5 -292t-291.5 -122t-291 121t-120 293zM618 1051q-211 0 -361.5 -151t-150.5 -361q0 -212 149 -360t361 -148t361 149t149 359q0 211 -149 361.5t-359 150.5zM1233 1565v-2048h-1233v2048h1233z" />
    <glyph glyph-name="openbullet" unicode="&#x25e6;" 
d="M815 610q0 82 -58.5 140.5t-140.5 58.5t-140 -58t-58 -141t58 -140.5t140 -57.5q83 0 141 58.5t58 139.5zM616 897q119 0 203 -83.5t84 -203.5q0 -118 -84.5 -203t-204.5 -85q-119 0 -202.5 84t-83.5 204t84.5 203.5t203.5 83.5z" />
    <glyph glyph-name="smileface" unicode="&#x263a;" 
d="M684 827q0 39 12.5 55.5t40.5 16.5q29 0 41.5 -16t12.5 -56q0 -37 -13 -53t-41 -16t-40.5 16t-12.5 53zM446 827q0 41 12 56.5t42 15.5q27 0 40 -17t13 -55q0 -35 -13 -52t-40 -17q-28 0 -41 16t-13 53zM1044 575q13 -16 17 -25t4 -18q0 -11 -6.5 -18.5t-16.5 -7.5
q-9 0 -26 19.5t-31 19.5q-15 0 -34 -47q-16 -40 -29 -64q-51 -87 -129.5 -133.5t-176.5 -46.5q-88 0 -162 40.5t-126 117.5q-23 33 -43.5 83t-34.5 50t-32 -19.5t-28 -19.5q-9 0 -14.5 7t-5.5 19q0 14 17 41l1 2l62 84q14 20 27.5 30.5t25.5 10.5q9 0 16 -5t7 -13
q0 -10 -7.5 -29.5t-7.5 -29.5q0 -99 91.5 -193t213.5 -94q123 0 215.5 95t92.5 192q0 11 -7.5 30t-7.5 29q0 7 5.5 12.5t15.5 5.5q12 0 26.5 -10.5t28.5 -30.5zM618 1081q-219 0 -373.5 -153.5t-154.5 -372.5q0 -217 154.5 -371.5t373.5 -154.5t372 153.5t153 372.5
q0 221 -152 373.5t-373 152.5zM2 555q0 254 179.5 433t436.5 179q259 0 436 -177t177 -437q0 -255 -178 -433.5t-435 -178.5q-256 0 -436 179.5t-180 434.5z" />
    <glyph glyph-name="invsmileface" unicode="&#x263b;" 
d="M737 899q-28 0 -40.5 -16.5t-12.5 -55.5q0 -37 12.5 -53t40.5 -16t41 16t13 53q0 40 -12.5 56t-41.5 16zM500 899q-29 0 -40 -14.5t-11 -57.5q0 -37 11.5 -53t39.5 -16q27 0 40 17t13 52q0 38 -13 55t-40 17zM1044 575l-59 84q-14 20 -28.5 30.5t-26.5 10.5
q-10 0 -15.5 -5.5t-5.5 -12.5q0 -10 7.5 -29.5t7.5 -29.5q0 -98 -92 -192.5t-216 -94.5q-122 0 -213.5 94t-91.5 193q0 10 7.5 29.5t7.5 29.5q0 8 -7 13t-16 5q-12 0 -25.5 -10.5t-27.5 -30.5l-62 -84q-10 -13 -14 -23t-4 -20q0 -11 6.5 -18.5t16.5 -7.5q9 0 26 19.5
t31 19.5t31 -42.5t32 -68.5q52 -87 130 -133.5t173 -46.5q90 0 163.5 39.5t125.5 116.5q24 33 44.5 84t35.5 51t31.5 -19.5t25.5 -19.5q10 0 16.5 7.5t6.5 18.5q0 9 -4 18t-17 25zM12 555q0 251 176.5 427.5t429.5 176.5q254 0 428.5 -175t174.5 -431q0 -252 -175.5 -429
t-427.5 -177t-429 177.5t-177 430.5z" />
    <glyph glyph-name="sun" unicode="&#x263c;" 
d="M618 926q-121 0 -206.5 -85.5t-85.5 -207.5t85.5 -207.5t206.5 -85.5q122 0 207.5 86.5t85.5 206.5q0 121 -86 207t-207 86zM111 584v92h128q5 49 26 99t54 89l-96 94l70 60l90 -90q38 34 84.5 55t101.5 29v129h93v-129q57 -8 102.5 -28.5t87.5 -55.5l90 90l68 -60
l-95 -94q33 -42 52 -89.5t25 -98.5h130v-92l-131 -1q-5 -48 -24 -95.5t-52 -90.5l95 -96l-70 -57l-88 88q-43 -36 -89.5 -56t-100.5 -26v-131h-93v131q-56 6 -102 26.5t-86 55.5l-88 -90l-68 59l94 96q-32 36 -53.5 86t-26.5 101h-128z" />
    <glyph glyph-name="female" unicode="&#x2640;" 
d="M616 1399q-143 0 -245.5 -102t-102.5 -246q0 -145 102 -245.5t246 -100.5t245.5 102t101.5 244q0 143 -102 245.5t-245 102.5zM553 -90v256h-295v129h295v295q-177 23 -290 152.5t-113 308.5q0 195 136.5 332t329.5 137q192 0 329.5 -137.5t137.5 -331.5
q0 -173 -117.5 -309t-283.5 -152v-295h297v-129h-297v-256h-129z" />
    <glyph glyph-name="male" unicode="&#x2642;" 
d="M508 715q-144 0 -246 -101.5t-102 -244.5q0 -145 101 -247t245 -102t245 103t101 246t-100.5 244.5t-243.5 101.5zM616 819l187 469q-69 -23 -154.5 -38t-179.5 -19l-18 78q108 19 228 67t247 123l47 -14q21 -115 76 -234.5t143 -240.5l-66 -43q-78 74 -132.5 144.5
t-75.5 125.5l-181 -465q113 -64 174.5 -169t61.5 -234q0 -194 -133.5 -329.5t-331.5 -135.5t-333.5 134.5t-135.5 330.5q0 193 136 330t327 137q27 0 54.5 -4t59.5 -13z" />
    <glyph glyph-name="spade" unicode="&#x2660;" 
d="M504 72q42 47 62 113.5t20 156.5q0 54 -9.5 77t-31.5 23q-35 0 -57 -64q-8 -24 -13 -36q-26 -69 -78.5 -109t-113.5 -40q-97 0 -160.5 66.5t-63.5 168.5q0 143 227 425t330 445q103 -161 330.5 -445t227.5 -427q0 -99 -63.5 -166t-154.5 -67q-59 0 -110.5 34.5
t-79.5 94.5q-9 18 -20 51q-23 69 -58 69q-22 0 -31.5 -22t-9.5 -78q0 -93 20.5 -159.5t61.5 -110.5h-225z" />
    <glyph glyph-name="club" unicode="&#x2663;" 
d="M494 145q41 48 59 106t18 150q0 41 -11 66t-30 25t-53 -45q-17 -24 -28 -37q-49 -61 -97 -86t-112 -25q-91 0 -149 70.5t-58 181.5q0 113 60.5 184.5t152.5 71.5q69 0 148 -49t93 -49t22.5 7t8.5 19t-83 91t-83 167q0 109 70 169.5t194 60.5t193.5 -61t69.5 -169
q0 -90 -82 -167t-82 -91q0 -12 7.5 -19t20.5 -7q15 0 92.5 49t147.5 49q93 0 155 -72t62 -184q0 -109 -59 -180.5t-150 -71.5q-63 0 -110 24t-99 87q-10 12 -27 34q-35 45 -55 45q-17 0 -27.5 -24.5t-10.5 -67.5q0 -91 18 -148.5t59 -103.5h-245z" />
    <glyph glyph-name="heart" unicode="&#x2665;" 
d="M614 92q-101 167 -297 404q-67 81 -96 118q-90 116 -126 202t-36 177q0 125 73.5 205t184.5 80q82 0 143 -45t97 -131q5 -12 14 -37q19 -57 43 -57q28 0 51 65q7 19 11 29q36 85 97.5 130.5t141.5 45.5q111 0 183.5 -81.5t72.5 -209.5q0 -89 -36 -174.5t-123 -198.5
q-23 -28 -79 -96q-200 -240 -319 -426z" />
    <glyph glyph-name="diamond" unicode="&#x2666;" 
d="M610 76l-479 608l479 610l490 -610z" />
    <glyph glyph-name="musicalnote" unicode="&#x266a;" 
d="M625 1032v-686q0 -108 -13.5 -162.5t-44.5 -95.5q-45 -58 -123 -95.5t-155 -37.5q-82 0 -131 44t-49 116q0 103 111 195.5t229 92.5q35 0 56 -5t42 -17v1083h78v-123q0 -113 132 -258l11 -12q138 -152 187 -260t49 -238q0 -49 -9.5 -114t-31.5 -170l-72 18
q17 72 25 131.5t8 112.5q0 163 -60 264.5t-239 216.5z" />
    <glyph glyph-name="musicalnotedbl" unicode="&#x266b;" 
d="M895 754q0 86 -67 168t-236 200v-112q0 -91 120.5 -194.5t182.5 -180.5v119zM592 1464v-69q0 -132 179 -307q33 -32 50 -50q101 -100 125.5 -157t24.5 -146v-774q0 -147 -14.5 -207.5t-49.5 -101.5q-45 -54 -121 -89.5t-149 -35.5q-81 0 -131.5 44.5t-50.5 117.5
q0 106 111.5 196t248.5 90q24 0 42.5 -5.5t37.5 -18.5v495q0 80 -66 157t-237 194v-435q0 -123 -13 -177.5t-44 -96.5q-44 -58 -122 -95.5t-155 -37.5q-81 0 -130.5 44t-49.5 116q0 104 111 196t237 92q27 0 47.5 -5.5t42.5 -18.5v1085h76z" />
    <glyph glyph-name="uniF001" unicode="&#xf001;" 
d="M1083 1470v-204h-180v204h180zM903 0v1063h180v-1063h-180zM229 909h-204v154h204v100q0 152 92 228.5t273 76.5q31 0 62 -2t63 -6v-155q-28 3 -51 4.5t-41 1.5q-105 0 -161 -47t-56 -134v-67h249v-154h-249v-909h-181v909z" />
    <glyph glyph-name="uniF001" unicode="&#xfb01;" 
d="M1083 1470v-204h-180v204h180zM903 0v1063h180v-1063h-180zM229 909h-204v154h204v100q0 152 92 228.5t273 76.5q31 0 62 -2t63 -6v-155q-28 3 -51 4.5t-41 1.5q-105 0 -161 -47t-56 -134v-67h249v-154h-249v-909h-181v909z" />
    <glyph glyph-name="uniF002" unicode="&#xf002;" 
d="M903 0v1470h180v-1470h-180zM229 909h-204v154h204v100q0 152 92 228.5t273 76.5q31 0 62 -2t63 -6v-155q-28 3 -51 4.5t-41 1.5q-105 0 -161 -47t-56 -134v-67h249v-154h-249v-909h-181v909z" />
    <glyph glyph-name="uniF002" unicode="&#xfb02;" 
d="M903 0v1470h180v-1470h-180zM229 909h-204v154h204v100q0 152 92 228.5t273 76.5q31 0 62 -2t63 -6v-155q-28 3 -51 4.5t-41 1.5q-105 0 -161 -47t-56 -134v-67h249v-154h-249v-909h-181v909z" />
    <glyph glyph-name="uniF004" unicode="&#xf004;" 
d="M516 -317v192h201v-182q0 -94 -51 -143t-150 -51l1 73q55 2 80.5 27t25.5 77v7h-107z" />
    <glyph glyph-name="uniF005" unicode="&#xf005;" 
d="M397 -426v100q76 -18 141.5 -28.5t106.5 -10.5q61 0 90 20t29 62q0 43 -31.5 64.5t-93.5 21.5q-20 0 -34 -0.5t-27 -1.5v199h77v-102h29q110 0 166.5 -46t56.5 -135q0 -91 -65 -139.5t-187 -48.5q-48 0 -114 11.5t-144 33.5z" />
    <glyph glyph-name="glyph2" 
 />
    <glyph glyph-name="glyph653" 
d="M500 1165v256h235v-272q0 -151 -69.5 -233.5t-204.5 -91.5v116q82 9 117.5 54t35.5 141v30h-114z" />
    <glyph glyph-name="glyph659" 
d="M264 -256q14 -1 42 -4q66 -6 95 -6q117 0 156 38t39 167v970h-283v154h463v-1139q0 -197 -73.5 -274.5t-253.5 -77.5q-34 0 -78 2.5t-106 7.5z" />
    <glyph glyph-name="glyph660" 
d="M692 1518h182v-211h-182v211zM362 1518h183v-211h-183v211z" />
  </font>
</defs>
</svg>
